<svg xmlns="http://www.w3.org/2000/svg" xmlns:xlink="http://www.w3.org/1999/xlink" width="500" zoomAndPan="magnify" viewBox="0 0 375 374.999991" height="500" preserveAspectRatio="xMidYMid meet" version="1.0"><defs><g/><clipPath id="ec9c54f5bd"><path d="M 168 209.570312 L 269 209.570312 L 269 238 L 168 238 Z M 168 209.570312 " clip-rule="nonzero"/></clipPath><clipPath id="f3438f3c2b"><path d="M 140.117188 66.789062 L 297.617188 66.789062 L 297.617188 207 L 140.117188 207 Z M 140.117188 66.789062 " clip-rule="nonzero"/></clipPath></defs><g fill="#302626" fill-opacity="1"><g transform="translate(8.080414, 173.043502)"><g><path d="M 9.78125 -12.484375 C 9.882812 -12.484375 9.960938 -12.453125 10.015625 -12.390625 C 10.078125 -12.328125 10.109375 -12.25 10.109375 -12.15625 L 10.109375 -10.25 C 10.109375 -10.15625 10.078125 -10.078125 10.015625 -10.015625 C 9.960938 -9.960938 9.882812 -9.9375 9.78125 -9.9375 L 6.8125 -9.9375 C 6.726562 -9.9375 6.6875 -9.894531 6.6875 -9.8125 L 6.6875 -0.328125 C 6.6875 -0.222656 6.65625 -0.140625 6.59375 -0.078125 C 6.53125 -0.0234375 6.453125 0 6.359375 0 L 4.046875 0 C 3.953125 0 3.875 -0.0234375 3.8125 -0.078125 C 3.75 -0.140625 3.71875 -0.222656 3.71875 -0.328125 L 3.71875 -9.8125 C 3.71875 -9.894531 3.675781 -9.9375 3.59375 -9.9375 L 0.734375 -9.9375 C 0.640625 -9.9375 0.5625 -9.960938 0.5 -10.015625 C 0.4375 -10.078125 0.40625 -10.15625 0.40625 -10.25 L 0.40625 -12.15625 C 0.40625 -12.25 0.4375 -12.328125 0.5 -12.390625 C 0.5625 -12.453125 0.640625 -12.484375 0.734375 -12.484375 Z M 9.78125 -12.484375 "/></g></g></g><g fill="#302626" fill-opacity="1"><g transform="translate(17.962161, 173.043502)"><g><path d="M 7.34375 -12.15625 C 7.34375 -12.25 7.375 -12.328125 7.4375 -12.390625 C 7.5 -12.453125 7.578125 -12.484375 7.671875 -12.484375 L 9.984375 -12.484375 C 10.078125 -12.484375 10.15625 -12.453125 10.21875 -12.390625 C 10.28125 -12.328125 10.3125 -12.25 10.3125 -12.15625 L 10.3125 -0.328125 C 10.3125 -0.222656 10.28125 -0.140625 10.21875 -0.078125 C 10.15625 -0.0234375 10.078125 0 9.984375 0 L 7.671875 0 C 7.578125 0 7.5 -0.0234375 7.4375 -0.078125 C 7.375 -0.140625 7.34375 -0.222656 7.34375 -0.328125 L 7.34375 -4.921875 C 7.34375 -5.003906 7.300781 -5.046875 7.21875 -5.046875 L 3.953125 -5.046875 C 3.867188 -5.046875 3.828125 -5.003906 3.828125 -4.921875 L 3.828125 -0.328125 C 3.828125 -0.222656 3.796875 -0.140625 3.734375 -0.078125 C 3.679688 -0.0234375 3.609375 0 3.515625 0 L 1.1875 0 C 1.09375 0 1.015625 -0.0234375 0.953125 -0.078125 C 0.898438 -0.140625 0.875 -0.222656 0.875 -0.328125 L 0.875 -12.15625 C 0.875 -12.25 0.898438 -12.328125 0.953125 -12.390625 C 1.015625 -12.453125 1.09375 -12.484375 1.1875 -12.484375 L 3.515625 -12.484375 C 3.609375 -12.484375 3.679688 -12.453125 3.734375 -12.390625 C 3.796875 -12.328125 3.828125 -12.25 3.828125 -12.15625 L 3.828125 -7.703125 C 3.828125 -7.617188 3.867188 -7.578125 3.953125 -7.578125 L 7.21875 -7.578125 C 7.300781 -7.578125 7.34375 -7.617188 7.34375 -7.703125 Z M 7.34375 -12.15625 "/></g></g></g><g fill="#302626" fill-opacity="1"><g transform="translate(28.360274, 173.043502)"><g><path d="M 1.1875 0 C 1.09375 0 1.015625 -0.0234375 0.953125 -0.078125 C 0.898438 -0.140625 0.875 -0.222656 0.875 -0.328125 L 0.875 -12.15625 C 0.875 -12.25 0.898438 -12.328125 0.953125 -12.390625 C 1.015625 -12.453125 1.09375 -12.484375 1.1875 -12.484375 L 3.515625 -12.484375 C 3.609375 -12.484375 3.679688 -12.453125 3.734375 -12.390625 C 3.796875 -12.328125 3.828125 -12.25 3.828125 -12.15625 L 3.828125 -0.328125 C 3.828125 -0.222656 3.796875 -0.140625 3.734375 -0.078125 C 3.679688 -0.0234375 3.609375 0 3.515625 0 Z M 1.1875 0 "/></g></g></g><g fill="#302626" fill-opacity="1"><g transform="translate(32.455029, 173.043502)"><g><path d="M 1.21875 0 C 1.113281 0 1.03125 -0.0234375 0.96875 -0.078125 C 0.914062 -0.140625 0.890625 -0.222656 0.890625 -0.328125 L 0.890625 -12.15625 C 0.890625 -12.25 0.914062 -12.328125 0.96875 -12.390625 C 1.03125 -12.453125 1.113281 -12.484375 1.21875 -12.484375 L 3.40625 -12.484375 C 3.570312 -12.484375 3.695312 -12.410156 3.78125 -12.265625 L 7.703125 -5.640625 C 7.722656 -5.585938 7.75 -5.566406 7.78125 -5.578125 C 7.820312 -5.585938 7.84375 -5.625 7.84375 -5.6875 L 7.828125 -12.15625 C 7.828125 -12.25 7.851562 -12.328125 7.90625 -12.390625 C 7.96875 -12.453125 8.046875 -12.484375 8.140625 -12.484375 L 10.421875 -12.484375 C 10.523438 -12.484375 10.601562 -12.453125 10.65625 -12.390625 C 10.71875 -12.328125 10.75 -12.25 10.75 -12.15625 L 10.75 -0.328125 C 10.75 -0.222656 10.71875 -0.140625 10.65625 -0.078125 C 10.601562 -0.0234375 10.523438 0 10.421875 0 L 8.234375 0 C 8.078125 0 7.953125 -0.0703125 7.859375 -0.21875 L 3.9375 -6.9375 C 3.914062 -7 3.882812 -7.019531 3.84375 -7 C 3.800781 -6.988281 3.78125 -6.957031 3.78125 -6.90625 L 3.8125 -0.328125 C 3.8125 -0.222656 3.78125 -0.140625 3.71875 -0.078125 C 3.664062 -0.0234375 3.59375 0 3.5 0 Z M 1.21875 0 "/></g></g></g><g fill="#302626" fill-opacity="1"><g transform="translate(43.458564, 173.043502)"><g><path d="M 1.1875 0 C 1.09375 0 1.015625 -0.0234375 0.953125 -0.078125 C 0.898438 -0.140625 0.875 -0.222656 0.875 -0.328125 L 0.875 -12.15625 C 0.875 -12.25 0.898438 -12.328125 0.953125 -12.390625 C 1.015625 -12.453125 1.09375 -12.484375 1.1875 -12.484375 L 3.515625 -12.484375 C 3.609375 -12.484375 3.679688 -12.453125 3.734375 -12.390625 C 3.796875 -12.328125 3.828125 -12.25 3.828125 -12.15625 L 3.828125 -7.703125 C 3.828125 -7.640625 3.84375 -7.601562 3.875 -7.59375 C 3.914062 -7.582031 3.957031 -7.597656 4 -7.640625 L 7.484375 -12.28125 C 7.585938 -12.414062 7.71875 -12.484375 7.875 -12.484375 L 10.515625 -12.484375 C 10.691406 -12.484375 10.78125 -12.414062 10.78125 -12.28125 C 10.78125 -12.207031 10.757812 -12.144531 10.71875 -12.09375 L 6.96875 -7.09375 C 6.9375 -7.03125 6.929688 -6.972656 6.953125 -6.921875 L 10.890625 -0.390625 C 10.929688 -0.316406 10.953125 -0.257812 10.953125 -0.21875 C 10.953125 -0.0703125 10.859375 0 10.671875 0 L 8.0625 0 C 7.90625 0 7.78125 -0.0703125 7.6875 -0.21875 L 4.953125 -4.84375 C 4.929688 -4.882812 4.898438 -4.910156 4.859375 -4.921875 C 4.828125 -4.929688 4.800781 -4.910156 4.78125 -4.859375 L 3.890625 -3.65625 C 3.847656 -3.613281 3.828125 -3.5625 3.828125 -3.5 L 3.828125 -0.328125 C 3.828125 -0.222656 3.796875 -0.140625 3.734375 -0.078125 C 3.679688 -0.0234375 3.609375 0 3.515625 0 Z M 1.1875 0 "/></g></g></g><g fill="#302626" fill-opacity="1"><g transform="translate(54.070359, 173.043502)"><g/></g></g><g fill="#302626" fill-opacity="1"><g transform="translate(57.007719, 173.043502)"><g><path d="M 5.53125 0.203125 C 4.5625 0.203125 3.710938 0.0078125 2.984375 -0.375 C 2.253906 -0.769531 1.6875 -1.316406 1.28125 -2.015625 C 0.875 -2.710938 0.671875 -3.523438 0.671875 -4.453125 L 0.671875 -8.015625 C 0.671875 -8.921875 0.875 -9.722656 1.28125 -10.421875 C 1.6875 -11.117188 2.253906 -11.660156 2.984375 -12.046875 C 3.710938 -12.429688 4.5625 -12.625 5.53125 -12.625 C 6.488281 -12.625 7.335938 -12.429688 8.078125 -12.046875 C 8.816406 -11.660156 9.382812 -11.117188 9.78125 -10.421875 C 10.1875 -9.722656 10.390625 -8.921875 10.390625 -8.015625 L 10.390625 -4.453125 C 10.390625 -3.523438 10.1875 -2.710938 9.78125 -2.015625 C 9.382812 -1.316406 8.816406 -0.769531 8.078125 -0.375 C 7.335938 0.0078125 6.488281 0.203125 5.53125 0.203125 Z M 5.53125 -2.328125 C 6.09375 -2.328125 6.550781 -2.507812 6.90625 -2.875 C 7.257812 -3.25 7.4375 -3.75 7.4375 -4.375 L 7.4375 -8.0625 C 7.4375 -8.664062 7.257812 -9.15625 6.90625 -9.53125 C 6.550781 -9.90625 6.09375 -10.09375 5.53125 -10.09375 C 4.96875 -10.09375 4.507812 -9.90625 4.15625 -9.53125 C 3.8125 -9.15625 3.640625 -8.664062 3.640625 -8.0625 L 3.640625 -4.375 C 3.640625 -3.75 3.8125 -3.25 4.15625 -2.875 C 4.507812 -2.507812 4.96875 -2.328125 5.53125 -2.328125 Z M 5.53125 -2.328125 "/></g></g></g><g fill="#302626" fill-opacity="1"><g transform="translate(67.441459, 173.043502)"><g><path d="M 5.5625 0.140625 C 4.625 0.140625 3.796875 -0.0351562 3.078125 -0.390625 C 2.359375 -0.753906 1.796875 -1.269531 1.390625 -1.9375 C 0.992188 -2.601562 0.796875 -3.375 0.796875 -4.25 L 0.796875 -12.15625 C 0.796875 -12.25 0.828125 -12.328125 0.890625 -12.390625 C 0.953125 -12.453125 1.03125 -12.484375 1.125 -12.484375 L 3.4375 -12.484375 C 3.53125 -12.484375 3.609375 -12.453125 3.671875 -12.390625 C 3.734375 -12.328125 3.765625 -12.25 3.765625 -12.15625 L 3.765625 -4.25 C 3.765625 -3.6875 3.925781 -3.234375 4.25 -2.890625 C 4.582031 -2.554688 5.019531 -2.390625 5.5625 -2.390625 C 6.09375 -2.390625 6.519531 -2.554688 6.84375 -2.890625 C 7.175781 -3.234375 7.34375 -3.6875 7.34375 -4.25 L 7.34375 -12.15625 C 7.34375 -12.25 7.375 -12.328125 7.4375 -12.390625 C 7.5 -12.453125 7.578125 -12.484375 7.671875 -12.484375 L 9.984375 -12.484375 C 10.078125 -12.484375 10.15625 -12.453125 10.21875 -12.390625 C 10.28125 -12.328125 10.3125 -12.25 10.3125 -12.15625 L 10.3125 -4.25 C 10.3125 -3.375 10.113281 -2.601562 9.71875 -1.9375 C 9.320312 -1.269531 8.765625 -0.753906 8.046875 -0.390625 C 7.328125 -0.0351562 6.5 0.140625 5.5625 0.140625 Z M 5.5625 0.140625 "/></g></g></g><g fill="#302626" fill-opacity="1"><g transform="translate(77.910806, 173.043502)"><g><path d="M 9.78125 -12.484375 C 9.882812 -12.484375 9.960938 -12.453125 10.015625 -12.390625 C 10.078125 -12.328125 10.109375 -12.25 10.109375 -12.15625 L 10.109375 -10.25 C 10.109375 -10.15625 10.078125 -10.078125 10.015625 -10.015625 C 9.960938 -9.960938 9.882812 -9.9375 9.78125 -9.9375 L 6.8125 -9.9375 C 6.726562 -9.9375 6.6875 -9.894531 6.6875 -9.8125 L 6.6875 -0.328125 C 6.6875 -0.222656 6.65625 -0.140625 6.59375 -0.078125 C 6.53125 -0.0234375 6.453125 0 6.359375 0 L 4.046875 0 C 3.953125 0 3.875 -0.0234375 3.8125 -0.078125 C 3.75 -0.140625 3.71875 -0.222656 3.71875 -0.328125 L 3.71875 -9.8125 C 3.71875 -9.894531 3.675781 -9.9375 3.59375 -9.9375 L 0.734375 -9.9375 C 0.640625 -9.9375 0.5625 -9.960938 0.5 -10.015625 C 0.4375 -10.078125 0.40625 -10.15625 0.40625 -10.25 L 0.40625 -12.15625 C 0.40625 -12.25 0.4375 -12.328125 0.5 -12.390625 C 0.5625 -12.453125 0.640625 -12.484375 0.734375 -12.484375 Z M 9.78125 -12.484375 "/></g></g></g><g fill="#302626" fill-opacity="1"><g transform="translate(87.792549, 173.043502)"><g/></g></g><g fill="#302626" fill-opacity="1"><g transform="translate(90.729904, 173.043502)"><g><path d="M 5.53125 0.203125 C 4.5625 0.203125 3.710938 0.0078125 2.984375 -0.375 C 2.253906 -0.769531 1.6875 -1.316406 1.28125 -2.015625 C 0.875 -2.710938 0.671875 -3.523438 0.671875 -4.453125 L 0.671875 -8.015625 C 0.671875 -8.921875 0.875 -9.722656 1.28125 -10.421875 C 1.6875 -11.117188 2.253906 -11.660156 2.984375 -12.046875 C 3.710938 -12.429688 4.5625 -12.625 5.53125 -12.625 C 6.488281 -12.625 7.335938 -12.429688 8.078125 -12.046875 C 8.816406 -11.660156 9.382812 -11.117188 9.78125 -10.421875 C 10.1875 -9.722656 10.390625 -8.921875 10.390625 -8.015625 L 10.390625 -4.453125 C 10.390625 -3.523438 10.1875 -2.710938 9.78125 -2.015625 C 9.382812 -1.316406 8.816406 -0.769531 8.078125 -0.375 C 7.335938 0.0078125 6.488281 0.203125 5.53125 0.203125 Z M 5.53125 -2.328125 C 6.09375 -2.328125 6.550781 -2.507812 6.90625 -2.875 C 7.257812 -3.25 7.4375 -3.75 7.4375 -4.375 L 7.4375 -8.0625 C 7.4375 -8.664062 7.257812 -9.15625 6.90625 -9.53125 C 6.550781 -9.90625 6.09375 -10.09375 5.53125 -10.09375 C 4.96875 -10.09375 4.507812 -9.90625 4.15625 -9.53125 C 3.8125 -9.15625 3.640625 -8.664062 3.640625 -8.0625 L 3.640625 -4.375 C 3.640625 -3.75 3.8125 -3.25 4.15625 -2.875 C 4.507812 -2.507812 4.96875 -2.328125 5.53125 -2.328125 Z M 5.53125 -2.328125 "/></g></g></g><g fill="#302626" fill-opacity="1"><g transform="translate(101.163639, 173.043502)"><g><path d="M 9.71875 -10.265625 C 9.71875 -10.171875 9.6875 -10.09375 9.625 -10.03125 C 9.5625 -9.976562 9.484375 -9.953125 9.390625 -9.953125 L 3.953125 -9.953125 C 3.867188 -9.953125 3.828125 -9.910156 3.828125 -9.828125 L 3.828125 -7.703125 C 3.828125 -7.617188 3.867188 -7.578125 3.953125 -7.578125 L 7.40625 -7.578125 C 7.5 -7.578125 7.570312 -7.546875 7.625 -7.484375 C 7.6875 -7.429688 7.71875 -7.351562 7.71875 -7.25 L 7.71875 -5.390625 C 7.71875 -5.285156 7.6875 -5.203125 7.625 -5.140625 C 7.570312 -5.085938 7.5 -5.0625 7.40625 -5.0625 L 3.953125 -5.0625 C 3.867188 -5.0625 3.828125 -5.019531 3.828125 -4.9375 L 3.828125 -0.328125 C 3.828125 -0.222656 3.796875 -0.140625 3.734375 -0.078125 C 3.679688 -0.0234375 3.609375 0 3.515625 0 L 1.1875 0 C 1.09375 0 1.015625 -0.0234375 0.953125 -0.078125 C 0.898438 -0.140625 0.875 -0.222656 0.875 -0.328125 L 0.875 -12.15625 C 0.875 -12.25 0.898438 -12.328125 0.953125 -12.390625 C 1.015625 -12.453125 1.09375 -12.484375 1.1875 -12.484375 L 9.390625 -12.484375 C 9.484375 -12.484375 9.5625 -12.453125 9.625 -12.390625 C 9.6875 -12.328125 9.71875 -12.25 9.71875 -12.15625 Z M 9.71875 -10.265625 "/></g></g></g><g fill="#302626" fill-opacity="1"><g transform="translate(110.457783, 173.043502)"><g/></g></g><g fill="#302626" fill-opacity="1"><g transform="translate(113.395138, 173.043502)"><g><path d="M 9.78125 -12.484375 C 9.882812 -12.484375 9.960938 -12.453125 10.015625 -12.390625 C 10.078125 -12.328125 10.109375 -12.25 10.109375 -12.15625 L 10.109375 -10.25 C 10.109375 -10.15625 10.078125 -10.078125 10.015625 -10.015625 C 9.960938 -9.960938 9.882812 -9.9375 9.78125 -9.9375 L 6.8125 -9.9375 C 6.726562 -9.9375 6.6875 -9.894531 6.6875 -9.8125 L 6.6875 -0.328125 C 6.6875 -0.222656 6.65625 -0.140625 6.59375 -0.078125 C 6.53125 -0.0234375 6.453125 0 6.359375 0 L 4.046875 0 C 3.953125 0 3.875 -0.0234375 3.8125 -0.078125 C 3.75 -0.140625 3.71875 -0.222656 3.71875 -0.328125 L 3.71875 -9.8125 C 3.71875 -9.894531 3.675781 -9.9375 3.59375 -9.9375 L 0.734375 -9.9375 C 0.640625 -9.9375 0.5625 -9.960938 0.5 -10.015625 C 0.4375 -10.078125 0.40625 -10.15625 0.40625 -10.25 L 0.40625 -12.15625 C 0.40625 -12.25 0.4375 -12.328125 0.5 -12.390625 C 0.5625 -12.453125 0.640625 -12.484375 0.734375 -12.484375 Z M 9.78125 -12.484375 "/></g></g></g><g fill="#302626" fill-opacity="1"><g transform="translate(123.276881, 173.043502)"><g><path d="M 7.34375 -12.15625 C 7.34375 -12.25 7.375 -12.328125 7.4375 -12.390625 C 7.5 -12.453125 7.578125 -12.484375 7.671875 -12.484375 L 9.984375 -12.484375 C 10.078125 -12.484375 10.15625 -12.453125 10.21875 -12.390625 C 10.28125 -12.328125 10.3125 -12.25 10.3125 -12.15625 L 10.3125 -0.328125 C 10.3125 -0.222656 10.28125 -0.140625 10.21875 -0.078125 C 10.15625 -0.0234375 10.078125 0 9.984375 0 L 7.671875 0 C 7.578125 0 7.5 -0.0234375 7.4375 -0.078125 C 7.375 -0.140625 7.34375 -0.222656 7.34375 -0.328125 L 7.34375 -4.921875 C 7.34375 -5.003906 7.300781 -5.046875 7.21875 -5.046875 L 3.953125 -5.046875 C 3.867188 -5.046875 3.828125 -5.003906 3.828125 -4.921875 L 3.828125 -0.328125 C 3.828125 -0.222656 3.796875 -0.140625 3.734375 -0.078125 C 3.679688 -0.0234375 3.609375 0 3.515625 0 L 1.1875 0 C 1.09375 0 1.015625 -0.0234375 0.953125 -0.078125 C 0.898438 -0.140625 0.875 -0.222656 0.875 -0.328125 L 0.875 -12.15625 C 0.875 -12.25 0.898438 -12.328125 0.953125 -12.390625 C 1.015625 -12.453125 1.09375 -12.484375 1.1875 -12.484375 L 3.515625 -12.484375 C 3.609375 -12.484375 3.679688 -12.453125 3.734375 -12.390625 C 3.796875 -12.328125 3.828125 -12.25 3.828125 -12.15625 L 3.828125 -7.703125 C 3.828125 -7.617188 3.867188 -7.578125 3.953125 -7.578125 L 7.21875 -7.578125 C 7.300781 -7.578125 7.34375 -7.617188 7.34375 -7.703125 Z M 7.34375 -12.15625 "/></g></g></g><g fill="#302626" fill-opacity="1"><g transform="translate(133.674989, 173.043502)"><g><path d="M 9.734375 -10.265625 C 9.734375 -10.171875 9.703125 -10.09375 9.640625 -10.03125 C 9.585938 -9.976562 9.507812 -9.953125 9.40625 -9.953125 L 3.953125 -9.953125 C 3.867188 -9.953125 3.828125 -9.910156 3.828125 -9.828125 L 3.828125 -7.703125 C 3.828125 -7.617188 3.867188 -7.578125 3.953125 -7.578125 L 7.40625 -7.578125 C 7.5 -7.578125 7.570312 -7.546875 7.625 -7.484375 C 7.6875 -7.429688 7.71875 -7.351562 7.71875 -7.25 L 7.71875 -5.390625 C 7.71875 -5.285156 7.6875 -5.203125 7.625 -5.140625 C 7.570312 -5.085938 7.5 -5.0625 7.40625 -5.0625 L 3.953125 -5.0625 C 3.867188 -5.0625 3.828125 -5.019531 3.828125 -4.9375 L 3.828125 -2.65625 C 3.828125 -2.570312 3.867188 -2.53125 3.953125 -2.53125 L 9.40625 -2.53125 C 9.507812 -2.53125 9.585938 -2.5 9.640625 -2.4375 C 9.703125 -2.382812 9.734375 -2.304688 9.734375 -2.203125 L 9.734375 -0.328125 C 9.734375 -0.222656 9.703125 -0.140625 9.640625 -0.078125 C 9.585938 -0.0234375 9.507812 0 9.40625 0 L 1.1875 0 C 1.09375 0 1.015625 -0.0234375 0.953125 -0.078125 C 0.898438 -0.140625 0.875 -0.222656 0.875 -0.328125 L 0.875 -12.15625 C 0.875 -12.25 0.898438 -12.328125 0.953125 -12.390625 C 1.015625 -12.453125 1.09375 -12.484375 1.1875 -12.484375 L 9.40625 -12.484375 C 9.507812 -12.484375 9.585938 -12.453125 9.640625 -12.390625 C 9.703125 -12.328125 9.734375 -12.25 9.734375 -12.15625 Z M 9.734375 -10.265625 "/></g></g></g><g fill="#302626" fill-opacity="1"><g transform="translate(56.999092, 186.639534)"><g><path d="M 8.703125 -6.53125 C 8.648438 -6.5 8.625 -6.460938 8.625 -6.421875 C 8.625 -6.390625 8.648438 -6.363281 8.703125 -6.34375 C 9.753906 -5.789062 10.28125 -4.851562 10.28125 -3.53125 C 10.28125 -2.34375 9.867188 -1.457031 9.046875 -0.875 C 8.234375 -0.289062 7.160156 0 5.828125 0 L 1.1875 0 C 1.09375 0 1.015625 -0.0234375 0.953125 -0.078125 C 0.898438 -0.140625 0.875 -0.222656 0.875 -0.328125 L 0.875 -12.15625 C 0.875 -12.25 0.898438 -12.328125 0.953125 -12.390625 C 1.015625 -12.453125 1.09375 -12.484375 1.1875 -12.484375 L 5.6875 -12.484375 C 7.132812 -12.484375 8.226562 -12.207031 8.96875 -11.65625 C 9.71875 -11.113281 10.09375 -10.226562 10.09375 -9 C 10.09375 -7.832031 9.628906 -7.007812 8.703125 -6.53125 Z M 3.953125 -9.953125 C 3.867188 -9.953125 3.828125 -9.910156 3.828125 -9.828125 L 3.828125 -7.640625 C 3.828125 -7.566406 3.867188 -7.53125 3.953125 -7.53125 L 5.6875 -7.53125 C 6.175781 -7.53125 6.550781 -7.628906 6.8125 -7.828125 C 7.070312 -8.035156 7.203125 -8.332031 7.203125 -8.71875 C 7.203125 -9.113281 7.070312 -9.414062 6.8125 -9.625 C 6.550781 -9.84375 6.175781 -9.953125 5.6875 -9.953125 Z M 5.828125 -2.546875 C 6.304688 -2.546875 6.675781 -2.65625 6.9375 -2.875 C 7.195312 -3.09375 7.328125 -3.410156 7.328125 -3.828125 C 7.328125 -4.234375 7.195312 -4.546875 6.9375 -4.765625 C 6.6875 -4.984375 6.316406 -5.09375 5.828125 -5.09375 L 3.953125 -5.09375 C 3.867188 -5.09375 3.828125 -5.050781 3.828125 -4.96875 L 3.828125 -2.671875 C 3.828125 -2.585938 3.867188 -2.546875 3.953125 -2.546875 Z M 5.828125 -2.546875 "/></g></g></g><g fill="#302626" fill-opacity="1"><g transform="translate(67.361597, 186.639534)"><g><path d="M 5.53125 0.203125 C 4.5625 0.203125 3.710938 0.0078125 2.984375 -0.375 C 2.253906 -0.769531 1.6875 -1.316406 1.28125 -2.015625 C 0.875 -2.710938 0.671875 -3.523438 0.671875 -4.453125 L 0.671875 -8.015625 C 0.671875 -8.921875 0.875 -9.722656 1.28125 -10.421875 C 1.6875 -11.117188 2.253906 -11.660156 2.984375 -12.046875 C 3.710938 -12.429688 4.5625 -12.625 5.53125 -12.625 C 6.488281 -12.625 7.335938 -12.429688 8.078125 -12.046875 C 8.816406 -11.660156 9.382812 -11.117188 9.78125 -10.421875 C 10.1875 -9.722656 10.390625 -8.921875 10.390625 -8.015625 L 10.390625 -4.453125 C 10.390625 -3.523438 10.1875 -2.710938 9.78125 -2.015625 C 9.382812 -1.316406 8.816406 -0.769531 8.078125 -0.375 C 7.335938 0.0078125 6.488281 0.203125 5.53125 0.203125 Z M 5.53125 -2.328125 C 6.09375 -2.328125 6.550781 -2.507812 6.90625 -2.875 C 7.257812 -3.25 7.4375 -3.75 7.4375 -4.375 L 7.4375 -8.0625 C 7.4375 -8.664062 7.257812 -9.15625 6.90625 -9.53125 C 6.550781 -9.90625 6.09375 -10.09375 5.53125 -10.09375 C 4.96875 -10.09375 4.507812 -9.90625 4.15625 -9.53125 C 3.8125 -9.15625 3.640625 -8.664062 3.640625 -8.0625 L 3.640625 -4.375 C 3.640625 -3.75 3.8125 -3.25 4.15625 -2.875 C 4.507812 -2.507812 4.96875 -2.328125 5.53125 -2.328125 Z M 5.53125 -2.328125 "/></g></g></g><g fill="#302626" fill-opacity="1"><g transform="translate(77.795337, 186.639534)"><g><path d="M 0.8125 0 C 0.726562 0 0.660156 -0.0195312 0.609375 -0.0625 C 0.554688 -0.101562 0.53125 -0.15625 0.53125 -0.21875 C 0.53125 -0.257812 0.550781 -0.316406 0.59375 -0.390625 L 3.875 -6.15625 C 3.90625 -6.207031 3.90625 -6.265625 3.875 -6.328125 L 0.59375 -12.09375 C 0.550781 -12.15625 0.53125 -12.210938 0.53125 -12.265625 C 0.53125 -12.328125 0.554688 -12.378906 0.609375 -12.421875 C 0.660156 -12.460938 0.726562 -12.484375 0.8125 -12.484375 L 3.359375 -12.484375 C 3.503906 -12.484375 3.625 -12.40625 3.71875 -12.25 L 5.671875 -8.640625 C 5.691406 -8.597656 5.71875 -8.578125 5.75 -8.578125 C 5.789062 -8.578125 5.820312 -8.597656 5.84375 -8.640625 L 7.8125 -12.25 C 7.90625 -12.40625 8.03125 -12.484375 8.1875 -12.484375 L 10.703125 -12.484375 C 10.785156 -12.484375 10.851562 -12.460938 10.90625 -12.421875 C 10.957031 -12.378906 10.984375 -12.328125 10.984375 -12.265625 C 10.984375 -12.210938 10.960938 -12.15625 10.921875 -12.09375 L 7.671875 -6.328125 C 7.640625 -6.265625 7.640625 -6.207031 7.671875 -6.15625 L 10.921875 -0.390625 C 10.960938 -0.316406 10.984375 -0.257812 10.984375 -0.21875 C 10.984375 -0.15625 10.957031 -0.101562 10.90625 -0.0625 C 10.851562 -0.0195312 10.785156 0 10.703125 0 L 8.203125 0 C 8.046875 0 7.921875 -0.078125 7.828125 -0.234375 L 5.84375 -3.8125 C 5.820312 -3.863281 5.789062 -3.890625 5.75 -3.890625 C 5.71875 -3.890625 5.691406 -3.863281 5.671875 -3.8125 L 3.703125 -0.234375 C 3.609375 -0.078125 3.484375 0 3.328125 0 Z M 0.8125 0 "/></g></g></g><g fill="#302626" fill-opacity="1"><g transform="translate(88.674227, 186.639534)"><g><path d="M 2.296875 -4.34375 C 2.203125 -4.34375 2.125 -4.375 2.0625 -4.4375 C 2 -4.5 1.96875 -4.578125 1.96875 -4.671875 L 1.6875 -12.15625 C 1.6875 -12.375 1.789062 -12.484375 2 -12.484375 L 4.3125 -12.484375 C 4.519531 -12.484375 4.625 -12.375 4.625 -12.15625 L 4.34375 -4.671875 C 4.34375 -4.578125 4.3125 -4.5 4.25 -4.4375 C 4.1875 -4.375 4.109375 -4.34375 4.015625 -4.34375 Z M 3.125 -0.015625 C 2.59375 -0.015625 2.15625 -0.179688 1.8125 -0.515625 C 1.46875 -0.847656 1.296875 -1.253906 1.296875 -1.734375 C 1.296875 -2.191406 1.484375 -2.585938 1.859375 -2.921875 C 2.234375 -3.265625 2.65625 -3.4375 3.125 -3.4375 C 3.59375 -3.4375 4.015625 -3.265625 4.390625 -2.921875 C 4.765625 -2.585938 4.953125 -2.191406 4.953125 -1.734375 C 4.953125 -1.253906 4.773438 -0.847656 4.421875 -0.515625 C 4.078125 -0.179688 3.644531 -0.015625 3.125 -0.015625 Z M 3.125 -0.015625 "/></g></g></g><path stroke-linecap="butt" transform="matrix(0.749753, 0.00161252, -0.00161305, 0.749998, 75.266301, 31.236916)" fill="none" stroke-linejoin="miter" d="M 0.00125351 1.00182 L 383.127175 1.001006 " stroke="#302626" stroke-width="2" stroke-opacity="1" stroke-miterlimit="4"/><path stroke-linecap="butt" transform="matrix(0.000000000000000046, 0.750564, -0.75, 0.000000000000000046, 364.140273, 31.992185)" fill="none" stroke-linejoin="miter" d="M 0.00000287893 0.999531 L 415.703166 0.999531 " stroke="#302626" stroke-width="2" stroke-opacity="1" stroke-miterlimit="4"/><path stroke-linecap="butt" transform="matrix(0.750122, 0, 0, 0.75, 75.263085, 342.263063)" fill="none" stroke-linejoin="miter" d="M -0.00182158 0.998208 L 383.951315 0.998208 " stroke="#302626" stroke-width="2" stroke-opacity="1" stroke-miterlimit="4"/><path stroke-linecap="butt" transform="matrix(0.000000000000000046, 0.750114, -0.75, 0.000000000000000046, 76.75954, 190.031354)" fill="none" stroke-linejoin="miter" d="M -0.000138541 1.002304 L 204.98425 1.002304 " stroke="#302626" stroke-width="2" stroke-opacity="1" stroke-miterlimit="4"/><g fill="#302626" fill-opacity="0.502"><g transform="translate(86.138065, 282.422036)"><g><path d="M 17.03125 -35.125 C 21.101562 -35.125 24.378906 -34.390625 26.859375 -32.921875 C 29.335938 -31.453125 30.578125 -29.15625 30.578125 -26.03125 C 30.578125 -23.375 29.957031 -21.171875 28.71875 -19.421875 C 27.476562 -17.679688 25.570312 -16.363281 23 -15.46875 C 23.582031 -15.101562 23.984375 -14.816406 24.203125 -14.609375 C 24.878906 -13.960938 25.53125 -13.15625 26.15625 -12.1875 C 26.78125 -11.226562 27.488281 -10.046875 28.28125 -8.640625 C 29.175781 -7.140625 29.859375 -6.035156 30.328125 -5.328125 C 30.804688 -4.617188 31.273438 -4.160156 31.734375 -3.953125 L 34.625 -3.125 L 34.625 0 L 25.171875 0 C 24.492188 0 23.847656 -0.554688 23.234375 -1.671875 C 22.617188 -2.796875 21.882812 -4.472656 21.03125 -6.703125 C 19.988281 -9.304688 19.097656 -11.25 18.359375 -12.53125 C 17.628906 -13.820312 16.820312 -14.46875 15.9375 -14.46875 L 13.21875 -14.421875 L 13.21875 -4 L 17.5 -3.125 L 17.5 0 L 1.375 0 L 1.375 -3.125 L 5.28125 -4.09375 L 5.28125 -30.40625 L 1.796875 -30.953125 L 1.796875 -34.8125 L 6.84375 -34.8125 C 8.25 -34.8125 10.207031 -34.875 12.71875 -35 C 14.3125 -35.082031 15.75 -35.125 17.03125 -35.125 Z M 15.9375 -31.453125 C 15.351562 -31.453125 14.800781 -31.4375 14.28125 -31.40625 C 13.757812 -31.375 13.40625 -31.300781 13.21875 -31.1875 L 13.21875 -18.140625 C 14.144531 -18.015625 14.910156 -17.953125 15.515625 -17.953125 C 18.085938 -17.953125 19.960938 -18.507812 21.140625 -19.625 C 22.328125 -20.75 22.921875 -22.613281 22.921875 -25.21875 C 22.921875 -27.144531 22.289062 -28.664062 21.03125 -29.78125 C 19.78125 -30.894531 18.082031 -31.453125 15.9375 -31.453125 Z M 15.9375 -31.453125 "/></g></g></g><g fill="#302626" fill-opacity="0.502"><g transform="translate(120.934993, 282.422036)"><g><path d="M 15.390625 -25.8125 C 18.785156 -25.8125 21.378906 -24.957031 23.171875 -23.25 C 24.960938 -21.550781 25.859375 -19.082031 25.859375 -15.84375 C 25.859375 -14.5 25.75 -13.179688 25.53125 -11.890625 L 9.921875 -11.890625 C 10.128906 -9.234375 10.816406 -7.226562 11.984375 -5.875 C 13.148438 -4.53125 14.832031 -3.859375 17.03125 -3.859375 C 19.476562 -3.859375 21.851562 -4.363281 24.15625 -5.375 L 25.34375 -2.578125 C 24.15625 -1.566406 22.554688 -0.773438 20.546875 -0.203125 C 18.546875 0.359375 16.625 0.640625 14.78125 0.640625 C 10.59375 0.640625 7.359375 -0.453125 5.078125 -2.640625 C 2.796875 -4.828125 1.65625 -7.910156 1.65625 -11.890625 C 1.65625 -14.585938 2.234375 -16.988281 3.390625 -19.09375 C 4.554688 -21.207031 6.179688 -22.851562 8.265625 -24.03125 C 10.347656 -25.21875 12.722656 -25.8125 15.390625 -25.8125 Z M 14.6875 -22.6875 C 11.90625 -22.6875 10.316406 -20.28125 9.921875 -15.46875 L 18.140625 -15.46875 C 18.265625 -16.570312 18.328125 -17.507812 18.328125 -18.28125 C 18.328125 -21.21875 17.113281 -22.6875 14.6875 -22.6875 Z M 14.6875 -22.6875 "/></g></g></g><g fill="#302626" fill-opacity="0.502"><g transform="translate(149.305087, 282.422036)"><g><path d="M 5.921875 -7.390625 L 7.34375 -4.90625 C 8.226562 -4.019531 8.976562 -3.394531 9.59375 -3.03125 C 10.207031 -2.664062 11.003906 -2.484375 11.984375 -2.484375 C 13.179688 -2.484375 14.09375 -2.734375 14.71875 -3.234375 C 15.34375 -3.742188 15.65625 -4.425781 15.65625 -5.28125 C 15.625 -6.039062 15.125 -6.726562 14.15625 -7.34375 C 13.195312 -7.957031 11.753906 -8.691406 9.828125 -9.546875 C 7.191406 -10.773438 5.203125 -12.078125 3.859375 -13.453125 C 2.515625 -14.828125 1.84375 -16.539062 1.84375 -18.59375 C 1.863281 -20.15625 2.410156 -21.476562 3.484375 -22.5625 C 4.554688 -23.65625 5.90625 -24.46875 7.53125 -25 C 9.15625 -25.539062 10.835938 -25.8125 12.578125 -25.8125 C 13.960938 -25.875 15.554688 -25.773438 17.359375 -25.515625 C 19.160156 -25.253906 20.535156 -24.921875 21.484375 -24.515625 L 21.484375 -18.375 L 17.546875 -18.375 L 16.296875 -21.171875 C 15.867188 -21.691406 15.363281 -22.117188 14.78125 -22.453125 C 14.207031 -22.785156 13.613281 -22.953125 13 -22.953125 C 12.050781 -22.953125 11.257812 -22.757812 10.625 -22.375 C 10 -22 9.6875 -21.503906 9.6875 -20.890625 C 9.6875 -20.097656 9.921875 -19.410156 10.390625 -18.828125 C 10.867188 -18.242188 11.519531 -17.710938 12.34375 -17.234375 C 13.175781 -16.765625 14.390625 -16.164062 15.984375 -15.4375 C 18.398438 -14.332031 20.210938 -13.210938 21.421875 -12.078125 C 22.628906 -10.941406 23.234375 -9.425781 23.234375 -7.53125 C 23.234375 -4.75 22.113281 -2.707031 19.875 -1.40625 C 17.644531 -0.101562 14.769531 0.546875 11.25 0.546875 C 9.71875 0.546875 8.101562 0.363281 6.40625 0 C 4.707031 -0.363281 3.320312 -0.851562 2.25 -1.46875 L 2.25 -7.390625 Z M 5.921875 -7.390625 "/></g></g></g><g fill="#302626" fill-opacity="0.502"><g transform="translate(174.461776, 282.422036)"><g><path d="M 11.4375 -25.078125 L 19.109375 -25.078125 L 19.109375 -21.078125 L 11.75 -21.078125 L 11.75 -12.4375 C 11.75 -10.414062 11.796875 -8.851562 11.890625 -7.75 C 11.984375 -6.65625 12.226562 -5.753906 12.625 -5.046875 C 13.019531 -4.347656 13.648438 -4 14.515625 -4 C 15.066406 -4 15.757812 -4.082031 16.59375 -4.25 C 17.4375 -4.414062 18.046875 -4.59375 18.421875 -4.78125 L 19.609375 -2.25 C 18.691406 -1.332031 17.382812 -0.632812 15.6875 -0.15625 C 13.988281 0.3125 12.265625 0.546875 10.515625 0.546875 C 8.828125 0.546875 7.515625 0.257812 6.578125 -0.3125 C 5.648438 -0.894531 4.992188 -1.785156 4.609375 -2.984375 C 4.234375 -4.179688 4.046875 -5.757812 4.046875 -7.71875 L 4.046875 -21.078125 L 0.640625 -21.078125 L 0.640625 -23.609375 C 2.597656 -23.910156 4.035156 -24.519531 4.953125 -25.4375 C 5.503906 -25.988281 5.972656 -26.691406 6.359375 -27.546875 C 6.742188 -28.410156 7.179688 -29.59375 7.671875 -31.09375 L 11.4375 -31.09375 Z M 11.4375 -25.078125 "/></g></g></g><g fill="#302626" fill-opacity="0.502"><g transform="translate(195.762363, 282.422036)"><g><path d="M 14.140625 -25.8125 C 17.628906 -25.8125 20.21875 -25.082031 21.90625 -23.625 C 23.59375 -22.175781 24.4375 -19.828125 24.4375 -16.578125 L 24.4375 -3.03125 L 27.375 -3.03125 L 27.375 -0.640625 C 26.757812 -0.210938 25.90625 0.101562 24.8125 0.3125 C 23.726562 0.53125 22.648438 0.640625 21.578125 0.640625 C 20.453125 0.640625 19.519531 0.421875 18.78125 -0.015625 C 18.050781 -0.460938 17.640625 -1.097656 17.546875 -1.921875 C 15.734375 -0.210938 13.554688 0.640625 11.015625 0.640625 C 8.203125 0.640625 5.921875 0.00390625 4.171875 -1.265625 C 2.429688 -2.535156 1.5625 -4.300781 1.5625 -6.5625 C 1.5625 -8.582031 2.265625 -10.28125 3.671875 -11.65625 C 5.078125 -13.039062 6.921875 -14.066406 9.203125 -14.734375 C 11.484375 -15.410156 13.910156 -15.75 16.484375 -15.75 L 16.484375 -16.03125 C 16.453125 -18.050781 16.09375 -19.472656 15.40625 -20.296875 C 14.71875 -21.117188 13.484375 -21.53125 11.703125 -21.53125 C 10.421875 -21.53125 9.066406 -21.347656 7.640625 -20.984375 C 6.222656 -20.617188 5.113281 -20.160156 4.3125 -19.609375 L 2.796875 -23.046875 C 3.898438 -23.941406 5.546875 -24.625 7.734375 -25.09375 C 9.921875 -25.570312 12.054688 -25.8125 14.140625 -25.8125 Z M 16.484375 -12.3125 C 14.492188 -12.3125 12.847656 -11.910156 11.546875 -11.109375 C 10.242188 -10.316406 9.59375 -9.125 9.59375 -7.53125 C 9.59375 -6.269531 9.90625 -5.3125 10.53125 -4.65625 C 11.164062 -4 12.09375 -3.671875 13.3125 -3.671875 C 14.664062 -3.671875 15.722656 -3.992188 16.484375 -4.640625 Z M 16.484375 -12.3125 "/></g></g></g><g fill="#302626" fill-opacity="0.502"><g transform="translate(223.857024, 282.422036)"><g><path d="M 1.1875 -21.03125 L 1.1875 -23.78125 L 9.734375 -25.8125 L 10.921875 -25.4375 L 10.921875 -9.828125 C 10.921875 -7.742188 11.160156 -6.210938 11.640625 -5.234375 C 12.117188 -4.253906 13.03125 -3.765625 14.375 -3.765625 C 15.101562 -3.765625 15.847656 -3.863281 16.609375 -4.0625 C 17.378906 -4.257812 17.96875 -4.539062 18.375 -4.90625 L 18.375 -19.109375 L 15.515625 -20.671875 L 15.515625 -23.78125 L 24.890625 -25.8125 L 26.125 -25.4375 L 26.125 -3.03125 L 28.703125 -3.03125 L 28.703125 -0.640625 C 28.179688 -0.273438 27.226562 0.0234375 25.84375 0.265625 C 24.46875 0.515625 23.304688 0.640625 22.359375 0.640625 C 21.410156 0.640625 20.640625 0.429688 20.046875 0.015625 C 19.453125 -0.390625 19.15625 -1.007812 19.15625 -1.84375 L 19.15625 -2.703125 C 18.414062 -1.816406 17.296875 -1.035156 15.796875 -0.359375 C 14.296875 0.304688 12.945312 0.640625 11.75 0.640625 C 8.601562 0.640625 6.410156 -0.109375 5.171875 -1.609375 C 3.929688 -3.109375 3.3125 -5.492188 3.3125 -8.765625 L 3.3125 -19.46875 Z M 1.1875 -21.03125 "/></g></g></g><g fill="#302626" fill-opacity="0.502"><g transform="translate(254.292889, 282.422036)"><g><path d="M 4.953125 -3.625 L 4.953125 -18.375 L 1.921875 -20.53125 L 1.921875 -23.328125 L 10.234375 -25.8125 L 11.84375 -25.390625 L 11.84375 -21.03125 C 12.0625 -21.851562 12.53125 -22.628906 13.25 -23.359375 C 13.96875 -24.097656 14.785156 -24.691406 15.703125 -25.140625 C 16.617188 -25.585938 17.476562 -25.8125 18.28125 -25.8125 C 19.53125 -25.8125 20.335938 -25.71875 20.703125 -25.53125 L 20.703125 -18.453125 C 20.367188 -18.796875 19.796875 -19.054688 18.984375 -19.234375 C 18.171875 -19.421875 17.476562 -19.515625 16.90625 -19.515625 C 16.039062 -19.515625 15.234375 -19.429688 14.484375 -19.265625 C 13.734375 -19.097656 13.207031 -18.90625 12.90625 -18.6875 L 12.90625 -3.8125 L 18.140625 -3.03125 L 18.140625 0 L 2.203125 0 L 2.203125 -3.03125 Z M 4.953125 -3.625 "/></g></g></g><g fill="#302626" fill-opacity="0.502"><g transform="translate(276.557501, 282.422036)"><g><path d="M 14.140625 -25.8125 C 17.628906 -25.8125 20.21875 -25.082031 21.90625 -23.625 C 23.59375 -22.175781 24.4375 -19.828125 24.4375 -16.578125 L 24.4375 -3.03125 L 27.375 -3.03125 L 27.375 -0.640625 C 26.757812 -0.210938 25.90625 0.101562 24.8125 0.3125 C 23.726562 0.53125 22.648438 0.640625 21.578125 0.640625 C 20.453125 0.640625 19.519531 0.421875 18.78125 -0.015625 C 18.050781 -0.460938 17.640625 -1.097656 17.546875 -1.921875 C 15.734375 -0.210938 13.554688 0.640625 11.015625 0.640625 C 8.203125 0.640625 5.921875 0.00390625 4.171875 -1.265625 C 2.429688 -2.535156 1.5625 -4.300781 1.5625 -6.5625 C 1.5625 -8.582031 2.265625 -10.28125 3.671875 -11.65625 C 5.078125 -13.039062 6.921875 -14.066406 9.203125 -14.734375 C 11.484375 -15.410156 13.910156 -15.75 16.484375 -15.75 L 16.484375 -16.03125 C 16.453125 -18.050781 16.09375 -19.472656 15.40625 -20.296875 C 14.71875 -21.117188 13.484375 -21.53125 11.703125 -21.53125 C 10.421875 -21.53125 9.066406 -21.347656 7.640625 -20.984375 C 6.222656 -20.617188 5.113281 -20.160156 4.3125 -19.609375 L 2.796875 -23.046875 C 3.898438 -23.941406 5.546875 -24.625 7.734375 -25.09375 C 9.921875 -25.570312 12.054688 -25.8125 14.140625 -25.8125 Z M 16.484375 -12.3125 C 14.492188 -12.3125 12.847656 -11.910156 11.546875 -11.109375 C 10.242188 -10.316406 9.59375 -9.125 9.59375 -7.53125 C 9.59375 -6.269531 9.90625 -5.3125 10.53125 -4.65625 C 11.164062 -4 12.09375 -3.671875 13.3125 -3.671875 C 14.664062 -3.671875 15.722656 -3.992188 16.484375 -4.640625 Z M 16.484375 -12.3125 "/></g></g></g><g fill="#302626" fill-opacity="0.502"><g transform="translate(304.652162, 282.422036)"><g><path d="M 4.953125 -3.625 L 4.953125 -18.375 L 1.921875 -20.53125 L 1.921875 -23.328125 L 10.234375 -25.8125 L 11.9375 -25.390625 L 11.9375 -22.046875 C 13.101562 -23.203125 14.550781 -24.117188 16.28125 -24.796875 C 18.007812 -25.472656 19.6875 -25.8125 21.3125 -25.8125 C 24.03125 -25.8125 25.941406 -24.96875 27.046875 -23.28125 C 28.148438 -21.59375 28.703125 -19.066406 28.703125 -15.703125 L 28.703125 -3.625 L 31.828125 -3.03125 L 31.828125 0 L 17.546875 0 L 17.546875 -3.03125 L 20.75 -3.671875 L 20.75 -14.6875 C 20.75 -16.34375 20.640625 -17.578125 20.421875 -18.390625 C 20.210938 -19.203125 19.796875 -19.773438 19.171875 -20.109375 C 18.546875 -20.453125 17.585938 -20.625 16.296875 -20.625 C 15.898438 -20.625 15.300781 -20.507812 14.5 -20.28125 C 13.707031 -20.050781 13.175781 -19.828125 12.90625 -19.609375 L 12.90625 -3.671875 L 15.65625 -3.03125 L 15.65625 0 L 2.15625 0 L 2.15625 -3.03125 Z M 4.953125 -3.625 "/></g></g></g><g fill="#302626" fill-opacity="0.502"><g transform="translate(338.117824, 282.422036)"><g><path d="M 11.4375 -25.078125 L 19.109375 -25.078125 L 19.109375 -21.078125 L 11.75 -21.078125 L 11.75 -12.4375 C 11.75 -10.414062 11.796875 -8.851562 11.890625 -7.75 C 11.984375 -6.65625 12.226562 -5.753906 12.625 -5.046875 C 13.019531 -4.347656 13.648438 -4 14.515625 -4 C 15.066406 -4 15.757812 -4.082031 16.59375 -4.25 C 17.4375 -4.414062 18.046875 -4.59375 18.421875 -4.78125 L 19.609375 -2.25 C 18.691406 -1.332031 17.382812 -0.632812 15.6875 -0.15625 C 13.988281 0.3125 12.265625 0.546875 10.515625 0.546875 C 8.828125 0.546875 7.515625 0.257812 6.578125 -0.3125 C 5.648438 -0.894531 4.992188 -1.785156 4.609375 -2.984375 C 4.234375 -4.179688 4.046875 -5.757812 4.046875 -7.71875 L 4.046875 -21.078125 L 0.640625 -21.078125 L 0.640625 -23.609375 C 2.597656 -23.910156 4.035156 -24.519531 4.953125 -25.4375 C 5.503906 -25.988281 5.972656 -26.691406 6.359375 -27.546875 C 6.742188 -28.410156 7.179688 -29.59375 7.671875 -31.09375 L 11.4375 -31.09375 Z M 11.4375 -25.078125 "/></g></g></g><g fill="#fff9f2" fill-opacity="1"><g transform="translate(83.265719, 280.627194)"><g><path d="M 17.03125 -35.125 C 21.101562 -35.125 24.378906 -34.390625 26.859375 -32.921875 C 29.335938 -31.453125 30.578125 -29.15625 30.578125 -26.03125 C 30.578125 -23.375 29.957031 -21.171875 28.71875 -19.421875 C 27.476562 -17.679688 25.570312 -16.363281 23 -15.46875 C 23.582031 -15.101562 23.984375 -14.816406 24.203125 -14.609375 C 24.878906 -13.960938 25.53125 -13.15625 26.15625 -12.1875 C 26.78125 -11.226562 27.488281 -10.046875 28.28125 -8.640625 C 29.175781 -7.140625 29.859375 -6.035156 30.328125 -5.328125 C 30.804688 -4.617188 31.273438 -4.160156 31.734375 -3.953125 L 34.625 -3.125 L 34.625 0 L 25.171875 0 C 24.492188 0 23.847656 -0.554688 23.234375 -1.671875 C 22.617188 -2.796875 21.882812 -4.472656 21.03125 -6.703125 C 19.988281 -9.304688 19.097656 -11.25 18.359375 -12.53125 C 17.628906 -13.820312 16.820312 -14.46875 15.9375 -14.46875 L 13.21875 -14.421875 L 13.21875 -4 L 17.5 -3.125 L 17.5 0 L 1.375 0 L 1.375 -3.125 L 5.28125 -4.09375 L 5.28125 -30.40625 L 1.796875 -30.953125 L 1.796875 -34.8125 L 6.84375 -34.8125 C 8.25 -34.8125 10.207031 -34.875 12.71875 -35 C 14.3125 -35.082031 15.75 -35.125 17.03125 -35.125 Z M 15.9375 -31.453125 C 15.351562 -31.453125 14.800781 -31.4375 14.28125 -31.40625 C 13.757812 -31.375 13.40625 -31.300781 13.21875 -31.1875 L 13.21875 -18.140625 C 14.144531 -18.015625 14.910156 -17.953125 15.515625 -17.953125 C 18.085938 -17.953125 19.960938 -18.507812 21.140625 -19.625 C 22.328125 -20.75 22.921875 -22.613281 22.921875 -25.21875 C 22.921875 -27.144531 22.289062 -28.664062 21.03125 -29.78125 C 19.78125 -30.894531 18.082031 -31.453125 15.9375 -31.453125 Z M 15.9375 -31.453125 "/></g></g></g><g fill="#fff9f2" fill-opacity="1"><g transform="translate(118.062647, 280.627194)"><g><path d="M 15.390625 -25.8125 C 18.785156 -25.8125 21.378906 -24.957031 23.171875 -23.25 C 24.960938 -21.550781 25.859375 -19.082031 25.859375 -15.84375 C 25.859375 -14.5 25.75 -13.179688 25.53125 -11.890625 L 9.921875 -11.890625 C 10.128906 -9.234375 10.816406 -7.226562 11.984375 -5.875 C 13.148438 -4.53125 14.832031 -3.859375 17.03125 -3.859375 C 19.476562 -3.859375 21.851562 -4.363281 24.15625 -5.375 L 25.34375 -2.578125 C 24.15625 -1.566406 22.554688 -0.773438 20.546875 -0.203125 C 18.546875 0.359375 16.625 0.640625 14.78125 0.640625 C 10.59375 0.640625 7.359375 -0.453125 5.078125 -2.640625 C 2.796875 -4.828125 1.65625 -7.910156 1.65625 -11.890625 C 1.65625 -14.585938 2.234375 -16.988281 3.390625 -19.09375 C 4.554688 -21.207031 6.179688 -22.851562 8.265625 -24.03125 C 10.347656 -25.21875 12.722656 -25.8125 15.390625 -25.8125 Z M 14.6875 -22.6875 C 11.90625 -22.6875 10.316406 -20.28125 9.921875 -15.46875 L 18.140625 -15.46875 C 18.265625 -16.570312 18.328125 -17.507812 18.328125 -18.28125 C 18.328125 -21.21875 17.113281 -22.6875 14.6875 -22.6875 Z M 14.6875 -22.6875 "/></g></g></g><g fill="#fff9f2" fill-opacity="1"><g transform="translate(146.432741, 280.627194)"><g><path d="M 5.921875 -7.390625 L 7.34375 -4.90625 C 8.226562 -4.019531 8.976562 -3.394531 9.59375 -3.03125 C 10.207031 -2.664062 11.003906 -2.484375 11.984375 -2.484375 C 13.179688 -2.484375 14.09375 -2.734375 14.71875 -3.234375 C 15.34375 -3.742188 15.65625 -4.425781 15.65625 -5.28125 C 15.625 -6.039062 15.125 -6.726562 14.15625 -7.34375 C 13.195312 -7.957031 11.753906 -8.691406 9.828125 -9.546875 C 7.191406 -10.773438 5.203125 -12.078125 3.859375 -13.453125 C 2.515625 -14.828125 1.84375 -16.539062 1.84375 -18.59375 C 1.863281 -20.15625 2.410156 -21.476562 3.484375 -22.5625 C 4.554688 -23.65625 5.90625 -24.46875 7.53125 -25 C 9.15625 -25.539062 10.835938 -25.8125 12.578125 -25.8125 C 13.960938 -25.875 15.554688 -25.773438 17.359375 -25.515625 C 19.160156 -25.253906 20.535156 -24.921875 21.484375 -24.515625 L 21.484375 -18.375 L 17.546875 -18.375 L 16.296875 -21.171875 C 15.867188 -21.691406 15.363281 -22.117188 14.78125 -22.453125 C 14.207031 -22.785156 13.613281 -22.953125 13 -22.953125 C 12.050781 -22.953125 11.257812 -22.757812 10.625 -22.375 C 10 -22 9.6875 -21.503906 9.6875 -20.890625 C 9.6875 -20.097656 9.921875 -19.410156 10.390625 -18.828125 C 10.867188 -18.242188 11.519531 -17.710938 12.34375 -17.234375 C 13.175781 -16.765625 14.390625 -16.164062 15.984375 -15.4375 C 18.398438 -14.332031 20.210938 -13.210938 21.421875 -12.078125 C 22.628906 -10.941406 23.234375 -9.425781 23.234375 -7.53125 C 23.234375 -4.75 22.113281 -2.707031 19.875 -1.40625 C 17.644531 -0.101562 14.769531 0.546875 11.25 0.546875 C 9.71875 0.546875 8.101562 0.363281 6.40625 0 C 4.707031 -0.363281 3.320312 -0.851562 2.25 -1.46875 L 2.25 -7.390625 Z M 5.921875 -7.390625 "/></g></g></g><g fill="#fff9f2" fill-opacity="1"><g transform="translate(171.58943, 280.627194)"><g><path d="M 11.4375 -25.078125 L 19.109375 -25.078125 L 19.109375 -21.078125 L 11.75 -21.078125 L 11.75 -12.4375 C 11.75 -10.414062 11.796875 -8.851562 11.890625 -7.75 C 11.984375 -6.65625 12.226562 -5.753906 12.625 -5.046875 C 13.019531 -4.347656 13.648438 -4 14.515625 -4 C 15.066406 -4 15.757812 -4.082031 16.59375 -4.25 C 17.4375 -4.414062 18.046875 -4.59375 18.421875 -4.78125 L 19.609375 -2.25 C 18.691406 -1.332031 17.382812 -0.632812 15.6875 -0.15625 C 13.988281 0.3125 12.265625 0.546875 10.515625 0.546875 C 8.828125 0.546875 7.515625 0.257812 6.578125 -0.3125 C 5.648438 -0.894531 4.992188 -1.785156 4.609375 -2.984375 C 4.234375 -4.179688 4.046875 -5.757812 4.046875 -7.71875 L 4.046875 -21.078125 L 0.640625 -21.078125 L 0.640625 -23.609375 C 2.597656 -23.910156 4.035156 -24.519531 4.953125 -25.4375 C 5.503906 -25.988281 5.972656 -26.691406 6.359375 -27.546875 C 6.742188 -28.410156 7.179688 -29.59375 7.671875 -31.09375 L 11.4375 -31.09375 Z M 11.4375 -25.078125 "/></g></g></g><g fill="#fff9f2" fill-opacity="1"><g transform="translate(192.890017, 280.627194)"><g><path d="M 14.140625 -25.8125 C 17.628906 -25.8125 20.21875 -25.082031 21.90625 -23.625 C 23.59375 -22.175781 24.4375 -19.828125 24.4375 -16.578125 L 24.4375 -3.03125 L 27.375 -3.03125 L 27.375 -0.640625 C 26.757812 -0.210938 25.90625 0.101562 24.8125 0.3125 C 23.726562 0.53125 22.648438 0.640625 21.578125 0.640625 C 20.453125 0.640625 19.519531 0.421875 18.78125 -0.015625 C 18.050781 -0.460938 17.640625 -1.097656 17.546875 -1.921875 C 15.734375 -0.210938 13.554688 0.640625 11.015625 0.640625 C 8.203125 0.640625 5.921875 0.00390625 4.171875 -1.265625 C 2.429688 -2.535156 1.5625 -4.300781 1.5625 -6.5625 C 1.5625 -8.582031 2.265625 -10.28125 3.671875 -11.65625 C 5.078125 -13.039062 6.921875 -14.066406 9.203125 -14.734375 C 11.484375 -15.410156 13.910156 -15.75 16.484375 -15.75 L 16.484375 -16.03125 C 16.453125 -18.050781 16.09375 -19.472656 15.40625 -20.296875 C 14.71875 -21.117188 13.484375 -21.53125 11.703125 -21.53125 C 10.421875 -21.53125 9.066406 -21.347656 7.640625 -20.984375 C 6.222656 -20.617188 5.113281 -20.160156 4.3125 -19.609375 L 2.796875 -23.046875 C 3.898438 -23.941406 5.546875 -24.625 7.734375 -25.09375 C 9.921875 -25.570312 12.054688 -25.8125 14.140625 -25.8125 Z M 16.484375 -12.3125 C 14.492188 -12.3125 12.847656 -11.910156 11.546875 -11.109375 C 10.242188 -10.316406 9.59375 -9.125 9.59375 -7.53125 C 9.59375 -6.269531 9.90625 -5.3125 10.53125 -4.65625 C 11.164062 -4 12.09375 -3.671875 13.3125 -3.671875 C 14.664062 -3.671875 15.722656 -3.992188 16.484375 -4.640625 Z M 16.484375 -12.3125 "/></g></g></g><g fill="#fff9f2" fill-opacity="1"><g transform="translate(220.984678, 280.627194)"><g><path d="M 1.1875 -21.03125 L 1.1875 -23.78125 L 9.734375 -25.8125 L 10.921875 -25.4375 L 10.921875 -9.828125 C 10.921875 -7.742188 11.160156 -6.210938 11.640625 -5.234375 C 12.117188 -4.253906 13.03125 -3.765625 14.375 -3.765625 C 15.101562 -3.765625 15.847656 -3.863281 16.609375 -4.0625 C 17.378906 -4.257812 17.96875 -4.539062 18.375 -4.90625 L 18.375 -19.109375 L 15.515625 -20.671875 L 15.515625 -23.78125 L 24.890625 -25.8125 L 26.125 -25.4375 L 26.125 -3.03125 L 28.703125 -3.03125 L 28.703125 -0.640625 C 28.179688 -0.273438 27.226562 0.0234375 25.84375 0.265625 C 24.46875 0.515625 23.304688 0.640625 22.359375 0.640625 C 21.410156 0.640625 20.640625 0.429688 20.046875 0.015625 C 19.453125 -0.390625 19.15625 -1.007812 19.15625 -1.84375 L 19.15625 -2.703125 C 18.414062 -1.816406 17.296875 -1.035156 15.796875 -0.359375 C 14.296875 0.304688 12.945312 0.640625 11.75 0.640625 C 8.601562 0.640625 6.410156 -0.109375 5.171875 -1.609375 C 3.929688 -3.109375 3.3125 -5.492188 3.3125 -8.765625 L 3.3125 -19.46875 Z M 1.1875 -21.03125 "/></g></g></g><g fill="#fff9f2" fill-opacity="1"><g transform="translate(251.420543, 280.627194)"><g><path d="M 4.953125 -3.625 L 4.953125 -18.375 L 1.921875 -20.53125 L 1.921875 -23.328125 L 10.234375 -25.8125 L 11.84375 -25.390625 L 11.84375 -21.03125 C 12.0625 -21.851562 12.53125 -22.628906 13.25 -23.359375 C 13.96875 -24.097656 14.785156 -24.691406 15.703125 -25.140625 C 16.617188 -25.585938 17.476562 -25.8125 18.28125 -25.8125 C 19.53125 -25.8125 20.335938 -25.71875 20.703125 -25.53125 L 20.703125 -18.453125 C 20.367188 -18.796875 19.796875 -19.054688 18.984375 -19.234375 C 18.171875 -19.421875 17.476562 -19.515625 16.90625 -19.515625 C 16.039062 -19.515625 15.234375 -19.429688 14.484375 -19.265625 C 13.734375 -19.097656 13.207031 -18.90625 12.90625 -18.6875 L 12.90625 -3.8125 L 18.140625 -3.03125 L 18.140625 0 L 2.203125 0 L 2.203125 -3.03125 Z M 4.953125 -3.625 "/></g></g></g><g fill="#fff9f2" fill-opacity="1"><g transform="translate(273.685154, 280.627194)"><g><path d="M 14.140625 -25.8125 C 17.628906 -25.8125 20.21875 -25.082031 21.90625 -23.625 C 23.59375 -22.175781 24.4375 -19.828125 24.4375 -16.578125 L 24.4375 -3.03125 L 27.375 -3.03125 L 27.375 -0.640625 C 26.757812 -0.210938 25.90625 0.101562 24.8125 0.3125 C 23.726562 0.53125 22.648438 0.640625 21.578125 0.640625 C 20.453125 0.640625 19.519531 0.421875 18.78125 -0.015625 C 18.050781 -0.460938 17.640625 -1.097656 17.546875 -1.921875 C 15.734375 -0.210938 13.554688 0.640625 11.015625 0.640625 C 8.203125 0.640625 5.921875 0.00390625 4.171875 -1.265625 C 2.429688 -2.535156 1.5625 -4.300781 1.5625 -6.5625 C 1.5625 -8.582031 2.265625 -10.28125 3.671875 -11.65625 C 5.078125 -13.039062 6.921875 -14.066406 9.203125 -14.734375 C 11.484375 -15.410156 13.910156 -15.75 16.484375 -15.75 L 16.484375 -16.03125 C 16.453125 -18.050781 16.09375 -19.472656 15.40625 -20.296875 C 14.71875 -21.117188 13.484375 -21.53125 11.703125 -21.53125 C 10.421875 -21.53125 9.066406 -21.347656 7.640625 -20.984375 C 6.222656 -20.617188 5.113281 -20.160156 4.3125 -19.609375 L 2.796875 -23.046875 C 3.898438 -23.941406 5.546875 -24.625 7.734375 -25.09375 C 9.921875 -25.570312 12.054688 -25.8125 14.140625 -25.8125 Z M 16.484375 -12.3125 C 14.492188 -12.3125 12.847656 -11.910156 11.546875 -11.109375 C 10.242188 -10.316406 9.59375 -9.125 9.59375 -7.53125 C 9.59375 -6.269531 9.90625 -5.3125 10.53125 -4.65625 C 11.164062 -4 12.09375 -3.671875 13.3125 -3.671875 C 14.664062 -3.671875 15.722656 -3.992188 16.484375 -4.640625 Z M 16.484375 -12.3125 "/></g></g></g><g fill="#fff9f2" fill-opacity="1"><g transform="translate(301.779816, 280.627194)"><g><path d="M 4.953125 -3.625 L 4.953125 -18.375 L 1.921875 -20.53125 L 1.921875 -23.328125 L 10.234375 -25.8125 L 11.9375 -25.390625 L 11.9375 -22.046875 C 13.101562 -23.203125 14.550781 -24.117188 16.28125 -24.796875 C 18.007812 -25.472656 19.6875 -25.8125 21.3125 -25.8125 C 24.03125 -25.8125 25.941406 -24.96875 27.046875 -23.28125 C 28.148438 -21.59375 28.703125 -19.066406 28.703125 -15.703125 L 28.703125 -3.625 L 31.828125 -3.03125 L 31.828125 0 L 17.546875 0 L 17.546875 -3.03125 L 20.75 -3.671875 L 20.75 -14.6875 C 20.75 -16.34375 20.640625 -17.578125 20.421875 -18.390625 C 20.210938 -19.203125 19.796875 -19.773438 19.171875 -20.109375 C 18.546875 -20.453125 17.585938 -20.625 16.296875 -20.625 C 15.898438 -20.625 15.300781 -20.507812 14.5 -20.28125 C 13.707031 -20.050781 13.175781 -19.828125 12.90625 -19.609375 L 12.90625 -3.671875 L 15.65625 -3.03125 L 15.65625 0 L 2.15625 0 L 2.15625 -3.03125 Z M 4.953125 -3.625 "/></g></g></g><g fill="#fff9f2" fill-opacity="1"><g transform="translate(335.245477, 280.627194)"><g><path d="M 11.4375 -25.078125 L 19.109375 -25.078125 L 19.109375 -21.078125 L 11.75 -21.078125 L 11.75 -12.4375 C 11.75 -10.414062 11.796875 -8.851562 11.890625 -7.75 C 11.984375 -6.65625 12.226562 -5.753906 12.625 -5.046875 C 13.019531 -4.347656 13.648438 -4 14.515625 -4 C 15.066406 -4 15.757812 -4.082031 16.59375 -4.25 C 17.4375 -4.414062 18.046875 -4.59375 18.421875 -4.78125 L 19.609375 -2.25 C 18.691406 -1.332031 17.382812 -0.632812 15.6875 -0.15625 C 13.988281 0.3125 12.265625 0.546875 10.515625 0.546875 C 8.828125 0.546875 7.515625 0.257812 6.578125 -0.3125 C 5.648438 -0.894531 4.992188 -1.785156 4.609375 -2.984375 C 4.234375 -4.179688 4.046875 -5.757812 4.046875 -7.71875 L 4.046875 -21.078125 L 0.640625 -21.078125 L 0.640625 -23.609375 C 2.597656 -23.910156 4.035156 -24.519531 4.953125 -25.4375 C 5.503906 -25.988281 5.972656 -26.691406 6.359375 -27.546875 C 6.742188 -28.410156 7.179688 -29.59375 7.671875 -31.09375 L 11.4375 -31.09375 Z M 11.4375 -25.078125 "/></g></g></g><g fill="#302626" fill-opacity="0.502"><g transform="translate(114.643383, 328.154144)"><g><path d="M 5.234375 -4.09375 L 6.796875 -30.125 L 2.65625 -30.625 L 2.65625 -34.8125 L 17.90625 -34.8125 L 23.28125 -16.984375 L 24.015625 -12.4375 L 24.984375 -16.984375 L 30.03125 -34.8125 L 44.078125 -34.8125 L 44.078125 -30.625 L 39.90625 -30.125 L 42.203125 -4.046875 L 45.734375 -3.078125 L 45.734375 0 L 30.859375 0 L 30.859375 -3.078125 L 34.578125 -4.09375 L 33.34375 -21.265625 L 33.25 -30.40625 L 32.46875 -27.28125 L 24.515625 0.40625 L 21.578125 0.40625 L 14.1875 -21.8125 L 11.484375 -30.21875 L 11.4375 -23.96875 L 10.75 -4.140625 L 14.875 -3.125 L 14.875 0 L 1.375 0 L 1.375 -3.125 Z M 5.234375 -4.09375 "/></g></g></g><g fill="#302626" fill-opacity="0.502"><g transform="translate(161.421749, 328.154144)"><g><path d="M 14.140625 -25.8125 C 17.628906 -25.8125 20.21875 -25.082031 21.90625 -23.625 C 23.59375 -22.175781 24.4375 -19.828125 24.4375 -16.578125 L 24.4375 -3.03125 L 27.375 -3.03125 L 27.375 -0.640625 C 26.757812 -0.210938 25.90625 0.101562 24.8125 0.3125 C 23.726562 0.53125 22.648438 0.640625 21.578125 0.640625 C 20.453125 0.640625 19.519531 0.421875 18.78125 -0.015625 C 18.050781 -0.460938 17.640625 -1.097656 17.546875 -1.921875 C 15.734375 -0.210938 13.554688 0.640625 11.015625 0.640625 C 8.203125 0.640625 5.921875 0.00390625 4.171875 -1.265625 C 2.429688 -2.535156 1.5625 -4.300781 1.5625 -6.5625 C 1.5625 -8.582031 2.265625 -10.28125 3.671875 -11.65625 C 5.078125 -13.039062 6.921875 -14.066406 9.203125 -14.734375 C 11.484375 -15.410156 13.910156 -15.75 16.484375 -15.75 L 16.484375 -16.03125 C 16.453125 -18.050781 16.09375 -19.472656 15.40625 -20.296875 C 14.71875 -21.117188 13.484375 -21.53125 11.703125 -21.53125 C 10.421875 -21.53125 9.066406 -21.347656 7.640625 -20.984375 C 6.222656 -20.617188 5.113281 -20.160156 4.3125 -19.609375 L 2.796875 -23.046875 C 3.898438 -23.941406 5.546875 -24.625 7.734375 -25.09375 C 9.921875 -25.570312 12.054688 -25.8125 14.140625 -25.8125 Z M 16.484375 -12.3125 C 14.492188 -12.3125 12.847656 -11.910156 11.546875 -11.109375 C 10.242188 -10.316406 9.59375 -9.125 9.59375 -7.53125 C 9.59375 -6.269531 9.90625 -5.3125 10.53125 -4.65625 C 11.164062 -4 12.09375 -3.671875 13.3125 -3.671875 C 14.664062 -3.671875 15.722656 -3.992188 16.484375 -4.640625 Z M 16.484375 -12.3125 "/></g></g></g><g fill="#302626" fill-opacity="0.502"><g transform="translate(189.516415, 328.154144)"><g><path d="M 4.953125 -3.625 L 4.953125 -18.375 L 1.921875 -20.53125 L 1.921875 -23.328125 L 10.234375 -25.8125 L 11.9375 -25.390625 L 11.9375 -22.046875 C 13.101562 -23.203125 14.550781 -24.117188 16.28125 -24.796875 C 18.007812 -25.472656 19.6875 -25.8125 21.3125 -25.8125 C 24.03125 -25.8125 25.941406 -24.96875 27.046875 -23.28125 C 28.148438 -21.59375 28.703125 -19.066406 28.703125 -15.703125 L 28.703125 -3.625 L 31.828125 -3.03125 L 31.828125 0 L 17.546875 0 L 17.546875 -3.03125 L 20.75 -3.671875 L 20.75 -14.6875 C 20.75 -16.34375 20.640625 -17.578125 20.421875 -18.390625 C 20.210938 -19.203125 19.796875 -19.773438 19.171875 -20.109375 C 18.546875 -20.453125 17.585938 -20.625 16.296875 -20.625 C 15.898438 -20.625 15.300781 -20.507812 14.5 -20.28125 C 13.707031 -20.050781 13.175781 -19.828125 12.90625 -19.609375 L 12.90625 -3.671875 L 15.65625 -3.03125 L 15.65625 0 L 2.15625 0 L 2.15625 -3.03125 Z M 4.953125 -3.625 "/></g></g></g><g fill="#302626" fill-opacity="0.502"><g transform="translate(222.982077, 328.154144)"><g><path d="M 14.140625 -25.8125 C 17.628906 -25.8125 20.21875 -25.082031 21.90625 -23.625 C 23.59375 -22.175781 24.4375 -19.828125 24.4375 -16.578125 L 24.4375 -3.03125 L 27.375 -3.03125 L 27.375 -0.640625 C 26.757812 -0.210938 25.90625 0.101562 24.8125 0.3125 C 23.726562 0.53125 22.648438 0.640625 21.578125 0.640625 C 20.453125 0.640625 19.519531 0.421875 18.78125 -0.015625 C 18.050781 -0.460938 17.640625 -1.097656 17.546875 -1.921875 C 15.734375 -0.210938 13.554688 0.640625 11.015625 0.640625 C 8.203125 0.640625 5.921875 0.00390625 4.171875 -1.265625 C 2.429688 -2.535156 1.5625 -4.300781 1.5625 -6.5625 C 1.5625 -8.582031 2.265625 -10.28125 3.671875 -11.65625 C 5.078125 -13.039062 6.921875 -14.066406 9.203125 -14.734375 C 11.484375 -15.410156 13.910156 -15.75 16.484375 -15.75 L 16.484375 -16.03125 C 16.453125 -18.050781 16.09375 -19.472656 15.40625 -20.296875 C 14.71875 -21.117188 13.484375 -21.53125 11.703125 -21.53125 C 10.421875 -21.53125 9.066406 -21.347656 7.640625 -20.984375 C 6.222656 -20.617188 5.113281 -20.160156 4.3125 -19.609375 L 2.796875 -23.046875 C 3.898438 -23.941406 5.546875 -24.625 7.734375 -25.09375 C 9.921875 -25.570312 12.054688 -25.8125 14.140625 -25.8125 Z M 16.484375 -12.3125 C 14.492188 -12.3125 12.847656 -11.910156 11.546875 -11.109375 C 10.242188 -10.316406 9.59375 -9.125 9.59375 -7.53125 C 9.59375 -6.269531 9.90625 -5.3125 10.53125 -4.65625 C 11.164062 -4 12.09375 -3.671875 13.3125 -3.671875 C 14.664062 -3.671875 15.722656 -3.992188 16.484375 -4.640625 Z M 16.484375 -12.3125 "/></g></g></g><g fill="#302626" fill-opacity="0.502"><g transform="translate(251.076738, 328.154144)"><g><path d="M 13.875 -25.8125 C 17.300781 -25.8125 19.929688 -25.109375 21.765625 -23.703125 C 22.441406 -25.109375 24.109375 -25.8125 26.765625 -25.8125 L 28.75 -25.8125 L 28.75 -20.390625 L 24.109375 -20.390625 C 24.378906 -19.566406 24.515625 -18.648438 24.515625 -17.640625 C 24.515625 -14.660156 23.441406 -12.421875 21.296875 -10.921875 C 19.160156 -9.421875 16.378906 -8.671875 12.953125 -8.671875 C 11.421875 -8.671875 10.101562 -8.78125 9 -9 C 8.757812 -8.414062 8.640625 -7.878906 8.640625 -7.390625 C 8.640625 -6.503906 8.90625 -5.851562 9.4375 -5.4375 C 9.96875 -5.03125 10.769531 -4.828125 11.84375 -4.828125 L 17.125 -4.828125 C 19.632812 -4.828125 21.660156 -4.617188 23.203125 -4.203125 C 24.753906 -3.785156 25.925781 -3.046875 26.71875 -1.984375 C 27.519531 -0.929688 27.921875 0.554688 27.921875 2.484375 C 27.921875 4.535156 27.226562 6.269531 25.84375 7.6875 C 24.46875 9.113281 22.65625 10.171875 20.40625 10.859375 C 18.15625 11.546875 15.703125 11.890625 13.046875 11.890625 C 9.554688 11.890625 6.769531 11.375 4.6875 10.34375 C 2.601562 9.320312 1.5625 7.632812 1.5625 5.28125 C 1.5625 4 1.90625 2.828125 2.59375 1.765625 C 3.28125 0.710938 4.191406 -0.132812 5.328125 -0.78125 C 4.347656 -1.175781 3.6875 -1.6875 3.34375 -2.3125 C 3.007812 -2.945312 2.84375 -3.84375 2.84375 -5 C 2.84375 -5.769531 3.15625 -6.632812 3.78125 -7.59375 C 4.414062 -8.5625 5.113281 -9.367188 5.875 -10.015625 C 2.96875 -11.421875 1.515625 -13.71875 1.515625 -16.90625 C 1.515625 -18.832031 2.070312 -20.46875 3.1875 -21.8125 C 4.3125 -23.15625 5.804688 -24.15625 7.671875 -24.8125 C 9.535156 -25.476562 11.601562 -25.8125 13.875 -25.8125 Z M 13.09375 -22.6875 C 11.925781 -22.6875 11 -22.3125 10.3125 -21.5625 C 9.625 -20.8125 9.28125 -19.820312 9.28125 -18.59375 C 9.28125 -16.601562 9.597656 -15.050781 10.234375 -13.9375 C 10.878906 -12.820312 11.96875 -12.265625 13.5 -12.265625 C 14.757812 -12.265625 15.691406 -12.742188 16.296875 -13.703125 C 16.910156 -14.671875 17.21875 -15.890625 17.21875 -17.359375 C 17.21875 -19.078125 16.863281 -20.394531 16.15625 -21.3125 C 15.457031 -22.226562 14.4375 -22.6875 13.09375 -22.6875 Z M 8.90625 -0.09375 C 8.476562 0.757812 8.265625 1.816406 8.265625 3.078125 C 8.265625 4.816406 8.851562 6.128906 10.03125 7.015625 C 11.207031 7.910156 12.71875 8.359375 14.5625 8.359375 C 16.664062 8.359375 18.207031 8.082031 19.1875 7.53125 C 20.175781 6.976562 20.671875 5.890625 20.671875 4.265625 C 20.671875 2.617188 20.300781 1.492188 19.5625 0.890625 C 18.820312 0.296875 17.503906 0 15.609375 0 L 11.671875 0 C 10.378906 0 9.457031 -0.03125 8.90625 -0.09375 Z M 8.90625 -0.09375 "/></g></g></g><g fill="#302626" fill-opacity="0.502"><g transform="translate(280.273148, 328.154144)"><g><path d="M 15.390625 -25.8125 C 18.785156 -25.8125 21.378906 -24.957031 23.171875 -23.25 C 24.960938 -21.550781 25.859375 -19.082031 25.859375 -15.84375 C 25.859375 -14.5 25.75 -13.179688 25.53125 -11.890625 L 9.921875 -11.890625 C 10.128906 -9.234375 10.816406 -7.226562 11.984375 -5.875 C 13.148438 -4.53125 14.832031 -3.859375 17.03125 -3.859375 C 19.476562 -3.859375 21.851562 -4.363281 24.15625 -5.375 L 25.34375 -2.578125 C 24.15625 -1.566406 22.554688 -0.773438 20.546875 -0.203125 C 18.546875 0.359375 16.625 0.640625 14.78125 0.640625 C 10.59375 0.640625 7.359375 -0.453125 5.078125 -2.640625 C 2.796875 -4.828125 1.65625 -7.910156 1.65625 -11.890625 C 1.65625 -14.585938 2.234375 -16.988281 3.390625 -19.09375 C 4.554688 -21.207031 6.179688 -22.851562 8.265625 -24.03125 C 10.347656 -25.21875 12.722656 -25.8125 15.390625 -25.8125 Z M 14.6875 -22.6875 C 11.90625 -22.6875 10.316406 -20.28125 9.921875 -15.46875 L 18.140625 -15.46875 C 18.265625 -16.570312 18.328125 -17.507812 18.328125 -18.28125 C 18.328125 -21.21875 17.113281 -22.6875 14.6875 -22.6875 Z M 14.6875 -22.6875 "/></g></g></g><g fill="#302626" fill-opacity="0.502"><g transform="translate(308.643239, 328.154144)"><g><path d="M 4.953125 -3.625 L 4.953125 -18.375 L 1.921875 -20.53125 L 1.921875 -23.328125 L 10.234375 -25.8125 L 11.84375 -25.390625 L 11.84375 -21.03125 C 12.0625 -21.851562 12.53125 -22.628906 13.25 -23.359375 C 13.96875 -24.097656 14.785156 -24.691406 15.703125 -25.140625 C 16.617188 -25.585938 17.476562 -25.8125 18.28125 -25.8125 C 19.53125 -25.8125 20.335938 -25.71875 20.703125 -25.53125 L 20.703125 -18.453125 C 20.367188 -18.796875 19.796875 -19.054688 18.984375 -19.234375 C 18.171875 -19.421875 17.476562 -19.515625 16.90625 -19.515625 C 16.039062 -19.515625 15.234375 -19.429688 14.484375 -19.265625 C 13.734375 -19.097656 13.207031 -18.90625 12.90625 -18.6875 L 12.90625 -3.8125 L 18.140625 -3.03125 L 18.140625 0 L 2.203125 0 L 2.203125 -3.03125 Z M 4.953125 -3.625 "/></g></g></g><g fill="#fff9f2" fill-opacity="1"><g transform="translate(111.771036, 326.359302)"><g><path d="M 5.234375 -4.09375 L 6.796875 -30.125 L 2.65625 -30.625 L 2.65625 -34.8125 L 17.90625 -34.8125 L 23.28125 -16.984375 L 24.015625 -12.4375 L 24.984375 -16.984375 L 30.03125 -34.8125 L 44.078125 -34.8125 L 44.078125 -30.625 L 39.90625 -30.125 L 42.203125 -4.046875 L 45.734375 -3.078125 L 45.734375 0 L 30.859375 0 L 30.859375 -3.078125 L 34.578125 -4.09375 L 33.34375 -21.265625 L 33.25 -30.40625 L 32.46875 -27.28125 L 24.515625 0.40625 L 21.578125 0.40625 L 14.1875 -21.8125 L 11.484375 -30.21875 L 11.4375 -23.96875 L 10.75 -4.140625 L 14.875 -3.125 L 14.875 0 L 1.375 0 L 1.375 -3.125 Z M 5.234375 -4.09375 "/></g></g></g><g fill="#fff9f2" fill-opacity="1"><g transform="translate(158.549402, 326.359302)"><g><path d="M 14.140625 -25.8125 C 17.628906 -25.8125 20.21875 -25.082031 21.90625 -23.625 C 23.59375 -22.175781 24.4375 -19.828125 24.4375 -16.578125 L 24.4375 -3.03125 L 27.375 -3.03125 L 27.375 -0.640625 C 26.757812 -0.210938 25.90625 0.101562 24.8125 0.3125 C 23.726562 0.53125 22.648438 0.640625 21.578125 0.640625 C 20.453125 0.640625 19.519531 0.421875 18.78125 -0.015625 C 18.050781 -0.460938 17.640625 -1.097656 17.546875 -1.921875 C 15.734375 -0.210938 13.554688 0.640625 11.015625 0.640625 C 8.203125 0.640625 5.921875 0.00390625 4.171875 -1.265625 C 2.429688 -2.535156 1.5625 -4.300781 1.5625 -6.5625 C 1.5625 -8.582031 2.265625 -10.28125 3.671875 -11.65625 C 5.078125 -13.039062 6.921875 -14.066406 9.203125 -14.734375 C 11.484375 -15.410156 13.910156 -15.75 16.484375 -15.75 L 16.484375 -16.03125 C 16.453125 -18.050781 16.09375 -19.472656 15.40625 -20.296875 C 14.71875 -21.117188 13.484375 -21.53125 11.703125 -21.53125 C 10.421875 -21.53125 9.066406 -21.347656 7.640625 -20.984375 C 6.222656 -20.617188 5.113281 -20.160156 4.3125 -19.609375 L 2.796875 -23.046875 C 3.898438 -23.941406 5.546875 -24.625 7.734375 -25.09375 C 9.921875 -25.570312 12.054688 -25.8125 14.140625 -25.8125 Z M 16.484375 -12.3125 C 14.492188 -12.3125 12.847656 -11.910156 11.546875 -11.109375 C 10.242188 -10.316406 9.59375 -9.125 9.59375 -7.53125 C 9.59375 -6.269531 9.90625 -5.3125 10.53125 -4.65625 C 11.164062 -4 12.09375 -3.671875 13.3125 -3.671875 C 14.664062 -3.671875 15.722656 -3.992188 16.484375 -4.640625 Z M 16.484375 -12.3125 "/></g></g></g><g fill="#fff9f2" fill-opacity="1"><g transform="translate(186.644069, 326.359302)"><g><path d="M 4.953125 -3.625 L 4.953125 -18.375 L 1.921875 -20.53125 L 1.921875 -23.328125 L 10.234375 -25.8125 L 11.9375 -25.390625 L 11.9375 -22.046875 C 13.101562 -23.203125 14.550781 -24.117188 16.28125 -24.796875 C 18.007812 -25.472656 19.6875 -25.8125 21.3125 -25.8125 C 24.03125 -25.8125 25.941406 -24.96875 27.046875 -23.28125 C 28.148438 -21.59375 28.703125 -19.066406 28.703125 -15.703125 L 28.703125 -3.625 L 31.828125 -3.03125 L 31.828125 0 L 17.546875 0 L 17.546875 -3.03125 L 20.75 -3.671875 L 20.75 -14.6875 C 20.75 -16.34375 20.640625 -17.578125 20.421875 -18.390625 C 20.210938 -19.203125 19.796875 -19.773438 19.171875 -20.109375 C 18.546875 -20.453125 17.585938 -20.625 16.296875 -20.625 C 15.898438 -20.625 15.300781 -20.507812 14.5 -20.28125 C 13.707031 -20.050781 13.175781 -19.828125 12.90625 -19.609375 L 12.90625 -3.671875 L 15.65625 -3.03125 L 15.65625 0 L 2.15625 0 L 2.15625 -3.03125 Z M 4.953125 -3.625 "/></g></g></g><g fill="#fff9f2" fill-opacity="1"><g transform="translate(220.10973, 326.359302)"><g><path d="M 14.140625 -25.8125 C 17.628906 -25.8125 20.21875 -25.082031 21.90625 -23.625 C 23.59375 -22.175781 24.4375 -19.828125 24.4375 -16.578125 L 24.4375 -3.03125 L 27.375 -3.03125 L 27.375 -0.640625 C 26.757812 -0.210938 25.90625 0.101562 24.8125 0.3125 C 23.726562 0.53125 22.648438 0.640625 21.578125 0.640625 C 20.453125 0.640625 19.519531 0.421875 18.78125 -0.015625 C 18.050781 -0.460938 17.640625 -1.097656 17.546875 -1.921875 C 15.734375 -0.210938 13.554688 0.640625 11.015625 0.640625 C 8.203125 0.640625 5.921875 0.00390625 4.171875 -1.265625 C 2.429688 -2.535156 1.5625 -4.300781 1.5625 -6.5625 C 1.5625 -8.582031 2.265625 -10.28125 3.671875 -11.65625 C 5.078125 -13.039062 6.921875 -14.066406 9.203125 -14.734375 C 11.484375 -15.410156 13.910156 -15.75 16.484375 -15.75 L 16.484375 -16.03125 C 16.453125 -18.050781 16.09375 -19.472656 15.40625 -20.296875 C 14.71875 -21.117188 13.484375 -21.53125 11.703125 -21.53125 C 10.421875 -21.53125 9.066406 -21.347656 7.640625 -20.984375 C 6.222656 -20.617188 5.113281 -20.160156 4.3125 -19.609375 L 2.796875 -23.046875 C 3.898438 -23.941406 5.546875 -24.625 7.734375 -25.09375 C 9.921875 -25.570312 12.054688 -25.8125 14.140625 -25.8125 Z M 16.484375 -12.3125 C 14.492188 -12.3125 12.847656 -11.910156 11.546875 -11.109375 C 10.242188 -10.316406 9.59375 -9.125 9.59375 -7.53125 C 9.59375 -6.269531 9.90625 -5.3125 10.53125 -4.65625 C 11.164062 -4 12.09375 -3.671875 13.3125 -3.671875 C 14.664062 -3.671875 15.722656 -3.992188 16.484375 -4.640625 Z M 16.484375 -12.3125 "/></g></g></g><g fill="#fff9f2" fill-opacity="1"><g transform="translate(248.204392, 326.359302)"><g><path d="M 13.875 -25.8125 C 17.300781 -25.8125 19.929688 -25.109375 21.765625 -23.703125 C 22.441406 -25.109375 24.109375 -25.8125 26.765625 -25.8125 L 28.75 -25.8125 L 28.75 -20.390625 L 24.109375 -20.390625 C 24.378906 -19.566406 24.515625 -18.648438 24.515625 -17.640625 C 24.515625 -14.660156 23.441406 -12.421875 21.296875 -10.921875 C 19.160156 -9.421875 16.378906 -8.671875 12.953125 -8.671875 C 11.421875 -8.671875 10.101562 -8.78125 9 -9 C 8.757812 -8.414062 8.640625 -7.878906 8.640625 -7.390625 C 8.640625 -6.503906 8.90625 -5.851562 9.4375 -5.4375 C 9.96875 -5.03125 10.769531 -4.828125 11.84375 -4.828125 L 17.125 -4.828125 C 19.632812 -4.828125 21.660156 -4.617188 23.203125 -4.203125 C 24.753906 -3.785156 25.925781 -3.046875 26.71875 -1.984375 C 27.519531 -0.929688 27.921875 0.554688 27.921875 2.484375 C 27.921875 4.535156 27.226562 6.269531 25.84375 7.6875 C 24.46875 9.113281 22.65625 10.171875 20.40625 10.859375 C 18.15625 11.546875 15.703125 11.890625 13.046875 11.890625 C 9.554688 11.890625 6.769531 11.375 4.6875 10.34375 C 2.601562 9.320312 1.5625 7.632812 1.5625 5.28125 C 1.5625 4 1.90625 2.828125 2.59375 1.765625 C 3.28125 0.710938 4.191406 -0.132812 5.328125 -0.78125 C 4.347656 -1.175781 3.6875 -1.6875 3.34375 -2.3125 C 3.007812 -2.945312 2.84375 -3.84375 2.84375 -5 C 2.84375 -5.769531 3.15625 -6.632812 3.78125 -7.59375 C 4.414062 -8.5625 5.113281 -9.367188 5.875 -10.015625 C 2.96875 -11.421875 1.515625 -13.71875 1.515625 -16.90625 C 1.515625 -18.832031 2.070312 -20.46875 3.1875 -21.8125 C 4.3125 -23.15625 5.804688 -24.15625 7.671875 -24.8125 C 9.535156 -25.476562 11.601562 -25.8125 13.875 -25.8125 Z M 13.09375 -22.6875 C 11.925781 -22.6875 11 -22.3125 10.3125 -21.5625 C 9.625 -20.8125 9.28125 -19.820312 9.28125 -18.59375 C 9.28125 -16.601562 9.597656 -15.050781 10.234375 -13.9375 C 10.878906 -12.820312 11.96875 -12.265625 13.5 -12.265625 C 14.757812 -12.265625 15.691406 -12.742188 16.296875 -13.703125 C 16.910156 -14.671875 17.21875 -15.890625 17.21875 -17.359375 C 17.21875 -19.078125 16.863281 -20.394531 16.15625 -21.3125 C 15.457031 -22.226562 14.4375 -22.6875 13.09375 -22.6875 Z M 8.90625 -0.09375 C 8.476562 0.757812 8.265625 1.816406 8.265625 3.078125 C 8.265625 4.816406 8.851562 6.128906 10.03125 7.015625 C 11.207031 7.910156 12.71875 8.359375 14.5625 8.359375 C 16.664062 8.359375 18.207031 8.082031 19.1875 7.53125 C 20.175781 6.976562 20.671875 5.890625 20.671875 4.265625 C 20.671875 2.617188 20.300781 1.492188 19.5625 0.890625 C 18.820312 0.296875 17.503906 0 15.609375 0 L 11.671875 0 C 10.378906 0 9.457031 -0.03125 8.90625 -0.09375 Z M 8.90625 -0.09375 "/></g></g></g><g fill="#fff9f2" fill-opacity="1"><g transform="translate(277.400802, 326.359302)"><g><path d="M 15.390625 -25.8125 C 18.785156 -25.8125 21.378906 -24.957031 23.171875 -23.25 C 24.960938 -21.550781 25.859375 -19.082031 25.859375 -15.84375 C 25.859375 -14.5 25.75 -13.179688 25.53125 -11.890625 L 9.921875 -11.890625 C 10.128906 -9.234375 10.816406 -7.226562 11.984375 -5.875 C 13.148438 -4.53125 14.832031 -3.859375 17.03125 -3.859375 C 19.476562 -3.859375 21.851562 -4.363281 24.15625 -5.375 L 25.34375 -2.578125 C 24.15625 -1.566406 22.554688 -0.773438 20.546875 -0.203125 C 18.546875 0.359375 16.625 0.640625 14.78125 0.640625 C 10.59375 0.640625 7.359375 -0.453125 5.078125 -2.640625 C 2.796875 -4.828125 1.65625 -7.910156 1.65625 -11.890625 C 1.65625 -14.585938 2.234375 -16.988281 3.390625 -19.09375 C 4.554688 -21.207031 6.179688 -22.851562 8.265625 -24.03125 C 10.347656 -25.21875 12.722656 -25.8125 15.390625 -25.8125 Z M 14.6875 -22.6875 C 11.90625 -22.6875 10.316406 -20.28125 9.921875 -15.46875 L 18.140625 -15.46875 C 18.265625 -16.570312 18.328125 -17.507812 18.328125 -18.28125 C 18.328125 -21.21875 17.113281 -22.6875 14.6875 -22.6875 Z M 14.6875 -22.6875 "/></g></g></g><g fill="#fff9f2" fill-opacity="1"><g transform="translate(305.770893, 326.359302)"><g><path d="M 4.953125 -3.625 L 4.953125 -18.375 L 1.921875 -20.53125 L 1.921875 -23.328125 L 10.234375 -25.8125 L 11.84375 -25.390625 L 11.84375 -21.03125 C 12.0625 -21.851562 12.53125 -22.628906 13.25 -23.359375 C 13.96875 -24.097656 14.785156 -24.691406 15.703125 -25.140625 C 16.617188 -25.585938 17.476562 -25.8125 18.28125 -25.8125 C 19.53125 -25.8125 20.335938 -25.71875 20.703125 -25.53125 L 20.703125 -18.453125 C 20.367188 -18.796875 19.796875 -19.054688 18.984375 -19.234375 C 18.171875 -19.421875 17.476562 -19.515625 16.90625 -19.515625 C 16.039062 -19.515625 15.234375 -19.429688 14.484375 -19.265625 C 13.734375 -19.097656 13.207031 -18.90625 12.90625 -18.6875 L 12.90625 -3.8125 L 18.140625 -3.03125 L 18.140625 0 L 2.203125 0 L 2.203125 -3.03125 Z M 4.953125 -3.625 "/></g></g></g><path stroke-linecap="butt" transform="matrix(0.000000000000000046, 0.748099, -0.75, 0.000000000000000046, 76.760961, 31.240647)" fill="none" stroke-linejoin="miter" d="M 0.00205859 0.99899 L 166.434393 0.99899 " stroke="#302626" stroke-width="2" stroke-opacity="1" stroke-miterlimit="4"/><g clip-path="url(#ec9c54f5bd)"><path fill="#302626" d="M 168.359375 216.5 C 167.628906 223.429688 169.378906 229.667969 173.015625 232.867188 C 174.246094 233.945312 177.691406 235.90625 180.09375 236.660156 C 183.039062 237.601562 186.136719 238.046875 189.425781 237.96875 C 197.582031 237.8125 207.355469 234.347656 213.183594 229.34375 L 218.53125 224.222656 C 219.089844 224.683594 218.839844 224.414062 219.417969 225.105469 C 219.78125 225.53125 219.628906 225.394531 219.976562 225.859375 C 225.226562 232.539062 238.480469 237.777344 247.621094 237.96875 C 253.8125 238.101562 259.449219 236.792969 263.894531 232.710938 C 268.050781 228.878906 269.550781 224.046875 268.742188 216.421875 C 267.683594 219.542969 268.03125 221.3125 265.722656 223.238281 C 256.371094 231.015625 240.464844 211.746094 231.941406 209.933594 C 223.496094 208.144531 219.550781 215.613281 218.53125 216.441406 C 216.570312 214.171875 216.261719 213.054688 213.589844 211.378906 C 208.144531 207.972656 203.277344 210.089844 198.332031 213.167969 C 195.984375 214.652344 194.890625 215.84375 192.695312 217.519531 C 190.675781 219.0625 188.808594 220.101562 186.710938 221.507812 C 184.941406 222.699219 182.039062 224.027344 179.75 224.546875 C 176.671875 225.242188 173.324219 224.875 171.378906 223.199219 C 169.320312 221.429688 169.300781 219.523438 168.359375 216.5 Z M 168.359375 216.5 " fill-opacity="1" fill-rule="evenodd"/></g><g clip-path="url(#f3438f3c2b)"><path fill="#fff9f2" d="M 265.125 154.273438 C 262.816406 161.707031 261.625 168.808594 261.566406 175.550781 C 261.507812 183 262.816406 190.066406 265.53125 196.765625 L 269.28125 206.027344 L 259.546875 203.753906 C 246.253906 200.636719 232.632812 199.117188 218.722656 199.210938 C 204.757812 199.289062 190.425781 200.984375 175.726562 204.273438 L 167.746094 206.066406 L 169.550781 198.074219 C 171.398438 189.949219 172.285156 181.960938 172.207031 174.046875 C 172.074219 161.359375 166.917969 154.601562 172.535156 144.378906 C 163.339844 142.972656 155.914062 139.179688 150.507812 134.171875 C 145.542969 129.570312 142.273438 123.949219 140.886719 118.15625 C 139.445312 112.148438 140.003906 105.96875 142.773438 100.539062 C 147.082031 92.027344 156.605469 85.480469 171.996094 84.671875 C 180.441406 74.46875 189.636719 68.632812 199.601562 67.171875 C 209.433594 65.726562 219.707031 68.597656 230.363281 75.777344 C 236.941406 73.371094 243.003906 72.773438 248.542969 74.007812 C 254.316406 75.296875 259.296875 78.472656 263.492188 83.535156 C 265.164062 83.671875 266.78125 83.863281 268.359375 84.113281 C 278.324219 85.65625 285.808594 89.390625 290.769531 95.300781 C 295.792969 101.269531 298.0625 109.164062 297.5625 118.980469 C 297.464844 121.042969 297.234375 123.21875 296.867188 125.507812 L 296.773438 126.027344 C 294.675781 133.921875 290.65625 140.316406 284.691406 145.207031 C 279.554688 149.402344 273.03125 152.425781 265.144531 154.273438 Z M 251.21875 175.472656 C 251.292969 166.769531 252.96875 157.644531 256.257812 148.132812 L 257.238281 145.28125 L 260.21875 144.722656 C 267.722656 143.320312 273.6875 140.816406 278.113281 137.175781 C 282.304688 133.730469 285.171875 129.207031 286.691406 123.582031 C 286.960938 121.832031 287.113281 120.136719 287.210938 118.5 C 287.558594 111.359375 286.113281 105.832031 282.84375 101.960938 C 279.535156 98.035156 274.1875 95.492188 266.761719 94.335938 C 264.855469 94.050781 262.796875 93.835938 260.566406 93.722656 L 258.066406 93.605469 L 256.621094 91.605469 C 253.640625 87.484375 250.199219 85 246.3125 84.132812 C 242.234375 83.230469 237.367188 83.980469 231.75 86.40625 L 229.054688 87.5625 L 226.652344 85.808594 C 217.417969 79.070312 208.914062 76.277344 201.082031 77.433594 C 193.253906 78.589844 185.769531 83.769531 178.613281 92.953125 L 177.09375 94.914062 L 174.59375 94.953125 C 162.203125 95.109375 154.933594 99.480469 152.027344 105.214844 C 150.410156 108.414062 150.085938 112.128906 150.96875 115.765625 C 151.890625 119.617188 154.125 123.429688 157.546875 126.585938 C 179.59375 146.976562 192.832031 120.40625 204.660156 139.832031 C 201.660156 142.761719 196.351562 146.246094 190.578125 149.074219 C 187.25 150.710938 183.710938 152.175781 180.324219 153.195312 C 181.75 160.050781 182.5 166.960938 182.578125 173.96875 C 182.632812 180.132812 182.171875 186.332031 181.191406 192.570312 C 193.925781 190.164062 206.429688 188.910156 218.707031 188.851562 C 230.402344 188.777344 241.867188 189.777344 253.082031 191.816406 C 251.792969 186.5625 251.199219 181.113281 251.238281 175.472656 Z M 251.21875 175.472656 " fill-opacity="1" fill-rule="nonzero"/></g><path fill="#fff9f2" d="M 195.753906 123.488281 L 193.984375 121.003906 C 193.925781 120.925781 193.851562 120.8125 193.792969 120.734375 C 191.234375 117.058594 190.484375 116.363281 187 113.207031 C 186.058594 112.359375 187.808594 113.804688 185.941406 112.359375 L 185.136719 111.144531 C 184.519531 110.550781 184.386719 110.53125 183.632812 109.683594 C 182.363281 108.257812 182.191406 108.046875 180.789062 107.101562 C 181.308594 108.988281 185.347656 116.191406 186.636719 117.421875 C 187.5 119.65625 188.847656 121.910156 190.308594 123.679688 L 191.5625 126.433594 C 193.925781 126.472656 194.695312 125.875 196.8125 125.625 C 196.601562 124.179688 197.160156 124.488281 195.753906 123.46875 Z M 195.753906 123.488281 " fill-opacity="1" fill-rule="evenodd"/><path fill="#fff9f2" d="M 253.679688 128.417969 C 254.507812 127.375 256.066406 125.664062 256.585938 124.488281 C 257.007812 124.179688 256.949219 124.507812 257.699219 123.566406 C 258.375 122.71875 258.179688 122.8125 258.625 121.734375 C 259.394531 121.371094 265.070312 113.707031 265.625 112.1875 C 264.335938 112.898438 259.375 116.441406 258.738281 117.578125 C 256.566406 118.980469 254.796875 120.234375 252.601562 122.253906 C 251.46875 123.3125 248.195312 126.492188 247.695312 128.417969 C 248.503906 128.820312 249.214844 129.050781 250.160156 129.4375 C 251.871094 130.128906 250.542969 129.9375 252.757812 130.1875 L 253.679688 128.4375 Z M 253.679688 128.417969 " fill-opacity="1" fill-rule="evenodd"/><path fill="#fff9f2" d="M 211.742188 123.3125 C 213.03125 123.566406 213.914062 124.007812 214.703125 122.890625 L 213.992188 119.347656 L 209.644531 106.429688 C 208.722656 104.023438 205.699219 96.128906 203.621094 95.164062 L 207.664062 115.632812 L 209.683594 123.71875 C 209.855469 123.71875 210.722656 123.738281 210.875 123.699219 C 212.03125 123.429688 211.03125 123.796875 211.761719 123.3125 Z M 211.742188 123.3125 " fill-opacity="1" fill-rule="evenodd"/><path fill="#fff9f2" d="M 236.710938 120.40625 L 244.582031 97.628906 C 242.65625 98.246094 241.117188 101.171875 239.980469 103.058594 C 234.363281 112.417969 234.289062 113.9375 230.113281 123.699219 C 230.5 124.566406 229.746094 124.449219 232.34375 124.855469 C 233.25 124.988281 234.113281 125.085938 235.078125 125.238281 C 235.691406 123.429688 236.230469 121.621094 236.710938 120.386719 Z M 236.710938 120.40625 " fill-opacity="1" fill-rule="evenodd"/></svg>