<svg xmlns="http://www.w3.org/2000/svg" xmlns:xlink="http://www.w3.org/1999/xlink" width="500" zoomAndPan="magnify" viewBox="0 0 375 374.999991" height="500" preserveAspectRatio="xMidYMid meet" version="1.0"><defs><g/><clipPath id="4f90a8d5a6"><path d="M 135 209.570312 L 237 209.570312 L 237 238 L 135 238 Z M 135 209.570312 " clip-rule="nonzero"/></clipPath><clipPath id="27e86d0b61"><path d="M 107.914062 66.789062 L 265.414062 66.789062 L 265.414062 207 L 107.914062 207 Z M 107.914062 66.789062 " clip-rule="nonzero"/></clipPath></defs><path stroke-linecap="butt" transform="matrix(0.749753, 0.00161252, -0.00161305, 0.749998, 43.061987, 31.236916)" fill="none" stroke-linejoin="miter" d="M -0.00237081 1.001828 L 383.123551 1.001014 " stroke="#fff9f2" stroke-width="2" stroke-opacity="1" stroke-miterlimit="4"/><path stroke-linecap="butt" transform="matrix(0.000000000000000046, 0.750564, -0.75, 0.000000000000000046, 331.93595, 31.992185)" fill="none" stroke-linejoin="miter" d="M 0.00000287893 0.997933 L 415.703166 0.997933 " stroke="#fff9f2" stroke-width="2" stroke-opacity="1" stroke-miterlimit="4"/><path stroke-linecap="butt" transform="matrix(0.750122, 0, 0, 0.75, 43.058762, 342.263063)" fill="none" stroke-linejoin="miter" d="M -0.00022386 0.998208 L 383.952913 0.998208 " stroke="#fff9f2" stroke-width="2" stroke-opacity="1" stroke-miterlimit="4"/><path stroke-linecap="butt" transform="matrix(-0.00000000000000062, 0.75035, -0.75, -0.00000000000000062, 44.556959, 193.079973)" fill="none" stroke-linejoin="miter" d="M -0.00246275 0.997821 L 200.914215 0.997821 " stroke="#fff9f2" stroke-width="2" stroke-opacity="1" stroke-miterlimit="4"/><g fill="#302626" fill-opacity="0.502"><g transform="translate(88.840612, 287.827949)"><g><path d="M 10.890625 -18.546875 L 8.96875 -18.640625 L 8.96875 0 L 2.953125 0 L 2.953125 -39.46875 L 12.890625 -39.46875 C 14.953125 -39.46875 16.488281 -39.050781 17.5 -38.21875 C 18.519531 -37.382812 19.191406 -36.222656 19.515625 -34.734375 C 19.835938 -33.253906 20 -31.3125 20 -28.90625 C 20 -26.507812 19.742188 -24.679688 19.234375 -23.421875 C 18.722656 -22.171875 17.78125 -21.328125 16.40625 -20.890625 C 17.769531 -20.660156 18.71875 -19.742188 19.25 -18.140625 C 19.789062 -16.535156 20.0625 -13.203125 20.0625 -8.140625 C 20.0625 -3.085938 20.140625 -0.375 20.296875 0 L 14.28125 0 C 14.132812 -0.300781 14.0625 -5.019531 14.0625 -14.15625 C 14.0625 -15.894531 13.847656 -17.050781 13.421875 -17.625 C 13.003906 -18.207031 12.160156 -18.515625 10.890625 -18.546875 Z M 8.984375 -23.296875 L 11.390625 -23.296875 C 12.148438 -23.296875 12.710938 -23.46875 13.078125 -23.8125 C 13.453125 -24.15625 13.707031 -24.742188 13.84375 -25.578125 C 13.988281 -26.421875 14.0625 -27.703125 14.0625 -29.421875 L 14.0625 -29.671875 C 14.0625 -31.804688 13.878906 -33.203125 13.515625 -33.859375 C 13.160156 -34.515625 12.332031 -34.84375 11.03125 -34.84375 L 8.984375 -34.84375 Z M 8.984375 -23.296875 "/></g></g></g><g fill="#302626" fill-opacity="0.502"><g transform="translate(112.080809, 287.827949)"><g><path d="M 10.8125 0.40625 C 7.03125 0.40625 4.59375 -1.035156 3.5 -3.921875 C 2.8125 -5.765625 2.46875 -8.1875 2.46875 -11.1875 L 2.46875 -23.71875 C 2.46875 -30.59375 5.328125 -34.03125 11.046875 -34.03125 C 14.097656 -34.03125 16.210938 -33.125 17.390625 -31.3125 C 18.566406 -29.507812 19.15625 -26.941406 19.15625 -23.609375 L 19.15625 -16.40625 L 8.453125 -16.40625 L 8.453125 -9.796875 C 8.453125 -7.460938 8.65625 -5.976562 9.0625 -5.34375 C 9.46875 -4.707031 10.070312 -4.390625 10.875 -4.390625 C 11.675781 -4.390625 12.195312 -4.578125 12.4375 -4.953125 C 12.84375 -5.609375 13.078125 -6.28125 13.140625 -6.96875 C 13.203125 -7.65625 13.234375 -8.597656 13.234375 -9.796875 L 13.234375 -12.765625 L 19.109375 -12.765625 L 19.109375 -10.96875 C 19.109375 -7.914062 18.867188 -5.722656 18.390625 -4.390625 C 17.910156 -3.066406 17.359375 -2.101562 16.734375 -1.5 C 15.410156 -0.226562 13.4375 0.40625 10.8125 0.40625 Z M 8.4375 -19.890625 L 13.234375 -19.890625 L 13.234375 -24.1875 C 13.234375 -26.03125 13.085938 -27.347656 12.796875 -28.140625 C 12.503906 -28.941406 11.910156 -29.34375 11.015625 -29.34375 C 10.992188 -29.34375 10.984375 -29.34375 10.984375 -29.34375 C 9.429688 -29.34375 8.59375 -28.15625 8.46875 -25.78125 C 8.445312 -25.332031 8.4375 -24.75 8.4375 -24.03125 Z M 8.4375 -19.890625 "/></g></g></g><g fill="#302626" fill-opacity="0.502"><g transform="translate(134.155219, 287.827949)"><g><path d="M 1.84375 -25.78125 C 1.84375 -31.28125 4.488281 -34.03125 9.78125 -34.03125 C 12.40625 -34.03125 14.328125 -33.28125 15.546875 -31.78125 C 16.765625 -30.28125 17.375 -27.78125 17.375 -24.28125 L 17.375 -22.4375 L 12.0625 -22.4375 L 12.0625 -24.671875 C 12.0625 -26.191406 11.890625 -27.320312 11.546875 -28.0625 C 11.203125 -28.800781 10.628906 -29.171875 9.828125 -29.171875 C 9.023438 -29.171875 8.429688 -28.9375 8.046875 -28.46875 C 7.671875 -28.007812 7.484375 -27.21875 7.484375 -26.09375 C 7.484375 -24.320312 8.273438 -22.671875 9.859375 -21.140625 L 13.046875 -18.25 C 16.316406 -15.195312 17.953125 -11.84375 17.953125 -8.1875 C 17.953125 -5.3125 17.300781 -3.15625 16 -1.71875 C 14.707031 -0.289062 12.691406 0.421875 9.953125 0.421875 C 7.222656 0.421875 5.207031 -0.359375 3.90625 -1.921875 C 2.601562 -3.484375 1.953125 -5.988281 1.953125 -9.4375 L 1.953125 -11.609375 L 7.53125 -11.609375 L 7.53125 -8.90625 C 7.53125 -5.914062 8.296875 -4.421875 9.828125 -4.421875 C 10.628906 -4.421875 11.207031 -4.6875 11.5625 -5.21875 C 11.925781 -5.75 12.109375 -6.648438 12.109375 -7.921875 C 12.109375 -10.160156 11.078125 -12.238281 9.015625 -14.15625 C 8.953125 -14.207031 8.46875 -14.632812 7.5625 -15.4375 C 6.664062 -16.25 6.140625 -16.734375 5.984375 -16.890625 C 3.222656 -19.410156 1.84375 -22.375 1.84375 -25.78125 Z M 1.84375 -25.78125 "/></g></g></g><g fill="#302626" fill-opacity="0.502"><g transform="translate(154.189502, 287.827949)"><g><path d="M 9.078125 0.21875 C 6.984375 0.21875 5.578125 -0.175781 4.859375 -0.96875 C 4.148438 -1.769531 3.796875 -3.160156 3.796875 -5.140625 L 3.796875 -28.640625 L 1.046875 -28.640625 L 1.046875 -32.9375 L 3.796875 -32.9375 L 3.796875 -39.484375 L 9.734375 -39.484375 L 9.734375 -32.9375 L 13 -32.9375 L 13 -28.640625 L 9.734375 -28.640625 L 9.734375 -6.171875 C 9.734375 -5.378906 9.9375 -4.867188 10.34375 -4.640625 C 10.757812 -4.421875 11.6875 -4.3125 13.125 -4.3125 L 13.125 0.21875 Z M 9.078125 0.21875 "/></g></g></g><g fill="#302626" fill-opacity="0.502"><g transform="translate(169.246773, 287.827949)"><g><path d="M 13.25 -18.25 C 11.363281 -17.414062 10.09375 -16.625 9.4375 -15.875 C 8.78125 -15.125 8.453125 -13.96875 8.453125 -12.40625 L 8.453125 -8.796875 C 8.453125 -7.222656 8.613281 -6.09375 8.9375 -5.40625 C 9.269531 -4.726562 9.804688 -4.390625 10.546875 -4.390625 C 11.285156 -4.390625 11.890625 -4.640625 12.359375 -5.140625 C 12.835938 -5.640625 13.132812 -6.207031 13.25 -6.84375 Z M 8.5625 0.34375 C 6.363281 0.34375 4.789062 -0.441406 3.84375 -2.015625 C 2.90625 -3.597656 2.425781 -5.867188 2.40625 -8.828125 L 2.40625 -10.984375 C 2.40625 -13.859375 3.179688 -16.035156 4.734375 -17.515625 C 5.734375 -18.484375 7.429688 -19.425781 9.828125 -20.34375 C 10.253906 -20.5 10.851562 -20.71875 11.625 -21 C 12.394531 -21.289062 12.9375 -21.492188 13.25 -21.609375 L 13.25 -24.546875 C 13.25 -26.367188 13.117188 -27.601562 12.859375 -28.25 C 12.597656 -28.90625 12 -29.234375 11.0625 -29.234375 C 10.132812 -29.234375 9.507812 -28.890625 9.1875 -28.203125 C 8.875 -27.515625 8.71875 -26.359375 8.71875 -24.734375 L 8.71875 -23.234375 L 2.84375 -23.234375 L 2.84375 -24.234375 C 2.84375 -27.421875 3.4375 -29.847656 4.625 -31.515625 C 5.8125 -33.191406 7.921875 -34.03125 10.953125 -34.03125 C 13.984375 -34.03125 16.132812 -33.191406 17.40625 -31.515625 C 18.6875 -29.847656 19.328125 -27.34375 19.328125 -24 L 19.328125 0 L 13.34375 0 L 13.34375 -3.34375 C 13.039062 -2.3125 12.46875 -1.4375 11.625 -0.71875 C 10.78125 -0.0078125 9.757812 0.34375 8.5625 0.34375 Z M 8.5625 0.34375 "/></g></g></g><g fill="#302626" fill-opacity="0.502"><g transform="translate(191.836814, 287.827949)"><g><path d="M 8.71875 0.421875 C 4.726562 0.421875 2.734375 -2.257812 2.734375 -7.625 L 2.734375 -33.640625 L 8.703125 -33.640625 L 8.703125 -8.546875 C 8.703125 -7.148438 8.875 -6.117188 9.21875 -5.453125 C 9.5625 -4.796875 10.203125 -4.46875 11.140625 -4.46875 C 12.953125 -4.46875 13.859375 -5.8125 13.859375 -8.5 L 13.875 -33.640625 L 19.796875 -33.640625 L 19.796875 0 L 13.859375 0 L 13.859375 -3.5 C 12.910156 -0.882812 11.195312 0.421875 8.71875 0.421875 Z M 8.71875 0.421875 "/></g></g></g><g fill="#302626" fill-opacity="0.502"><g transform="translate(215.1891, 287.827949)"><g><path d="M 14.671875 -34.03125 C 14.722656 -34.03125 14.75 -32.773438 14.75 -30.265625 L 14.734375 -29.015625 C 13.535156 -29.015625 12.359375 -28.8125 11.203125 -28.40625 C 10.054688 -28 9.304688 -27.425781 8.953125 -26.6875 L 8.953125 0 L 2.953125 0 L 2.953125 -33.640625 L 8.953125 -33.640625 L 8.953125 -29.890625 C 9.335938 -31.203125 10.019531 -32.21875 11 -32.9375 C 11.976562 -33.664062 13.203125 -34.03125 14.671875 -34.03125 Z M 14.671875 -34.03125 "/></g></g></g><g fill="#302626" fill-opacity="0.502"><g transform="translate(231.210392, 287.827949)"><g><path d="M 13.25 -18.25 C 11.363281 -17.414062 10.09375 -16.625 9.4375 -15.875 C 8.78125 -15.125 8.453125 -13.96875 8.453125 -12.40625 L 8.453125 -8.796875 C 8.453125 -7.222656 8.613281 -6.09375 8.9375 -5.40625 C 9.269531 -4.726562 9.804688 -4.390625 10.546875 -4.390625 C 11.285156 -4.390625 11.890625 -4.640625 12.359375 -5.140625 C 12.835938 -5.640625 13.132812 -6.207031 13.25 -6.84375 Z M 8.5625 0.34375 C 6.363281 0.34375 4.789062 -0.441406 3.84375 -2.015625 C 2.90625 -3.597656 2.425781 -5.867188 2.40625 -8.828125 L 2.40625 -10.984375 C 2.40625 -13.859375 3.179688 -16.035156 4.734375 -17.515625 C 5.734375 -18.484375 7.429688 -19.425781 9.828125 -20.34375 C 10.253906 -20.5 10.851562 -20.71875 11.625 -21 C 12.394531 -21.289062 12.9375 -21.492188 13.25 -21.609375 L 13.25 -24.546875 C 13.25 -26.367188 13.117188 -27.601562 12.859375 -28.25 C 12.597656 -28.90625 12 -29.234375 11.0625 -29.234375 C 10.132812 -29.234375 9.507812 -28.890625 9.1875 -28.203125 C 8.875 -27.515625 8.71875 -26.359375 8.71875 -24.734375 L 8.71875 -23.234375 L 2.84375 -23.234375 L 2.84375 -24.234375 C 2.84375 -27.421875 3.4375 -29.847656 4.625 -31.515625 C 5.8125 -33.191406 7.921875 -34.03125 10.953125 -34.03125 C 13.984375 -34.03125 16.132812 -33.191406 17.40625 -31.515625 C 18.6875 -29.847656 19.328125 -27.34375 19.328125 -24 L 19.328125 0 L 13.34375 0 L 13.34375 -3.34375 C 13.039062 -2.3125 12.46875 -1.4375 11.625 -0.71875 C 10.78125 -0.0078125 9.757812 0.34375 8.5625 0.34375 Z M 8.5625 0.34375 "/></g></g></g><g fill="#302626" fill-opacity="0.502"><g transform="translate(253.800433, 287.827949)"><g><path d="M 14.3125 -34.03125 C 18.195312 -34.03125 20.140625 -31.515625 20.140625 -26.484375 L 20.140625 0 L 14.1875 0 L 14.1875 -26.125 C 14.1875 -27.09375 13.96875 -27.851562 13.53125 -28.40625 C 13.09375 -28.957031 12.453125 -29.234375 11.609375 -29.234375 C 10.773438 -29.234375 10.113281 -28.875 9.625 -28.15625 C 9.144531 -27.445312 8.90625 -26.484375 8.90625 -25.265625 L 8.90625 0 L 2.953125 0 L 2.953125 -33.640625 L 8.90625 -33.640625 L 8.90625 -29.78125 C 9.195312 -30.976562 9.835938 -31.984375 10.828125 -32.796875 C 11.816406 -33.617188 12.976562 -34.03125 14.3125 -34.03125 Z M 14.3125 -34.03125 "/></g></g></g><g fill="#302626" fill-opacity="0.502"><g transform="translate(277.264825, 287.827949)"><g><path d="M 9.078125 0.21875 C 6.984375 0.21875 5.578125 -0.175781 4.859375 -0.96875 C 4.148438 -1.769531 3.796875 -3.160156 3.796875 -5.140625 L 3.796875 -28.640625 L 1.046875 -28.640625 L 1.046875 -32.9375 L 3.796875 -32.9375 L 3.796875 -39.484375 L 9.734375 -39.484375 L 9.734375 -32.9375 L 13 -32.9375 L 13 -28.640625 L 9.734375 -28.640625 L 9.734375 -6.171875 C 9.734375 -5.378906 9.9375 -4.867188 10.34375 -4.640625 C 10.757812 -4.421875 11.6875 -4.3125 13.125 -4.3125 L 13.125 0.21875 Z M 9.078125 0.21875 "/></g></g></g><g fill="#fff9f2" fill-opacity="1"><g transform="translate(85.968261, 286.033107)"><g><path d="M 10.890625 -18.546875 L 8.96875 -18.640625 L 8.96875 0 L 2.953125 0 L 2.953125 -39.46875 L 12.890625 -39.46875 C 14.953125 -39.46875 16.488281 -39.050781 17.5 -38.21875 C 18.519531 -37.382812 19.191406 -36.222656 19.515625 -34.734375 C 19.835938 -33.253906 20 -31.3125 20 -28.90625 C 20 -26.507812 19.742188 -24.679688 19.234375 -23.421875 C 18.722656 -22.171875 17.78125 -21.328125 16.40625 -20.890625 C 17.769531 -20.660156 18.71875 -19.742188 19.25 -18.140625 C 19.789062 -16.535156 20.0625 -13.203125 20.0625 -8.140625 C 20.0625 -3.085938 20.140625 -0.375 20.296875 0 L 14.28125 0 C 14.132812 -0.300781 14.0625 -5.019531 14.0625 -14.15625 C 14.0625 -15.894531 13.847656 -17.050781 13.421875 -17.625 C 13.003906 -18.207031 12.160156 -18.515625 10.890625 -18.546875 Z M 8.984375 -23.296875 L 11.390625 -23.296875 C 12.148438 -23.296875 12.710938 -23.46875 13.078125 -23.8125 C 13.453125 -24.15625 13.707031 -24.742188 13.84375 -25.578125 C 13.988281 -26.421875 14.0625 -27.703125 14.0625 -29.421875 L 14.0625 -29.671875 C 14.0625 -31.804688 13.878906 -33.203125 13.515625 -33.859375 C 13.160156 -34.515625 12.332031 -34.84375 11.03125 -34.84375 L 8.984375 -34.84375 Z M 8.984375 -23.296875 "/></g></g></g><g fill="#fff9f2" fill-opacity="1"><g transform="translate(109.208458, 286.033107)"><g><path d="M 10.8125 0.40625 C 7.03125 0.40625 4.59375 -1.035156 3.5 -3.921875 C 2.8125 -5.765625 2.46875 -8.1875 2.46875 -11.1875 L 2.46875 -23.71875 C 2.46875 -30.59375 5.328125 -34.03125 11.046875 -34.03125 C 14.097656 -34.03125 16.210938 -33.125 17.390625 -31.3125 C 18.566406 -29.507812 19.15625 -26.941406 19.15625 -23.609375 L 19.15625 -16.40625 L 8.453125 -16.40625 L 8.453125 -9.796875 C 8.453125 -7.460938 8.65625 -5.976562 9.0625 -5.34375 C 9.46875 -4.707031 10.070312 -4.390625 10.875 -4.390625 C 11.675781 -4.390625 12.195312 -4.578125 12.4375 -4.953125 C 12.84375 -5.609375 13.078125 -6.28125 13.140625 -6.96875 C 13.203125 -7.65625 13.234375 -8.597656 13.234375 -9.796875 L 13.234375 -12.765625 L 19.109375 -12.765625 L 19.109375 -10.96875 C 19.109375 -7.914062 18.867188 -5.722656 18.390625 -4.390625 C 17.910156 -3.066406 17.359375 -2.101562 16.734375 -1.5 C 15.410156 -0.226562 13.4375 0.40625 10.8125 0.40625 Z M 8.4375 -19.890625 L 13.234375 -19.890625 L 13.234375 -24.1875 C 13.234375 -26.03125 13.085938 -27.347656 12.796875 -28.140625 C 12.503906 -28.941406 11.910156 -29.34375 11.015625 -29.34375 C 10.992188 -29.34375 10.984375 -29.34375 10.984375 -29.34375 C 9.429688 -29.34375 8.59375 -28.15625 8.46875 -25.78125 C 8.445312 -25.332031 8.4375 -24.75 8.4375 -24.03125 Z M 8.4375 -19.890625 "/></g></g></g><g fill="#fff9f2" fill-opacity="1"><g transform="translate(131.282868, 286.033107)"><g><path d="M 1.84375 -25.78125 C 1.84375 -31.28125 4.488281 -34.03125 9.78125 -34.03125 C 12.40625 -34.03125 14.328125 -33.28125 15.546875 -31.78125 C 16.765625 -30.28125 17.375 -27.78125 17.375 -24.28125 L 17.375 -22.4375 L 12.0625 -22.4375 L 12.0625 -24.671875 C 12.0625 -26.191406 11.890625 -27.320312 11.546875 -28.0625 C 11.203125 -28.800781 10.628906 -29.171875 9.828125 -29.171875 C 9.023438 -29.171875 8.429688 -28.9375 8.046875 -28.46875 C 7.671875 -28.007812 7.484375 -27.21875 7.484375 -26.09375 C 7.484375 -24.320312 8.273438 -22.671875 9.859375 -21.140625 L 13.046875 -18.25 C 16.316406 -15.195312 17.953125 -11.84375 17.953125 -8.1875 C 17.953125 -5.3125 17.300781 -3.15625 16 -1.71875 C 14.707031 -0.289062 12.691406 0.421875 9.953125 0.421875 C 7.222656 0.421875 5.207031 -0.359375 3.90625 -1.921875 C 2.601562 -3.484375 1.953125 -5.988281 1.953125 -9.4375 L 1.953125 -11.609375 L 7.53125 -11.609375 L 7.53125 -8.90625 C 7.53125 -5.914062 8.296875 -4.421875 9.828125 -4.421875 C 10.628906 -4.421875 11.207031 -4.6875 11.5625 -5.21875 C 11.925781 -5.75 12.109375 -6.648438 12.109375 -7.921875 C 12.109375 -10.160156 11.078125 -12.238281 9.015625 -14.15625 C 8.953125 -14.207031 8.46875 -14.632812 7.5625 -15.4375 C 6.664062 -16.25 6.140625 -16.734375 5.984375 -16.890625 C 3.222656 -19.410156 1.84375 -22.375 1.84375 -25.78125 Z M 1.84375 -25.78125 "/></g></g></g><g fill="#fff9f2" fill-opacity="1"><g transform="translate(151.317151, 286.033107)"><g><path d="M 9.078125 0.21875 C 6.984375 0.21875 5.578125 -0.175781 4.859375 -0.96875 C 4.148438 -1.769531 3.796875 -3.160156 3.796875 -5.140625 L 3.796875 -28.640625 L 1.046875 -28.640625 L 1.046875 -32.9375 L 3.796875 -32.9375 L 3.796875 -39.484375 L 9.734375 -39.484375 L 9.734375 -32.9375 L 13 -32.9375 L 13 -28.640625 L 9.734375 -28.640625 L 9.734375 -6.171875 C 9.734375 -5.378906 9.9375 -4.867188 10.34375 -4.640625 C 10.757812 -4.421875 11.6875 -4.3125 13.125 -4.3125 L 13.125 0.21875 Z M 9.078125 0.21875 "/></g></g></g><g fill="#fff9f2" fill-opacity="1"><g transform="translate(166.374422, 286.033107)"><g><path d="M 13.25 -18.25 C 11.363281 -17.414062 10.09375 -16.625 9.4375 -15.875 C 8.78125 -15.125 8.453125 -13.96875 8.453125 -12.40625 L 8.453125 -8.796875 C 8.453125 -7.222656 8.613281 -6.09375 8.9375 -5.40625 C 9.269531 -4.726562 9.804688 -4.390625 10.546875 -4.390625 C 11.285156 -4.390625 11.890625 -4.640625 12.359375 -5.140625 C 12.835938 -5.640625 13.132812 -6.207031 13.25 -6.84375 Z M 8.5625 0.34375 C 6.363281 0.34375 4.789062 -0.441406 3.84375 -2.015625 C 2.90625 -3.597656 2.425781 -5.867188 2.40625 -8.828125 L 2.40625 -10.984375 C 2.40625 -13.859375 3.179688 -16.035156 4.734375 -17.515625 C 5.734375 -18.484375 7.429688 -19.425781 9.828125 -20.34375 C 10.253906 -20.5 10.851562 -20.71875 11.625 -21 C 12.394531 -21.289062 12.9375 -21.492188 13.25 -21.609375 L 13.25 -24.546875 C 13.25 -26.367188 13.117188 -27.601562 12.859375 -28.25 C 12.597656 -28.90625 12 -29.234375 11.0625 -29.234375 C 10.132812 -29.234375 9.507812 -28.890625 9.1875 -28.203125 C 8.875 -27.515625 8.71875 -26.359375 8.71875 -24.734375 L 8.71875 -23.234375 L 2.84375 -23.234375 L 2.84375 -24.234375 C 2.84375 -27.421875 3.4375 -29.847656 4.625 -31.515625 C 5.8125 -33.191406 7.921875 -34.03125 10.953125 -34.03125 C 13.984375 -34.03125 16.132812 -33.191406 17.40625 -31.515625 C 18.6875 -29.847656 19.328125 -27.34375 19.328125 -24 L 19.328125 0 L 13.34375 0 L 13.34375 -3.34375 C 13.039062 -2.3125 12.46875 -1.4375 11.625 -0.71875 C 10.78125 -0.0078125 9.757812 0.34375 8.5625 0.34375 Z M 8.5625 0.34375 "/></g></g></g><g fill="#fff9f2" fill-opacity="1"><g transform="translate(188.964463, 286.033107)"><g><path d="M 8.71875 0.421875 C 4.726562 0.421875 2.734375 -2.257812 2.734375 -7.625 L 2.734375 -33.640625 L 8.703125 -33.640625 L 8.703125 -8.546875 C 8.703125 -7.148438 8.875 -6.117188 9.21875 -5.453125 C 9.5625 -4.796875 10.203125 -4.46875 11.140625 -4.46875 C 12.953125 -4.46875 13.859375 -5.8125 13.859375 -8.5 L 13.875 -33.640625 L 19.796875 -33.640625 L 19.796875 0 L 13.859375 0 L 13.859375 -3.5 C 12.910156 -0.882812 11.195312 0.421875 8.71875 0.421875 Z M 8.71875 0.421875 "/></g></g></g><g fill="#fff9f2" fill-opacity="1"><g transform="translate(212.316749, 286.033107)"><g><path d="M 14.671875 -34.03125 C 14.722656 -34.03125 14.75 -32.773438 14.75 -30.265625 L 14.734375 -29.015625 C 13.535156 -29.015625 12.359375 -28.8125 11.203125 -28.40625 C 10.054688 -28 9.304688 -27.425781 8.953125 -26.6875 L 8.953125 0 L 2.953125 0 L 2.953125 -33.640625 L 8.953125 -33.640625 L 8.953125 -29.890625 C 9.335938 -31.203125 10.019531 -32.21875 11 -32.9375 C 11.976562 -33.664062 13.203125 -34.03125 14.671875 -34.03125 Z M 14.671875 -34.03125 "/></g></g></g><g fill="#fff9f2" fill-opacity="1"><g transform="translate(228.338041, 286.033107)"><g><path d="M 13.25 -18.25 C 11.363281 -17.414062 10.09375 -16.625 9.4375 -15.875 C 8.78125 -15.125 8.453125 -13.96875 8.453125 -12.40625 L 8.453125 -8.796875 C 8.453125 -7.222656 8.613281 -6.09375 8.9375 -5.40625 C 9.269531 -4.726562 9.804688 -4.390625 10.546875 -4.390625 C 11.285156 -4.390625 11.890625 -4.640625 12.359375 -5.140625 C 12.835938 -5.640625 13.132812 -6.207031 13.25 -6.84375 Z M 8.5625 0.34375 C 6.363281 0.34375 4.789062 -0.441406 3.84375 -2.015625 C 2.90625 -3.597656 2.425781 -5.867188 2.40625 -8.828125 L 2.40625 -10.984375 C 2.40625 -13.859375 3.179688 -16.035156 4.734375 -17.515625 C 5.734375 -18.484375 7.429688 -19.425781 9.828125 -20.34375 C 10.253906 -20.5 10.851562 -20.71875 11.625 -21 C 12.394531 -21.289062 12.9375 -21.492188 13.25 -21.609375 L 13.25 -24.546875 C 13.25 -26.367188 13.117188 -27.601562 12.859375 -28.25 C 12.597656 -28.90625 12 -29.234375 11.0625 -29.234375 C 10.132812 -29.234375 9.507812 -28.890625 9.1875 -28.203125 C 8.875 -27.515625 8.71875 -26.359375 8.71875 -24.734375 L 8.71875 -23.234375 L 2.84375 -23.234375 L 2.84375 -24.234375 C 2.84375 -27.421875 3.4375 -29.847656 4.625 -31.515625 C 5.8125 -33.191406 7.921875 -34.03125 10.953125 -34.03125 C 13.984375 -34.03125 16.132812 -33.191406 17.40625 -31.515625 C 18.6875 -29.847656 19.328125 -27.34375 19.328125 -24 L 19.328125 0 L 13.34375 0 L 13.34375 -3.34375 C 13.039062 -2.3125 12.46875 -1.4375 11.625 -0.71875 C 10.78125 -0.0078125 9.757812 0.34375 8.5625 0.34375 Z M 8.5625 0.34375 "/></g></g></g><g fill="#fff9f2" fill-opacity="1"><g transform="translate(250.928082, 286.033107)"><g><path d="M 14.3125 -34.03125 C 18.195312 -34.03125 20.140625 -31.515625 20.140625 -26.484375 L 20.140625 0 L 14.1875 0 L 14.1875 -26.125 C 14.1875 -27.09375 13.96875 -27.851562 13.53125 -28.40625 C 13.09375 -28.957031 12.453125 -29.234375 11.609375 -29.234375 C 10.773438 -29.234375 10.113281 -28.875 9.625 -28.15625 C 9.144531 -27.445312 8.90625 -26.484375 8.90625 -25.265625 L 8.90625 0 L 2.953125 0 L 2.953125 -33.640625 L 8.90625 -33.640625 L 8.90625 -29.78125 C 9.195312 -30.976562 9.835938 -31.984375 10.828125 -32.796875 C 11.816406 -33.617188 12.976562 -34.03125 14.3125 -34.03125 Z M 14.3125 -34.03125 "/></g></g></g><g fill="#fff9f2" fill-opacity="1"><g transform="translate(274.392474, 286.033107)"><g><path d="M 9.078125 0.21875 C 6.984375 0.21875 5.578125 -0.175781 4.859375 -0.96875 C 4.148438 -1.769531 3.796875 -3.160156 3.796875 -5.140625 L 3.796875 -28.640625 L 1.046875 -28.640625 L 1.046875 -32.9375 L 3.796875 -32.9375 L 3.796875 -39.484375 L 9.734375 -39.484375 L 9.734375 -32.9375 L 13 -32.9375 L 13 -28.640625 L 9.734375 -28.640625 L 9.734375 -6.171875 C 9.734375 -5.378906 9.9375 -4.867188 10.34375 -4.640625 C 10.757812 -4.421875 11.6875 -4.3125 13.125 -4.3125 L 13.125 0.21875 Z M 9.078125 0.21875 "/></g></g></g><g fill="#302626" fill-opacity="0.502"><g transform="translate(109.617954, 333.577946)"><g><path d="M 2.953125 0 L 2.953125 -39.46875 L 10.421875 -39.46875 L 16.03125 -10.625 L 21.296875 -39.46875 L 28.8125 -39.46875 L 28.8125 0 L 23.453125 0 L 23.453125 -14.703125 L 23.671875 -28.203125 L 18.359375 -0.171875 L 13.59375 -0.171875 L 8.046875 -28.203125 L 8.28125 -14.703125 L 8.28125 0 Z M 2.953125 0 "/></g></g></g><g fill="#302626" fill-opacity="0.502"><g transform="translate(142.005093, 333.577946)"><g><path d="M 13.25 -18.25 C 11.363281 -17.414062 10.09375 -16.625 9.4375 -15.875 C 8.78125 -15.125 8.453125 -13.96875 8.453125 -12.40625 L 8.453125 -8.796875 C 8.453125 -7.222656 8.613281 -6.09375 8.9375 -5.40625 C 9.269531 -4.726562 9.804688 -4.390625 10.546875 -4.390625 C 11.285156 -4.390625 11.890625 -4.640625 12.359375 -5.140625 C 12.835938 -5.640625 13.132812 -6.207031 13.25 -6.84375 Z M 8.5625 0.34375 C 6.363281 0.34375 4.789062 -0.441406 3.84375 -2.015625 C 2.90625 -3.597656 2.425781 -5.867188 2.40625 -8.828125 L 2.40625 -10.984375 C 2.40625 -13.859375 3.179688 -16.035156 4.734375 -17.515625 C 5.734375 -18.484375 7.429688 -19.425781 9.828125 -20.34375 C 10.253906 -20.5 10.851562 -20.71875 11.625 -21 C 12.394531 -21.289062 12.9375 -21.492188 13.25 -21.609375 L 13.25 -24.546875 C 13.25 -26.367188 13.117188 -27.601562 12.859375 -28.25 C 12.597656 -28.90625 12 -29.234375 11.0625 -29.234375 C 10.132812 -29.234375 9.507812 -28.890625 9.1875 -28.203125 C 8.875 -27.515625 8.71875 -26.359375 8.71875 -24.734375 L 8.71875 -23.234375 L 2.84375 -23.234375 L 2.84375 -24.234375 C 2.84375 -27.421875 3.4375 -29.847656 4.625 -31.515625 C 5.8125 -33.191406 7.921875 -34.03125 10.953125 -34.03125 C 13.984375 -34.03125 16.132812 -33.191406 17.40625 -31.515625 C 18.6875 -29.847656 19.328125 -27.34375 19.328125 -24 L 19.328125 0 L 13.34375 0 L 13.34375 -3.34375 C 13.039062 -2.3125 12.46875 -1.4375 11.625 -0.71875 C 10.78125 -0.0078125 9.757812 0.34375 8.5625 0.34375 Z M 8.5625 0.34375 "/></g></g></g><g fill="#302626" fill-opacity="0.502"><g transform="translate(164.595139, 333.577946)"><g><path d="M 14.3125 -34.03125 C 18.195312 -34.03125 20.140625 -31.515625 20.140625 -26.484375 L 20.140625 0 L 14.1875 0 L 14.1875 -26.125 C 14.1875 -27.09375 13.96875 -27.851562 13.53125 -28.40625 C 13.09375 -28.957031 12.453125 -29.234375 11.609375 -29.234375 C 10.773438 -29.234375 10.113281 -28.875 9.625 -28.15625 C 9.144531 -27.445312 8.90625 -26.484375 8.90625 -25.265625 L 8.90625 0 L 2.953125 0 L 2.953125 -33.640625 L 8.90625 -33.640625 L 8.90625 -29.78125 C 9.195312 -30.976562 9.835938 -31.984375 10.828125 -32.796875 C 11.816406 -33.617188 12.976562 -34.03125 14.3125 -34.03125 Z M 14.3125 -34.03125 "/></g></g></g><g fill="#302626" fill-opacity="0.502"><g transform="translate(188.059526, 333.577946)"><g><path d="M 13.25 -18.25 C 11.363281 -17.414062 10.09375 -16.625 9.4375 -15.875 C 8.78125 -15.125 8.453125 -13.96875 8.453125 -12.40625 L 8.453125 -8.796875 C 8.453125 -7.222656 8.613281 -6.09375 8.9375 -5.40625 C 9.269531 -4.726562 9.804688 -4.390625 10.546875 -4.390625 C 11.285156 -4.390625 11.890625 -4.640625 12.359375 -5.140625 C 12.835938 -5.640625 13.132812 -6.207031 13.25 -6.84375 Z M 8.5625 0.34375 C 6.363281 0.34375 4.789062 -0.441406 3.84375 -2.015625 C 2.90625 -3.597656 2.425781 -5.867188 2.40625 -8.828125 L 2.40625 -10.984375 C 2.40625 -13.859375 3.179688 -16.035156 4.734375 -17.515625 C 5.734375 -18.484375 7.429688 -19.425781 9.828125 -20.34375 C 10.253906 -20.5 10.851562 -20.71875 11.625 -21 C 12.394531 -21.289062 12.9375 -21.492188 13.25 -21.609375 L 13.25 -24.546875 C 13.25 -26.367188 13.117188 -27.601562 12.859375 -28.25 C 12.597656 -28.90625 12 -29.234375 11.0625 -29.234375 C 10.132812 -29.234375 9.507812 -28.890625 9.1875 -28.203125 C 8.875 -27.515625 8.71875 -26.359375 8.71875 -24.734375 L 8.71875 -23.234375 L 2.84375 -23.234375 L 2.84375 -24.234375 C 2.84375 -27.421875 3.4375 -29.847656 4.625 -31.515625 C 5.8125 -33.191406 7.921875 -34.03125 10.953125 -34.03125 C 13.984375 -34.03125 16.132812 -33.191406 17.40625 -31.515625 C 18.6875 -29.847656 19.328125 -27.34375 19.328125 -24 L 19.328125 0 L 13.34375 0 L 13.34375 -3.34375 C 13.039062 -2.3125 12.46875 -1.4375 11.625 -0.71875 C 10.78125 -0.0078125 9.757812 0.34375 8.5625 0.34375 Z M 8.5625 0.34375 "/></g></g></g><g fill="#302626" fill-opacity="0.502"><g transform="translate(210.649573, 333.577946)"><g><path d="M 19.390625 -4.140625 C 19.390625 -1.273438 18.691406 0.96875 17.296875 2.59375 C 15.898438 4.226562 13.535156 5.046875 10.203125 5.046875 C 6.878906 5.046875 4.226562 4.242188 2.25 2.640625 L 4.328125 -1.09375 C 6.109375 0.0390625 7.765625 0.609375 9.296875 0.609375 C 10.835938 0.609375 11.914062 0.222656 12.53125 -0.546875 C 13.144531 -1.328125 13.453125 -2.378906 13.453125 -3.703125 L 13.453125 -6.375 C 13.078125 -5.289062 12.503906 -4.53125 11.734375 -4.09375 C 10.960938 -3.65625 9.984375 -3.4375 8.796875 -3.4375 C 6.441406 -3.4375 4.8125 -4.304688 3.90625 -6.046875 C 3.007812 -7.796875 2.5625 -10.128906 2.5625 -13.046875 L 2.5625 -23.875 C 2.5625 -30.644531 4.679688 -34.03125 8.921875 -34.03125 C 8.953125 -34.03125 8.984375 -34.03125 9.015625 -34.03125 C 11.347656 -34.03125 12.828125 -32.90625 13.453125 -30.65625 L 13.453125 -33.640625 L 19.390625 -33.640625 Z M 8.546875 -13.3125 C 8.546875 -11.476562 8.71875 -10.125 9.0625 -9.25 C 9.414062 -8.375 10.050781 -7.9375 10.96875 -7.9375 C 11.894531 -7.9375 12.539062 -8.328125 12.90625 -9.109375 C 13.269531 -9.898438 13.453125 -11.316406 13.453125 -13.359375 L 13.453125 -24.375 C 13.453125 -25.945312 13.257812 -27.148438 12.875 -27.984375 C 12.5 -28.816406 11.820312 -29.234375 10.84375 -29.234375 C 9.875 -29.234375 9.25 -28.800781 8.96875 -27.9375 C 8.6875 -27.082031 8.546875 -25.898438 8.546875 -24.390625 Z M 8.546875 -13.3125 "/></g></g></g><g fill="#302626" fill-opacity="0.502"><g transform="translate(233.441395, 333.577946)"><g><path d="M 10.8125 0.40625 C 7.03125 0.40625 4.59375 -1.035156 3.5 -3.921875 C 2.8125 -5.765625 2.46875 -8.1875 2.46875 -11.1875 L 2.46875 -23.71875 C 2.46875 -30.59375 5.328125 -34.03125 11.046875 -34.03125 C 14.097656 -34.03125 16.210938 -33.125 17.390625 -31.3125 C 18.566406 -29.507812 19.15625 -26.941406 19.15625 -23.609375 L 19.15625 -16.40625 L 8.453125 -16.40625 L 8.453125 -9.796875 C 8.453125 -7.460938 8.65625 -5.976562 9.0625 -5.34375 C 9.46875 -4.707031 10.070312 -4.390625 10.875 -4.390625 C 11.675781 -4.390625 12.195312 -4.578125 12.4375 -4.953125 C 12.84375 -5.609375 13.078125 -6.28125 13.140625 -6.96875 C 13.203125 -7.65625 13.234375 -8.597656 13.234375 -9.796875 L 13.234375 -12.765625 L 19.109375 -12.765625 L 19.109375 -10.96875 C 19.109375 -7.914062 18.867188 -5.722656 18.390625 -4.390625 C 17.910156 -3.066406 17.359375 -2.101562 16.734375 -1.5 C 15.410156 -0.226562 13.4375 0.40625 10.8125 0.40625 Z M 8.4375 -19.890625 L 13.234375 -19.890625 L 13.234375 -24.1875 C 13.234375 -26.03125 13.085938 -27.347656 12.796875 -28.140625 C 12.503906 -28.941406 11.910156 -29.34375 11.015625 -29.34375 C 10.992188 -29.34375 10.984375 -29.34375 10.984375 -29.34375 C 9.429688 -29.34375 8.59375 -28.15625 8.46875 -25.78125 C 8.445312 -25.332031 8.4375 -24.75 8.4375 -24.03125 Z M 8.4375 -19.890625 "/></g></g></g><g fill="#302626" fill-opacity="0.502"><g transform="translate(255.515811, 333.577946)"><g><path d="M 14.671875 -34.03125 C 14.722656 -34.03125 14.75 -32.773438 14.75 -30.265625 L 14.734375 -29.015625 C 13.535156 -29.015625 12.359375 -28.8125 11.203125 -28.40625 C 10.054688 -28 9.304688 -27.425781 8.953125 -26.6875 L 8.953125 0 L 2.953125 0 L 2.953125 -33.640625 L 8.953125 -33.640625 L 8.953125 -29.890625 C 9.335938 -31.203125 10.019531 -32.21875 11 -32.9375 C 11.976562 -33.664062 13.203125 -34.03125 14.671875 -34.03125 Z M 14.671875 -34.03125 "/></g></g></g><g fill="#fff9f2" fill-opacity="1"><g transform="translate(106.745603, 331.783104)"><g><path d="M 2.953125 0 L 2.953125 -39.46875 L 10.421875 -39.46875 L 16.03125 -10.625 L 21.296875 -39.46875 L 28.8125 -39.46875 L 28.8125 0 L 23.453125 0 L 23.453125 -14.703125 L 23.671875 -28.203125 L 18.359375 -0.171875 L 13.59375 -0.171875 L 8.046875 -28.203125 L 8.28125 -14.703125 L 8.28125 0 Z M 2.953125 0 "/></g></g></g><g fill="#fff9f2" fill-opacity="1"><g transform="translate(139.132742, 331.783104)"><g><path d="M 13.25 -18.25 C 11.363281 -17.414062 10.09375 -16.625 9.4375 -15.875 C 8.78125 -15.125 8.453125 -13.96875 8.453125 -12.40625 L 8.453125 -8.796875 C 8.453125 -7.222656 8.613281 -6.09375 8.9375 -5.40625 C 9.269531 -4.726562 9.804688 -4.390625 10.546875 -4.390625 C 11.285156 -4.390625 11.890625 -4.640625 12.359375 -5.140625 C 12.835938 -5.640625 13.132812 -6.207031 13.25 -6.84375 Z M 8.5625 0.34375 C 6.363281 0.34375 4.789062 -0.441406 3.84375 -2.015625 C 2.90625 -3.597656 2.425781 -5.867188 2.40625 -8.828125 L 2.40625 -10.984375 C 2.40625 -13.859375 3.179688 -16.035156 4.734375 -17.515625 C 5.734375 -18.484375 7.429688 -19.425781 9.828125 -20.34375 C 10.253906 -20.5 10.851562 -20.71875 11.625 -21 C 12.394531 -21.289062 12.9375 -21.492188 13.25 -21.609375 L 13.25 -24.546875 C 13.25 -26.367188 13.117188 -27.601562 12.859375 -28.25 C 12.597656 -28.90625 12 -29.234375 11.0625 -29.234375 C 10.132812 -29.234375 9.507812 -28.890625 9.1875 -28.203125 C 8.875 -27.515625 8.71875 -26.359375 8.71875 -24.734375 L 8.71875 -23.234375 L 2.84375 -23.234375 L 2.84375 -24.234375 C 2.84375 -27.421875 3.4375 -29.847656 4.625 -31.515625 C 5.8125 -33.191406 7.921875 -34.03125 10.953125 -34.03125 C 13.984375 -34.03125 16.132812 -33.191406 17.40625 -31.515625 C 18.6875 -29.847656 19.328125 -27.34375 19.328125 -24 L 19.328125 0 L 13.34375 0 L 13.34375 -3.34375 C 13.039062 -2.3125 12.46875 -1.4375 11.625 -0.71875 C 10.78125 -0.0078125 9.757812 0.34375 8.5625 0.34375 Z M 8.5625 0.34375 "/></g></g></g><g fill="#fff9f2" fill-opacity="1"><g transform="translate(161.722788, 331.783104)"><g><path d="M 14.3125 -34.03125 C 18.195312 -34.03125 20.140625 -31.515625 20.140625 -26.484375 L 20.140625 0 L 14.1875 0 L 14.1875 -26.125 C 14.1875 -27.09375 13.96875 -27.851562 13.53125 -28.40625 C 13.09375 -28.957031 12.453125 -29.234375 11.609375 -29.234375 C 10.773438 -29.234375 10.113281 -28.875 9.625 -28.15625 C 9.144531 -27.445312 8.90625 -26.484375 8.90625 -25.265625 L 8.90625 0 L 2.953125 0 L 2.953125 -33.640625 L 8.90625 -33.640625 L 8.90625 -29.78125 C 9.195312 -30.976562 9.835938 -31.984375 10.828125 -32.796875 C 11.816406 -33.617188 12.976562 -34.03125 14.3125 -34.03125 Z M 14.3125 -34.03125 "/></g></g></g><g fill="#fff9f2" fill-opacity="1"><g transform="translate(185.187175, 331.783104)"><g><path d="M 13.25 -18.25 C 11.363281 -17.414062 10.09375 -16.625 9.4375 -15.875 C 8.78125 -15.125 8.453125 -13.96875 8.453125 -12.40625 L 8.453125 -8.796875 C 8.453125 -7.222656 8.613281 -6.09375 8.9375 -5.40625 C 9.269531 -4.726562 9.804688 -4.390625 10.546875 -4.390625 C 11.285156 -4.390625 11.890625 -4.640625 12.359375 -5.140625 C 12.835938 -5.640625 13.132812 -6.207031 13.25 -6.84375 Z M 8.5625 0.34375 C 6.363281 0.34375 4.789062 -0.441406 3.84375 -2.015625 C 2.90625 -3.597656 2.425781 -5.867188 2.40625 -8.828125 L 2.40625 -10.984375 C 2.40625 -13.859375 3.179688 -16.035156 4.734375 -17.515625 C 5.734375 -18.484375 7.429688 -19.425781 9.828125 -20.34375 C 10.253906 -20.5 10.851562 -20.71875 11.625 -21 C 12.394531 -21.289062 12.9375 -21.492188 13.25 -21.609375 L 13.25 -24.546875 C 13.25 -26.367188 13.117188 -27.601562 12.859375 -28.25 C 12.597656 -28.90625 12 -29.234375 11.0625 -29.234375 C 10.132812 -29.234375 9.507812 -28.890625 9.1875 -28.203125 C 8.875 -27.515625 8.71875 -26.359375 8.71875 -24.734375 L 8.71875 -23.234375 L 2.84375 -23.234375 L 2.84375 -24.234375 C 2.84375 -27.421875 3.4375 -29.847656 4.625 -31.515625 C 5.8125 -33.191406 7.921875 -34.03125 10.953125 -34.03125 C 13.984375 -34.03125 16.132812 -33.191406 17.40625 -31.515625 C 18.6875 -29.847656 19.328125 -27.34375 19.328125 -24 L 19.328125 0 L 13.34375 0 L 13.34375 -3.34375 C 13.039062 -2.3125 12.46875 -1.4375 11.625 -0.71875 C 10.78125 -0.0078125 9.757812 0.34375 8.5625 0.34375 Z M 8.5625 0.34375 "/></g></g></g><g fill="#fff9f2" fill-opacity="1"><g transform="translate(207.777222, 331.783104)"><g><path d="M 19.390625 -4.140625 C 19.390625 -1.273438 18.691406 0.96875 17.296875 2.59375 C 15.898438 4.226562 13.535156 5.046875 10.203125 5.046875 C 6.878906 5.046875 4.226562 4.242188 2.25 2.640625 L 4.328125 -1.09375 C 6.109375 0.0390625 7.765625 0.609375 9.296875 0.609375 C 10.835938 0.609375 11.914062 0.222656 12.53125 -0.546875 C 13.144531 -1.328125 13.453125 -2.378906 13.453125 -3.703125 L 13.453125 -6.375 C 13.078125 -5.289062 12.503906 -4.53125 11.734375 -4.09375 C 10.960938 -3.65625 9.984375 -3.4375 8.796875 -3.4375 C 6.441406 -3.4375 4.8125 -4.304688 3.90625 -6.046875 C 3.007812 -7.796875 2.5625 -10.128906 2.5625 -13.046875 L 2.5625 -23.875 C 2.5625 -30.644531 4.679688 -34.03125 8.921875 -34.03125 C 8.953125 -34.03125 8.984375 -34.03125 9.015625 -34.03125 C 11.347656 -34.03125 12.828125 -32.90625 13.453125 -30.65625 L 13.453125 -33.640625 L 19.390625 -33.640625 Z M 8.546875 -13.3125 C 8.546875 -11.476562 8.71875 -10.125 9.0625 -9.25 C 9.414062 -8.375 10.050781 -7.9375 10.96875 -7.9375 C 11.894531 -7.9375 12.539062 -8.328125 12.90625 -9.109375 C 13.269531 -9.898438 13.453125 -11.316406 13.453125 -13.359375 L 13.453125 -24.375 C 13.453125 -25.945312 13.257812 -27.148438 12.875 -27.984375 C 12.5 -28.816406 11.820312 -29.234375 10.84375 -29.234375 C 9.875 -29.234375 9.25 -28.800781 8.96875 -27.9375 C 8.6875 -27.082031 8.546875 -25.898438 8.546875 -24.390625 Z M 8.546875 -13.3125 "/></g></g></g><g fill="#fff9f2" fill-opacity="1"><g transform="translate(230.569044, 331.783104)"><g><path d="M 10.8125 0.40625 C 7.03125 0.40625 4.59375 -1.035156 3.5 -3.921875 C 2.8125 -5.765625 2.46875 -8.1875 2.46875 -11.1875 L 2.46875 -23.71875 C 2.46875 -30.59375 5.328125 -34.03125 11.046875 -34.03125 C 14.097656 -34.03125 16.210938 -33.125 17.390625 -31.3125 C 18.566406 -29.507812 19.15625 -26.941406 19.15625 -23.609375 L 19.15625 -16.40625 L 8.453125 -16.40625 L 8.453125 -9.796875 C 8.453125 -7.460938 8.65625 -5.976562 9.0625 -5.34375 C 9.46875 -4.707031 10.070312 -4.390625 10.875 -4.390625 C 11.675781 -4.390625 12.195312 -4.578125 12.4375 -4.953125 C 12.84375 -5.609375 13.078125 -6.28125 13.140625 -6.96875 C 13.203125 -7.65625 13.234375 -8.597656 13.234375 -9.796875 L 13.234375 -12.765625 L 19.109375 -12.765625 L 19.109375 -10.96875 C 19.109375 -7.914062 18.867188 -5.722656 18.390625 -4.390625 C 17.910156 -3.066406 17.359375 -2.101562 16.734375 -1.5 C 15.410156 -0.226562 13.4375 0.40625 10.8125 0.40625 Z M 8.4375 -19.890625 L 13.234375 -19.890625 L 13.234375 -24.1875 C 13.234375 -26.03125 13.085938 -27.347656 12.796875 -28.140625 C 12.503906 -28.941406 11.910156 -29.34375 11.015625 -29.34375 C 10.992188 -29.34375 10.984375 -29.34375 10.984375 -29.34375 C 9.429688 -29.34375 8.59375 -28.15625 8.46875 -25.78125 C 8.445312 -25.332031 8.4375 -24.75 8.4375 -24.03125 Z M 8.4375 -19.890625 "/></g></g></g><g fill="#fff9f2" fill-opacity="1"><g transform="translate(252.64346, 331.783104)"><g><path d="M 14.671875 -34.03125 C 14.722656 -34.03125 14.75 -32.773438 14.75 -30.265625 L 14.734375 -29.015625 C 13.535156 -29.015625 12.359375 -28.8125 11.203125 -28.40625 C 10.054688 -28 9.304688 -27.425781 8.953125 -26.6875 L 8.953125 0 L 2.953125 0 L 2.953125 -33.640625 L 8.953125 -33.640625 L 8.953125 -29.890625 C 9.335938 -31.203125 10.019531 -32.21875 11 -32.9375 C 11.976562 -33.664062 13.203125 -34.03125 14.671875 -34.03125 Z M 14.671875 -34.03125 "/></g></g></g><path stroke-linecap="butt" transform="matrix(0.000000000000000046, 0.750564, -0.75, 0.000000000000000046, 44.555099, 31.242185)" fill="none" stroke-linejoin="miter" d="M 0.00000281331 1.000549 L 415.703166 1.000549 " stroke="#fff9f2" stroke-width="2" stroke-opacity="1" stroke-miterlimit="4"/><g clip-path="url(#4f90a8d5a6)"><path fill="#fff9f2" d="M 136.15625 216.5 C 135.425781 223.429688 137.175781 229.667969 140.8125 232.867188 C 142.042969 233.945312 145.484375 235.90625 147.890625 236.660156 C 150.835938 237.601562 153.929688 238.046875 157.222656 237.96875 C 165.378906 237.8125 175.152344 234.347656 180.980469 229.34375 L 186.328125 224.222656 C 186.886719 224.683594 186.636719 224.414062 187.210938 225.105469 C 187.578125 225.53125 187.425781 225.394531 187.769531 225.859375 C 193.023438 232.539062 206.277344 237.777344 215.414062 237.96875 C 221.609375 238.101562 227.246094 236.792969 231.691406 232.710938 C 235.847656 228.878906 237.347656 224.046875 236.539062 216.421875 C 235.480469 219.542969 235.828125 221.3125 233.519531 223.238281 C 224.167969 231.015625 208.257812 211.746094 199.738281 209.933594 C 191.292969 208.144531 187.347656 215.613281 186.328125 216.441406 C 184.367188 214.171875 184.058594 213.054688 181.382812 211.378906 C 175.9375 207.972656 171.070312 210.089844 166.128906 213.167969 C 163.78125 214.652344 162.683594 215.84375 160.492188 217.519531 C 158.472656 219.0625 156.605469 220.101562 154.507812 221.507812 C 152.738281 222.699219 149.832031 224.027344 147.542969 224.546875 C 144.464844 225.242188 141.117188 224.875 139.175781 223.199219 C 137.117188 221.429688 137.097656 219.523438 136.15625 216.5 Z M 136.15625 216.5 " fill-opacity="1" fill-rule="evenodd"/></g><g clip-path="url(#27e86d0b61)"><path fill="#fff9f2" d="M 232.921875 154.273438 C 230.613281 161.707031 229.421875 168.808594 229.363281 175.550781 C 229.304688 183 230.613281 190.066406 233.324219 196.765625 L 237.078125 206.027344 L 227.34375 203.753906 C 214.050781 200.636719 200.429688 199.117188 186.519531 199.210938 C 172.554688 199.289062 158.222656 200.984375 143.523438 204.273438 L 135.539062 206.066406 L 137.347656 198.074219 C 139.195312 189.949219 140.082031 181.960938 140.003906 174.046875 C 139.867188 161.359375 134.710938 154.601562 140.332031 144.378906 C 131.132812 142.972656 123.707031 139.179688 118.304688 134.171875 C 113.339844 129.570312 110.070312 123.949219 108.683594 118.15625 C 107.242188 112.148438 107.800781 105.96875 110.570312 100.539062 C 114.878906 92.027344 124.402344 85.480469 139.792969 84.671875 C 148.238281 74.46875 157.433594 68.632812 167.398438 67.171875 C 177.226562 65.726562 187.5 68.597656 198.160156 75.777344 C 204.738281 73.371094 210.796875 72.773438 216.339844 74.007812 C 222.109375 75.296875 227.09375 78.472656 231.285156 83.535156 C 232.960938 83.671875 234.578125 83.863281 236.152344 84.113281 C 246.117188 85.65625 253.601562 89.390625 258.566406 95.300781 C 263.585938 101.269531 265.855469 109.164062 265.355469 118.980469 C 265.261719 121.042969 265.03125 123.21875 264.664062 125.507812 L 264.566406 126.027344 C 262.472656 133.921875 258.449219 140.316406 252.488281 145.207031 C 247.351562 149.402344 240.828125 152.425781 232.941406 154.273438 Z M 219.011719 175.472656 C 219.089844 166.769531 220.761719 157.644531 224.054688 148.132812 L 225.035156 145.28125 L 228.015625 144.722656 C 235.519531 143.320312 241.484375 140.816406 245.90625 137.175781 C 250.101562 133.730469 252.96875 129.207031 254.488281 123.582031 C 254.757812 121.832031 254.910156 120.136719 255.007812 118.5 C 255.351562 111.359375 253.910156 105.832031 250.640625 101.960938 C 247.332031 98.035156 241.984375 95.492188 234.558594 94.335938 C 232.652344 94.050781 230.59375 93.835938 228.363281 93.722656 L 225.863281 93.605469 L 224.417969 91.605469 C 221.4375 87.484375 217.992188 85 214.105469 84.132812 C 210.027344 83.230469 205.160156 83.980469 199.542969 86.40625 L 196.851562 87.5625 L 194.445312 85.808594 C 185.210938 79.070312 176.707031 76.277344 168.878906 77.433594 C 161.050781 78.589844 153.566406 83.769531 146.410156 92.953125 L 144.890625 94.914062 L 142.386719 94.953125 C 130 95.109375 122.726562 99.480469 119.824219 105.214844 C 118.207031 108.414062 117.878906 112.128906 118.765625 115.765625 C 119.6875 119.617188 121.917969 123.429688 125.34375 126.585938 C 147.390625 146.976562 160.625 120.40625 172.457031 139.832031 C 169.457031 142.761719 164.148438 146.246094 158.375 149.074219 C 155.046875 150.710938 151.507812 152.175781 148.121094 153.195312 C 149.546875 160.050781 150.296875 166.960938 150.371094 173.96875 C 150.429688 180.132812 149.96875 186.332031 148.988281 192.570312 C 161.722656 190.164062 174.226562 188.910156 186.5 188.851562 C 198.199219 188.777344 209.664062 189.777344 220.878906 191.816406 C 219.589844 186.5625 218.992188 181.113281 219.03125 175.472656 Z M 219.011719 175.472656 " fill-opacity="1" fill-rule="nonzero"/></g><path fill="#fff9f2" d="M 163.550781 123.488281 L 161.78125 121.003906 C 161.722656 120.925781 161.644531 120.8125 161.589844 120.734375 C 159.03125 117.058594 158.277344 116.363281 154.796875 113.207031 C 153.855469 112.359375 155.605469 113.804688 153.738281 112.359375 L 152.929688 111.144531 C 152.316406 110.550781 152.179688 110.53125 151.429688 109.683594 C 150.160156 108.257812 149.988281 108.046875 148.582031 107.101562 C 149.101562 108.988281 153.144531 116.191406 154.429688 117.421875 C 155.296875 119.65625 156.644531 121.910156 158.105469 123.679688 L 159.355469 126.433594 C 161.722656 126.472656 162.492188 125.875 164.609375 125.625 C 164.398438 124.179688 164.953125 124.488281 163.550781 123.46875 Z M 163.550781 123.488281 " fill-opacity="1" fill-rule="evenodd"/><path fill="#fff9f2" d="M 221.476562 128.417969 C 222.300781 127.375 223.859375 125.664062 224.378906 124.488281 C 224.804688 124.179688 224.746094 124.507812 225.496094 123.566406 C 226.167969 122.71875 225.976562 122.8125 226.417969 121.734375 C 227.1875 121.371094 232.863281 113.707031 233.421875 112.1875 C 232.132812 112.898438 227.167969 116.441406 226.535156 117.578125 C 224.359375 118.980469 222.589844 120.234375 220.398438 122.253906 C 219.261719 123.3125 215.992188 126.492188 215.492188 128.417969 C 216.300781 128.820312 217.011719 129.050781 217.953125 129.4375 C 219.667969 130.128906 218.339844 129.9375 220.550781 130.1875 L 221.476562 128.4375 Z M 221.476562 128.417969 " fill-opacity="1" fill-rule="evenodd"/><path fill="#fff9f2" d="M 179.535156 123.3125 C 180.824219 123.566406 181.710938 124.007812 182.5 122.890625 L 181.789062 119.347656 L 177.441406 106.429688 C 176.515625 104.023438 173.496094 96.128906 171.417969 95.164062 L 175.457031 115.632812 L 177.476562 123.71875 C 177.652344 123.71875 178.515625 123.738281 178.671875 123.699219 C 179.824219 123.429688 178.824219 123.796875 179.554688 123.3125 Z M 179.535156 123.3125 " fill-opacity="1" fill-rule="evenodd"/><path fill="#fff9f2" d="M 204.507812 120.40625 L 212.375 97.628906 C 210.453125 98.246094 208.914062 101.171875 207.777344 103.058594 C 202.160156 112.417969 202.082031 113.9375 197.910156 123.699219 C 198.292969 124.566406 197.542969 124.449219 200.140625 124.855469 C 201.042969 124.988281 201.910156 125.085938 202.871094 125.238281 C 203.488281 123.429688 204.027344 121.621094 204.507812 120.386719 Z M 204.507812 120.40625 " fill-opacity="1" fill-rule="evenodd"/></svg>