<svg xmlns="http://www.w3.org/2000/svg" xmlns:xlink="http://www.w3.org/1999/xlink" width="150" zoomAndPan="magnify" viewBox="0 0 375 374.999991" height="150" preserveAspectRatio="xMidYMid meet" version="1.0"><defs><g/><clipPath id="7144434138"><path d="M 165 209.570312 L 266 209.570312 L 266 238 L 165 238 Z M 165 209.570312 " clip-rule="nonzero"/></clipPath><clipPath id="ab4635bce9"><path d="M 136.964844 66.789062 L 294.464844 66.789062 L 294.464844 207 L 136.964844 207 Z M 136.964844 66.789062 " clip-rule="nonzero"/></clipPath></defs><g fill="#302626" fill-opacity="1"><g transform="translate(24.524758, 173.15287)"><g><path d="M 0.25 -15.3125 L 5.296875 -15.3125 L 5.296875 -13.8125 L 3.71875 -13.8125 L 3.71875 0 L 1.9375 0 L 1.9375 -13.8125 L 0.25 -13.8125 Z M 0.25 -15.3125 "/></g></g></g><g fill="#302626" fill-opacity="1"><g transform="translate(29.441209, 173.15287)"><g><path d="M 5.5 -15.3125 L 7.3125 -15.3125 L 7.3125 0 L 5.5 0 L 5.5 -7.421875 L 3.046875 -7.421875 L 3.046875 0 L 1.25 0 L 1.25 -15.3125 L 3.046875 -15.3125 L 3.046875 -8.890625 L 5.5 -8.890625 Z M 5.5 -15.3125 "/></g></g></g><g fill="#302626" fill-opacity="1"><g transform="translate(37.375696, 173.15287)"><g><path d="M 1.390625 -15.3125 L 3.1875 -15.3125 L 3.1875 0 L 1.390625 0 Z M 1.390625 -15.3125 "/></g></g></g><g fill="#302626" fill-opacity="1"><g transform="translate(41.33542, 173.15287)"><g><path d="M 5.96875 -15.3125 L 7.5625 -15.3125 L 7.5625 0 L 6.25 0 L 2.8125 -10.5 L 2.90625 -6.640625 L 2.90625 0 L 1.25 0 L 1.25 -15.3125 L 2.609375 -15.3125 L 6.15625 -4.890625 L 5.96875 -9.3125 Z M 5.96875 -15.3125 "/></g></g></g><g fill="#302626" fill-opacity="1"><g transform="translate(49.530833, 173.15287)"><g><path d="M 5.78125 -15.3125 L 7.578125 -15.3125 L 4.734375 -7.75 L 7.78125 0 L 5.90625 0 L 3.0625 -7.328125 L 3.0625 0 L 1.25 0 L 1.25 -15.3125 L 3.046875 -15.3125 L 3.046875 -8.015625 Z M 5.78125 -15.3125 "/></g></g></g><g fill="#302626" fill-opacity="1"><g transform="translate(56.682543, 173.15287)"><g/></g></g><g fill="#302626" fill-opacity="1"><g transform="translate(60.433527, 173.15287)"><g><path d="M 1.078125 -11.15625 C 1.078125 -12.894531 1.390625 -14.085938 2.015625 -14.734375 C 2.503906 -15.242188 3.222656 -15.5 4.171875 -15.5 C 5.535156 -15.5 6.410156 -14.9375 6.796875 -13.8125 C 7.015625 -13.144531 7.125 -12.257812 7.125 -11.15625 L 7.125 -4.40625 C 7.125 -2.8125 6.898438 -1.648438 6.453125 -0.921875 C 6.015625 -0.191406 5.234375 0.171875 4.109375 0.171875 C 2.992188 0.171875 2.207031 -0.191406 1.75 -0.921875 C 1.300781 -1.648438 1.078125 -2.8125 1.078125 -4.40625 Z M 5.328125 -11.25 C 5.328125 -12.226562 5.25 -12.921875 5.09375 -13.328125 C 4.9375 -13.742188 4.617188 -13.953125 4.140625 -13.953125 C 3.671875 -13.953125 3.34375 -13.742188 3.15625 -13.328125 C 2.96875 -12.910156 2.875 -12.222656 2.875 -11.265625 L 2.875 -4.390625 C 2.875 -3.222656 2.953125 -2.425781 3.109375 -2 C 3.273438 -1.582031 3.601562 -1.375 4.09375 -1.375 C 4.59375 -1.375 4.921875 -1.585938 5.078125 -2.015625 C 5.242188 -2.441406 5.328125 -3.234375 5.328125 -4.390625 Z M 5.328125 -11.25 "/></g></g></g><g fill="#302626" fill-opacity="1"><g transform="translate(68.020113, 173.15287)"><g><path d="M 5.421875 -15.3125 L 7.203125 -15.3125 L 7.203125 -3.9375 C 7.203125 -2.5 6.976562 -1.453125 6.53125 -0.796875 C 6.082031 -0.140625 5.304688 0.1875 4.203125 0.1875 C 3.097656 0.1875 2.316406 -0.140625 1.859375 -0.796875 C 1.398438 -1.453125 1.171875 -2.5 1.171875 -3.9375 L 1.171875 -15.3125 L 2.96875 -15.3125 L 2.96875 -3.96875 C 2.96875 -2.945312 3.007812 -2.335938 3.09375 -2.140625 C 3.175781 -1.941406 3.265625 -1.785156 3.359375 -1.671875 C 3.515625 -1.453125 3.789062 -1.34375 4.1875 -1.34375 C 4.59375 -1.34375 4.890625 -1.460938 5.078125 -1.703125 C 5.273438 -1.941406 5.378906 -2.300781 5.390625 -2.78125 C 5.410156 -3.269531 5.421875 -3.664062 5.421875 -3.96875 Z M 5.421875 -15.3125 "/></g></g></g><g fill="#302626" fill-opacity="1"><g transform="translate(75.771954, 173.15287)"><g><path d="M 0.25 -15.3125 L 5.296875 -15.3125 L 5.296875 -13.8125 L 3.71875 -13.8125 L 3.71875 0 L 1.9375 0 L 1.9375 -13.8125 L 0.25 -13.8125 Z M 0.25 -15.3125 "/></g></g></g><g fill="#302626" fill-opacity="1"><g transform="translate(80.688404, 173.15287)"><g/></g></g><g fill="#302626" fill-opacity="1"><g transform="translate(84.439388, 173.15287)"><g><path d="M 1.078125 -11.15625 C 1.078125 -12.894531 1.390625 -14.085938 2.015625 -14.734375 C 2.503906 -15.242188 3.222656 -15.5 4.171875 -15.5 C 5.535156 -15.5 6.410156 -14.9375 6.796875 -13.8125 C 7.015625 -13.144531 7.125 -12.257812 7.125 -11.15625 L 7.125 -4.40625 C 7.125 -2.8125 6.898438 -1.648438 6.453125 -0.921875 C 6.015625 -0.191406 5.234375 0.171875 4.109375 0.171875 C 2.992188 0.171875 2.207031 -0.191406 1.75 -0.921875 C 1.300781 -1.648438 1.078125 -2.8125 1.078125 -4.40625 Z M 5.328125 -11.25 C 5.328125 -12.226562 5.25 -12.921875 5.09375 -13.328125 C 4.9375 -13.742188 4.617188 -13.953125 4.140625 -13.953125 C 3.671875 -13.953125 3.34375 -13.742188 3.15625 -13.328125 C 2.96875 -12.910156 2.875 -12.222656 2.875 -11.265625 L 2.875 -4.390625 C 2.875 -3.222656 2.953125 -2.425781 3.109375 -2 C 3.273438 -1.582031 3.601562 -1.375 4.09375 -1.375 C 4.59375 -1.375 4.921875 -1.585938 5.078125 -2.015625 C 5.242188 -2.441406 5.328125 -3.234375 5.328125 -4.390625 Z M 5.328125 -11.25 "/></g></g></g><g fill="#302626" fill-opacity="1"><g transform="translate(92.025973, 173.15287)"><g><path d="M 1.25 -15.3125 L 5.859375 -15.3125 L 5.859375 -13.796875 L 3.03125 -13.796875 L 3.03125 -8.96875 L 5.671875 -8.96875 L 5.671875 -7.4375 L 3.03125 -7.4375 L 3.03125 0 L 1.25 0 Z M 1.25 -15.3125 "/></g></g></g><g fill="#302626" fill-opacity="1"><g transform="translate(97.890452, 173.15287)"><g/></g></g><g fill="#302626" fill-opacity="1"><g transform="translate(101.641436, 173.15287)"><g><path d="M 0.25 -15.3125 L 5.296875 -15.3125 L 5.296875 -13.8125 L 3.71875 -13.8125 L 3.71875 0 L 1.9375 0 L 1.9375 -13.8125 L 0.25 -13.8125 Z M 0.25 -15.3125 "/></g></g></g><g fill="#302626" fill-opacity="1"><g transform="translate(106.557886, 173.15287)"><g><path d="M 5.5 -15.3125 L 7.3125 -15.3125 L 7.3125 0 L 5.5 0 L 5.5 -7.421875 L 3.046875 -7.421875 L 3.046875 0 L 1.25 0 L 1.25 -15.3125 L 3.046875 -15.3125 L 3.046875 -8.890625 L 5.5 -8.890625 Z M 5.5 -15.3125 "/></g></g></g><g fill="#302626" fill-opacity="1"><g transform="translate(114.492372, 173.15287)"><g><path d="M 1.25 -15.3125 L 5.828125 -15.3125 L 5.828125 -13.8125 L 3.046875 -13.8125 L 3.046875 -8.578125 L 5.671875 -8.578125 L 5.671875 -7.078125 L 3.046875 -7.078125 L 3.046875 -1.5 L 5.859375 -1.5 L 5.859375 0 L 1.25 0 Z M 1.25 -15.3125 "/></g></g></g><g fill="#302626" fill-opacity="1"><g transform="translate(59.716162, 188.902869)"><g><path d="M 1.390625 -15.3125 L 4.15625 -15.3125 C 5.3125 -15.3125 6.09375 -15.046875 6.5 -14.515625 C 6.914062 -13.992188 7.132812 -13.109375 7.15625 -11.859375 L 7.15625 -11.53125 C 7.15625 -10.632812 7.066406 -9.925781 6.890625 -9.40625 C 6.722656 -8.894531 6.425781 -8.519531 6 -8.28125 C 6.9375 -7.90625 7.40625 -6.679688 7.40625 -4.609375 L 7.40625 -4.28125 C 7.382812 -2.75 7.148438 -1.648438 6.703125 -0.984375 C 6.253906 -0.328125 5.484375 0 4.390625 0 L 1.390625 0 Z M 5.59375 -4.875 C 5.59375 -5.851562 5.507812 -6.539062 5.34375 -6.9375 C 5.1875 -7.332031 4.867188 -7.53125 4.390625 -7.53125 L 3.1875 -7.53125 L 3.1875 -1.453125 L 4.296875 -1.453125 C 4.804688 -1.453125 5.148438 -1.648438 5.328125 -2.046875 C 5.503906 -2.453125 5.59375 -3.21875 5.59375 -4.34375 Z M 5.359375 -11.84375 C 5.359375 -11.851562 5.359375 -11.867188 5.359375 -11.890625 C 5.359375 -12.910156 5.179688 -13.515625 4.828125 -13.703125 C 4.660156 -13.796875 4.410156 -13.84375 4.078125 -13.84375 L 3.1875 -13.84375 L 3.1875 -8.921875 L 4.203125 -8.921875 C 4.554688 -8.921875 4.804688 -8.972656 4.953125 -9.078125 C 5.097656 -9.191406 5.203125 -9.414062 5.265625 -9.75 C 5.328125 -10.09375 5.359375 -10.644531 5.359375 -11.40625 Z M 5.359375 -11.84375 "/></g></g></g><g fill="#302626" fill-opacity="1"><g transform="translate(67.372329, 188.902869)"><g><path d="M 1.078125 -11.15625 C 1.078125 -12.894531 1.390625 -14.085938 2.015625 -14.734375 C 2.503906 -15.242188 3.222656 -15.5 4.171875 -15.5 C 5.535156 -15.5 6.410156 -14.9375 6.796875 -13.8125 C 7.015625 -13.144531 7.125 -12.257812 7.125 -11.15625 L 7.125 -4.40625 C 7.125 -2.8125 6.898438 -1.648438 6.453125 -0.921875 C 6.015625 -0.191406 5.234375 0.171875 4.109375 0.171875 C 2.992188 0.171875 2.207031 -0.191406 1.75 -0.921875 C 1.300781 -1.648438 1.078125 -2.8125 1.078125 -4.40625 Z M 5.328125 -11.25 C 5.328125 -12.226562 5.25 -12.921875 5.09375 -13.328125 C 4.9375 -13.742188 4.617188 -13.953125 4.140625 -13.953125 C 3.671875 -13.953125 3.34375 -13.742188 3.15625 -13.328125 C 2.96875 -12.910156 2.875 -12.222656 2.875 -11.265625 L 2.875 -4.390625 C 2.875 -3.222656 2.953125 -2.425781 3.109375 -2 C 3.273438 -1.582031 3.601562 -1.375 4.09375 -1.375 C 4.59375 -1.375 4.921875 -1.585938 5.078125 -2.015625 C 5.242188 -2.441406 5.328125 -3.234375 5.328125 -4.390625 Z M 5.328125 -11.25 "/></g></g></g><g fill="#302626" fill-opacity="1"><g transform="translate(74.958915, 188.902869)"><g><path d="M 4.9375 -15.3125 L 6.546875 -15.3125 L 4.421875 -7.453125 L 6.625 0 L 5.046875 0 L 3.5 -5.28125 L 2.125 0 L 0.484375 0 L 2.671875 -8.109375 L 0.546875 -15.3125 L 2.125 -15.3125 L 3.625 -10.203125 Z M 4.9375 -15.3125 "/></g></g></g><g fill="#302626" fill-opacity="1"><g transform="translate(81.414826, 188.902869)"><g><path d="M 1.265625 -15.3125 L 3.3125 -15.3125 L 2.65625 -3.4375 L 1.9375 -3.4375 Z M 1.3125 -1.984375 L 3.25 -1.984375 L 3.25 0 L 1.3125 0 Z M 1.3125 -1.984375 "/></g></g></g><path stroke-linecap="butt" transform="matrix(0.749753, 0.00161252, -0.00161305, 0.749998, 72.112185, 31.236916)" fill="none" stroke-linejoin="miter" d="M -0.00159302 1.001827 L 383.124329 1.001012 " stroke="#302626" stroke-width="2" stroke-opacity="1" stroke-miterlimit="4"/><path stroke-linecap="butt" transform="matrix(0.000000000000000046, 0.750564, -0.75, 0.000000000000000046, 360.986143, 31.992185)" fill="none" stroke-linejoin="miter" d="M 0.00000287893 1.002358 L 415.703166 1.002358 " stroke="#302626" stroke-width="2" stroke-opacity="1" stroke-miterlimit="4"/><path stroke-linecap="butt" transform="matrix(0.750122, 0, 0, 0.75, 72.108962, 342.263063)" fill="none" stroke-linejoin="miter" d="M 0.000550357 0.998208 L 383.953687 0.998208 " stroke="#302626" stroke-width="2" stroke-opacity="1" stroke-miterlimit="4"/><path stroke-linecap="butt" transform="matrix(-0.00000000000000062, 0.75035, -0.75, -0.00000000000000062, 73.607152, 193.079973)" fill="none" stroke-linejoin="miter" d="M -0.00246275 1.002245 L 200.914215 1.002245 " stroke="#302626" stroke-width="2" stroke-opacity="1" stroke-miterlimit="4"/><g fill="#302626" fill-opacity="0.502"><g transform="translate(117.890805, 287.827949)"><g><path d="M 10.890625 -18.546875 L 8.96875 -18.640625 L 8.96875 0 L 2.953125 0 L 2.953125 -39.46875 L 12.890625 -39.46875 C 14.953125 -39.46875 16.488281 -39.050781 17.5 -38.21875 C 18.519531 -37.382812 19.191406 -36.222656 19.515625 -34.734375 C 19.835938 -33.253906 20 -31.3125 20 -28.90625 C 20 -26.507812 19.742188 -24.679688 19.234375 -23.421875 C 18.722656 -22.171875 17.78125 -21.328125 16.40625 -20.890625 C 17.769531 -20.660156 18.71875 -19.742188 19.25 -18.140625 C 19.789062 -16.535156 20.0625 -13.203125 20.0625 -8.140625 C 20.0625 -3.085938 20.140625 -0.375 20.296875 0 L 14.28125 0 C 14.132812 -0.300781 14.0625 -5.019531 14.0625 -14.15625 C 14.0625 -15.894531 13.847656 -17.050781 13.421875 -17.625 C 13.003906 -18.207031 12.160156 -18.515625 10.890625 -18.546875 Z M 8.984375 -23.296875 L 11.390625 -23.296875 C 12.148438 -23.296875 12.710938 -23.46875 13.078125 -23.8125 C 13.453125 -24.15625 13.707031 -24.742188 13.84375 -25.578125 C 13.988281 -26.421875 14.0625 -27.703125 14.0625 -29.421875 L 14.0625 -29.671875 C 14.0625 -31.804688 13.878906 -33.203125 13.515625 -33.859375 C 13.160156 -34.515625 12.332031 -34.84375 11.03125 -34.84375 L 8.984375 -34.84375 Z M 8.984375 -23.296875 "/></g></g></g><g fill="#302626" fill-opacity="0.502"><g transform="translate(141.131002, 287.827949)"><g><path d="M 10.8125 0.40625 C 7.03125 0.40625 4.59375 -1.035156 3.5 -3.921875 C 2.8125 -5.765625 2.46875 -8.1875 2.46875 -11.1875 L 2.46875 -23.71875 C 2.46875 -30.59375 5.328125 -34.03125 11.046875 -34.03125 C 14.097656 -34.03125 16.210938 -33.125 17.390625 -31.3125 C 18.566406 -29.507812 19.15625 -26.941406 19.15625 -23.609375 L 19.15625 -16.40625 L 8.453125 -16.40625 L 8.453125 -9.796875 C 8.453125 -7.460938 8.65625 -5.976562 9.0625 -5.34375 C 9.46875 -4.707031 10.070312 -4.390625 10.875 -4.390625 C 11.675781 -4.390625 12.195312 -4.578125 12.4375 -4.953125 C 12.84375 -5.609375 13.078125 -6.28125 13.140625 -6.96875 C 13.203125 -7.65625 13.234375 -8.597656 13.234375 -9.796875 L 13.234375 -12.765625 L 19.109375 -12.765625 L 19.109375 -10.96875 C 19.109375 -7.914062 18.867188 -5.722656 18.390625 -4.390625 C 17.910156 -3.066406 17.359375 -2.101562 16.734375 -1.5 C 15.410156 -0.226562 13.4375 0.40625 10.8125 0.40625 Z M 8.4375 -19.890625 L 13.234375 -19.890625 L 13.234375 -24.1875 C 13.234375 -26.03125 13.085938 -27.347656 12.796875 -28.140625 C 12.503906 -28.941406 11.910156 -29.34375 11.015625 -29.34375 C 10.992188 -29.34375 10.984375 -29.34375 10.984375 -29.34375 C 9.429688 -29.34375 8.59375 -28.15625 8.46875 -25.78125 C 8.445312 -25.332031 8.4375 -24.75 8.4375 -24.03125 Z M 8.4375 -19.890625 "/></g></g></g><g fill="#302626" fill-opacity="0.502"><g transform="translate(163.205412, 287.827949)"><g><path d="M 1.84375 -25.78125 C 1.84375 -31.28125 4.488281 -34.03125 9.78125 -34.03125 C 12.40625 -34.03125 14.328125 -33.28125 15.546875 -31.78125 C 16.765625 -30.28125 17.375 -27.78125 17.375 -24.28125 L 17.375 -22.4375 L 12.0625 -22.4375 L 12.0625 -24.671875 C 12.0625 -26.191406 11.890625 -27.320312 11.546875 -28.0625 C 11.203125 -28.800781 10.628906 -29.171875 9.828125 -29.171875 C 9.023438 -29.171875 8.429688 -28.9375 8.046875 -28.46875 C 7.671875 -28.007812 7.484375 -27.21875 7.484375 -26.09375 C 7.484375 -24.320312 8.273438 -22.671875 9.859375 -21.140625 L 13.046875 -18.25 C 16.316406 -15.195312 17.953125 -11.84375 17.953125 -8.1875 C 17.953125 -5.3125 17.300781 -3.15625 16 -1.71875 C 14.707031 -0.289062 12.691406 0.421875 9.953125 0.421875 C 7.222656 0.421875 5.207031 -0.359375 3.90625 -1.921875 C 2.601562 -3.484375 1.953125 -5.988281 1.953125 -9.4375 L 1.953125 -11.609375 L 7.53125 -11.609375 L 7.53125 -8.90625 C 7.53125 -5.914062 8.296875 -4.421875 9.828125 -4.421875 C 10.628906 -4.421875 11.207031 -4.6875 11.5625 -5.21875 C 11.925781 -5.75 12.109375 -6.648438 12.109375 -7.921875 C 12.109375 -10.160156 11.078125 -12.238281 9.015625 -14.15625 C 8.953125 -14.207031 8.46875 -14.632812 7.5625 -15.4375 C 6.664062 -16.25 6.140625 -16.734375 5.984375 -16.890625 C 3.222656 -19.410156 1.84375 -22.375 1.84375 -25.78125 Z M 1.84375 -25.78125 "/></g></g></g><g fill="#302626" fill-opacity="0.502"><g transform="translate(183.239695, 287.827949)"><g><path d="M 9.078125 0.21875 C 6.984375 0.21875 5.578125 -0.175781 4.859375 -0.96875 C 4.148438 -1.769531 3.796875 -3.160156 3.796875 -5.140625 L 3.796875 -28.640625 L 1.046875 -28.640625 L 1.046875 -32.9375 L 3.796875 -32.9375 L 3.796875 -39.484375 L 9.734375 -39.484375 L 9.734375 -32.9375 L 13 -32.9375 L 13 -28.640625 L 9.734375 -28.640625 L 9.734375 -6.171875 C 9.734375 -5.378906 9.9375 -4.867188 10.34375 -4.640625 C 10.757812 -4.421875 11.6875 -4.3125 13.125 -4.3125 L 13.125 0.21875 Z M 9.078125 0.21875 "/></g></g></g><g fill="#302626" fill-opacity="0.502"><g transform="translate(198.296967, 287.827949)"><g><path d="M 13.25 -18.25 C 11.363281 -17.414062 10.09375 -16.625 9.4375 -15.875 C 8.78125 -15.125 8.453125 -13.96875 8.453125 -12.40625 L 8.453125 -8.796875 C 8.453125 -7.222656 8.613281 -6.09375 8.9375 -5.40625 C 9.269531 -4.726562 9.804688 -4.390625 10.546875 -4.390625 C 11.285156 -4.390625 11.890625 -4.640625 12.359375 -5.140625 C 12.835938 -5.640625 13.132812 -6.207031 13.25 -6.84375 Z M 8.5625 0.34375 C 6.363281 0.34375 4.789062 -0.441406 3.84375 -2.015625 C 2.90625 -3.597656 2.425781 -5.867188 2.40625 -8.828125 L 2.40625 -10.984375 C 2.40625 -13.859375 3.179688 -16.035156 4.734375 -17.515625 C 5.734375 -18.484375 7.429688 -19.425781 9.828125 -20.34375 C 10.253906 -20.5 10.851562 -20.71875 11.625 -21 C 12.394531 -21.289062 12.9375 -21.492188 13.25 -21.609375 L 13.25 -24.546875 C 13.25 -26.367188 13.117188 -27.601562 12.859375 -28.25 C 12.597656 -28.90625 12 -29.234375 11.0625 -29.234375 C 10.132812 -29.234375 9.507812 -28.890625 9.1875 -28.203125 C 8.875 -27.515625 8.71875 -26.359375 8.71875 -24.734375 L 8.71875 -23.234375 L 2.84375 -23.234375 L 2.84375 -24.234375 C 2.84375 -27.421875 3.4375 -29.847656 4.625 -31.515625 C 5.8125 -33.191406 7.921875 -34.03125 10.953125 -34.03125 C 13.984375 -34.03125 16.132812 -33.191406 17.40625 -31.515625 C 18.6875 -29.847656 19.328125 -27.34375 19.328125 -24 L 19.328125 0 L 13.34375 0 L 13.34375 -3.34375 C 13.039062 -2.3125 12.46875 -1.4375 11.625 -0.71875 C 10.78125 -0.0078125 9.757812 0.34375 8.5625 0.34375 Z M 8.5625 0.34375 "/></g></g></g><g fill="#302626" fill-opacity="0.502"><g transform="translate(220.887007, 287.827949)"><g><path d="M 8.71875 0.421875 C 4.726562 0.421875 2.734375 -2.257812 2.734375 -7.625 L 2.734375 -33.640625 L 8.703125 -33.640625 L 8.703125 -8.546875 C 8.703125 -7.148438 8.875 -6.117188 9.21875 -5.453125 C 9.5625 -4.796875 10.203125 -4.46875 11.140625 -4.46875 C 12.953125 -4.46875 13.859375 -5.8125 13.859375 -8.5 L 13.875 -33.640625 L 19.796875 -33.640625 L 19.796875 0 L 13.859375 0 L 13.859375 -3.5 C 12.910156 -0.882812 11.195312 0.421875 8.71875 0.421875 Z M 8.71875 0.421875 "/></g></g></g><g fill="#302626" fill-opacity="0.502"><g transform="translate(244.239293, 287.827949)"><g><path d="M 14.671875 -34.03125 C 14.722656 -34.03125 14.75 -32.773438 14.75 -30.265625 L 14.734375 -29.015625 C 13.535156 -29.015625 12.359375 -28.8125 11.203125 -28.40625 C 10.054688 -28 9.304688 -27.425781 8.953125 -26.6875 L 8.953125 0 L 2.953125 0 L 2.953125 -33.640625 L 8.953125 -33.640625 L 8.953125 -29.890625 C 9.335938 -31.203125 10.019531 -32.21875 11 -32.9375 C 11.976562 -33.664062 13.203125 -34.03125 14.671875 -34.03125 Z M 14.671875 -34.03125 "/></g></g></g><g fill="#302626" fill-opacity="0.502"><g transform="translate(260.260586, 287.827949)"><g><path d="M 13.25 -18.25 C 11.363281 -17.414062 10.09375 -16.625 9.4375 -15.875 C 8.78125 -15.125 8.453125 -13.96875 8.453125 -12.40625 L 8.453125 -8.796875 C 8.453125 -7.222656 8.613281 -6.09375 8.9375 -5.40625 C 9.269531 -4.726562 9.804688 -4.390625 10.546875 -4.390625 C 11.285156 -4.390625 11.890625 -4.640625 12.359375 -5.140625 C 12.835938 -5.640625 13.132812 -6.207031 13.25 -6.84375 Z M 8.5625 0.34375 C 6.363281 0.34375 4.789062 -0.441406 3.84375 -2.015625 C 2.90625 -3.597656 2.425781 -5.867188 2.40625 -8.828125 L 2.40625 -10.984375 C 2.40625 -13.859375 3.179688 -16.035156 4.734375 -17.515625 C 5.734375 -18.484375 7.429688 -19.425781 9.828125 -20.34375 C 10.253906 -20.5 10.851562 -20.71875 11.625 -21 C 12.394531 -21.289062 12.9375 -21.492188 13.25 -21.609375 L 13.25 -24.546875 C 13.25 -26.367188 13.117188 -27.601562 12.859375 -28.25 C 12.597656 -28.90625 12 -29.234375 11.0625 -29.234375 C 10.132812 -29.234375 9.507812 -28.890625 9.1875 -28.203125 C 8.875 -27.515625 8.71875 -26.359375 8.71875 -24.734375 L 8.71875 -23.234375 L 2.84375 -23.234375 L 2.84375 -24.234375 C 2.84375 -27.421875 3.4375 -29.847656 4.625 -31.515625 C 5.8125 -33.191406 7.921875 -34.03125 10.953125 -34.03125 C 13.984375 -34.03125 16.132812 -33.191406 17.40625 -31.515625 C 18.6875 -29.847656 19.328125 -27.34375 19.328125 -24 L 19.328125 0 L 13.34375 0 L 13.34375 -3.34375 C 13.039062 -2.3125 12.46875 -1.4375 11.625 -0.71875 C 10.78125 -0.0078125 9.757812 0.34375 8.5625 0.34375 Z M 8.5625 0.34375 "/></g></g></g><g fill="#302626" fill-opacity="0.502"><g transform="translate(282.850626, 287.827949)"><g><path d="M 14.3125 -34.03125 C 18.195312 -34.03125 20.140625 -31.515625 20.140625 -26.484375 L 20.140625 0 L 14.1875 0 L 14.1875 -26.125 C 14.1875 -27.09375 13.96875 -27.851562 13.53125 -28.40625 C 13.09375 -28.957031 12.453125 -29.234375 11.609375 -29.234375 C 10.773438 -29.234375 10.113281 -28.875 9.625 -28.15625 C 9.144531 -27.445312 8.90625 -26.484375 8.90625 -25.265625 L 8.90625 0 L 2.953125 0 L 2.953125 -33.640625 L 8.90625 -33.640625 L 8.90625 -29.78125 C 9.195312 -30.976562 9.835938 -31.984375 10.828125 -32.796875 C 11.816406 -33.617188 12.976562 -34.03125 14.3125 -34.03125 Z M 14.3125 -34.03125 "/></g></g></g><g fill="#302626" fill-opacity="0.502"><g transform="translate(306.315018, 287.827949)"><g><path d="M 9.078125 0.21875 C 6.984375 0.21875 5.578125 -0.175781 4.859375 -0.96875 C 4.148438 -1.769531 3.796875 -3.160156 3.796875 -5.140625 L 3.796875 -28.640625 L 1.046875 -28.640625 L 1.046875 -32.9375 L 3.796875 -32.9375 L 3.796875 -39.484375 L 9.734375 -39.484375 L 9.734375 -32.9375 L 13 -32.9375 L 13 -28.640625 L 9.734375 -28.640625 L 9.734375 -6.171875 C 9.734375 -5.378906 9.9375 -4.867188 10.34375 -4.640625 C 10.757812 -4.421875 11.6875 -4.3125 13.125 -4.3125 L 13.125 0.21875 Z M 9.078125 0.21875 "/></g></g></g><g fill="#302626" fill-opacity="1"><g transform="translate(115.018459, 286.033107)"><g><path d="M 10.890625 -18.546875 L 8.96875 -18.640625 L 8.96875 0 L 2.953125 0 L 2.953125 -39.46875 L 12.890625 -39.46875 C 14.953125 -39.46875 16.488281 -39.050781 17.5 -38.21875 C 18.519531 -37.382812 19.191406 -36.222656 19.515625 -34.734375 C 19.835938 -33.253906 20 -31.3125 20 -28.90625 C 20 -26.507812 19.742188 -24.679688 19.234375 -23.421875 C 18.722656 -22.171875 17.78125 -21.328125 16.40625 -20.890625 C 17.769531 -20.660156 18.71875 -19.742188 19.25 -18.140625 C 19.789062 -16.535156 20.0625 -13.203125 20.0625 -8.140625 C 20.0625 -3.085938 20.140625 -0.375 20.296875 0 L 14.28125 0 C 14.132812 -0.300781 14.0625 -5.019531 14.0625 -14.15625 C 14.0625 -15.894531 13.847656 -17.050781 13.421875 -17.625 C 13.003906 -18.207031 12.160156 -18.515625 10.890625 -18.546875 Z M 8.984375 -23.296875 L 11.390625 -23.296875 C 12.148438 -23.296875 12.710938 -23.46875 13.078125 -23.8125 C 13.453125 -24.15625 13.707031 -24.742188 13.84375 -25.578125 C 13.988281 -26.421875 14.0625 -27.703125 14.0625 -29.421875 L 14.0625 -29.671875 C 14.0625 -31.804688 13.878906 -33.203125 13.515625 -33.859375 C 13.160156 -34.515625 12.332031 -34.84375 11.03125 -34.84375 L 8.984375 -34.84375 Z M 8.984375 -23.296875 "/></g></g></g><g fill="#302626" fill-opacity="1"><g transform="translate(138.258656, 286.033107)"><g><path d="M 10.8125 0.40625 C 7.03125 0.40625 4.59375 -1.035156 3.5 -3.921875 C 2.8125 -5.765625 2.46875 -8.1875 2.46875 -11.1875 L 2.46875 -23.71875 C 2.46875 -30.59375 5.328125 -34.03125 11.046875 -34.03125 C 14.097656 -34.03125 16.210938 -33.125 17.390625 -31.3125 C 18.566406 -29.507812 19.15625 -26.941406 19.15625 -23.609375 L 19.15625 -16.40625 L 8.453125 -16.40625 L 8.453125 -9.796875 C 8.453125 -7.460938 8.65625 -5.976562 9.0625 -5.34375 C 9.46875 -4.707031 10.070312 -4.390625 10.875 -4.390625 C 11.675781 -4.390625 12.195312 -4.578125 12.4375 -4.953125 C 12.84375 -5.609375 13.078125 -6.28125 13.140625 -6.96875 C 13.203125 -7.65625 13.234375 -8.597656 13.234375 -9.796875 L 13.234375 -12.765625 L 19.109375 -12.765625 L 19.109375 -10.96875 C 19.109375 -7.914062 18.867188 -5.722656 18.390625 -4.390625 C 17.910156 -3.066406 17.359375 -2.101562 16.734375 -1.5 C 15.410156 -0.226562 13.4375 0.40625 10.8125 0.40625 Z M 8.4375 -19.890625 L 13.234375 -19.890625 L 13.234375 -24.1875 C 13.234375 -26.03125 13.085938 -27.347656 12.796875 -28.140625 C 12.503906 -28.941406 11.910156 -29.34375 11.015625 -29.34375 C 10.992188 -29.34375 10.984375 -29.34375 10.984375 -29.34375 C 9.429688 -29.34375 8.59375 -28.15625 8.46875 -25.78125 C 8.445312 -25.332031 8.4375 -24.75 8.4375 -24.03125 Z M 8.4375 -19.890625 "/></g></g></g><g fill="#302626" fill-opacity="1"><g transform="translate(160.333066, 286.033107)"><g><path d="M 1.84375 -25.78125 C 1.84375 -31.28125 4.488281 -34.03125 9.78125 -34.03125 C 12.40625 -34.03125 14.328125 -33.28125 15.546875 -31.78125 C 16.765625 -30.28125 17.375 -27.78125 17.375 -24.28125 L 17.375 -22.4375 L 12.0625 -22.4375 L 12.0625 -24.671875 C 12.0625 -26.191406 11.890625 -27.320312 11.546875 -28.0625 C 11.203125 -28.800781 10.628906 -29.171875 9.828125 -29.171875 C 9.023438 -29.171875 8.429688 -28.9375 8.046875 -28.46875 C 7.671875 -28.007812 7.484375 -27.21875 7.484375 -26.09375 C 7.484375 -24.320312 8.273438 -22.671875 9.859375 -21.140625 L 13.046875 -18.25 C 16.316406 -15.195312 17.953125 -11.84375 17.953125 -8.1875 C 17.953125 -5.3125 17.300781 -3.15625 16 -1.71875 C 14.707031 -0.289062 12.691406 0.421875 9.953125 0.421875 C 7.222656 0.421875 5.207031 -0.359375 3.90625 -1.921875 C 2.601562 -3.484375 1.953125 -5.988281 1.953125 -9.4375 L 1.953125 -11.609375 L 7.53125 -11.609375 L 7.53125 -8.90625 C 7.53125 -5.914062 8.296875 -4.421875 9.828125 -4.421875 C 10.628906 -4.421875 11.207031 -4.6875 11.5625 -5.21875 C 11.925781 -5.75 12.109375 -6.648438 12.109375 -7.921875 C 12.109375 -10.160156 11.078125 -12.238281 9.015625 -14.15625 C 8.953125 -14.207031 8.46875 -14.632812 7.5625 -15.4375 C 6.664062 -16.25 6.140625 -16.734375 5.984375 -16.890625 C 3.222656 -19.410156 1.84375 -22.375 1.84375 -25.78125 Z M 1.84375 -25.78125 "/></g></g></g><g fill="#302626" fill-opacity="1"><g transform="translate(180.367349, 286.033107)"><g><path d="M 9.078125 0.21875 C 6.984375 0.21875 5.578125 -0.175781 4.859375 -0.96875 C 4.148438 -1.769531 3.796875 -3.160156 3.796875 -5.140625 L 3.796875 -28.640625 L 1.046875 -28.640625 L 1.046875 -32.9375 L 3.796875 -32.9375 L 3.796875 -39.484375 L 9.734375 -39.484375 L 9.734375 -32.9375 L 13 -32.9375 L 13 -28.640625 L 9.734375 -28.640625 L 9.734375 -6.171875 C 9.734375 -5.378906 9.9375 -4.867188 10.34375 -4.640625 C 10.757812 -4.421875 11.6875 -4.3125 13.125 -4.3125 L 13.125 0.21875 Z M 9.078125 0.21875 "/></g></g></g><g fill="#302626" fill-opacity="1"><g transform="translate(195.42462, 286.033107)"><g><path d="M 13.25 -18.25 C 11.363281 -17.414062 10.09375 -16.625 9.4375 -15.875 C 8.78125 -15.125 8.453125 -13.96875 8.453125 -12.40625 L 8.453125 -8.796875 C 8.453125 -7.222656 8.613281 -6.09375 8.9375 -5.40625 C 9.269531 -4.726562 9.804688 -4.390625 10.546875 -4.390625 C 11.285156 -4.390625 11.890625 -4.640625 12.359375 -5.140625 C 12.835938 -5.640625 13.132812 -6.207031 13.25 -6.84375 Z M 8.5625 0.34375 C 6.363281 0.34375 4.789062 -0.441406 3.84375 -2.015625 C 2.90625 -3.597656 2.425781 -5.867188 2.40625 -8.828125 L 2.40625 -10.984375 C 2.40625 -13.859375 3.179688 -16.035156 4.734375 -17.515625 C 5.734375 -18.484375 7.429688 -19.425781 9.828125 -20.34375 C 10.253906 -20.5 10.851562 -20.71875 11.625 -21 C 12.394531 -21.289062 12.9375 -21.492188 13.25 -21.609375 L 13.25 -24.546875 C 13.25 -26.367188 13.117188 -27.601562 12.859375 -28.25 C 12.597656 -28.90625 12 -29.234375 11.0625 -29.234375 C 10.132812 -29.234375 9.507812 -28.890625 9.1875 -28.203125 C 8.875 -27.515625 8.71875 -26.359375 8.71875 -24.734375 L 8.71875 -23.234375 L 2.84375 -23.234375 L 2.84375 -24.234375 C 2.84375 -27.421875 3.4375 -29.847656 4.625 -31.515625 C 5.8125 -33.191406 7.921875 -34.03125 10.953125 -34.03125 C 13.984375 -34.03125 16.132812 -33.191406 17.40625 -31.515625 C 18.6875 -29.847656 19.328125 -27.34375 19.328125 -24 L 19.328125 0 L 13.34375 0 L 13.34375 -3.34375 C 13.039062 -2.3125 12.46875 -1.4375 11.625 -0.71875 C 10.78125 -0.0078125 9.757812 0.34375 8.5625 0.34375 Z M 8.5625 0.34375 "/></g></g></g><g fill="#302626" fill-opacity="1"><g transform="translate(218.014661, 286.033107)"><g><path d="M 8.71875 0.421875 C 4.726562 0.421875 2.734375 -2.257812 2.734375 -7.625 L 2.734375 -33.640625 L 8.703125 -33.640625 L 8.703125 -8.546875 C 8.703125 -7.148438 8.875 -6.117188 9.21875 -5.453125 C 9.5625 -4.796875 10.203125 -4.46875 11.140625 -4.46875 C 12.953125 -4.46875 13.859375 -5.8125 13.859375 -8.5 L 13.875 -33.640625 L 19.796875 -33.640625 L 19.796875 0 L 13.859375 0 L 13.859375 -3.5 C 12.910156 -0.882812 11.195312 0.421875 8.71875 0.421875 Z M 8.71875 0.421875 "/></g></g></g><g fill="#302626" fill-opacity="1"><g transform="translate(241.366947, 286.033107)"><g><path d="M 14.671875 -34.03125 C 14.722656 -34.03125 14.75 -32.773438 14.75 -30.265625 L 14.734375 -29.015625 C 13.535156 -29.015625 12.359375 -28.8125 11.203125 -28.40625 C 10.054688 -28 9.304688 -27.425781 8.953125 -26.6875 L 8.953125 0 L 2.953125 0 L 2.953125 -33.640625 L 8.953125 -33.640625 L 8.953125 -29.890625 C 9.335938 -31.203125 10.019531 -32.21875 11 -32.9375 C 11.976562 -33.664062 13.203125 -34.03125 14.671875 -34.03125 Z M 14.671875 -34.03125 "/></g></g></g><g fill="#302626" fill-opacity="1"><g transform="translate(257.388239, 286.033107)"><g><path d="M 13.25 -18.25 C 11.363281 -17.414062 10.09375 -16.625 9.4375 -15.875 C 8.78125 -15.125 8.453125 -13.96875 8.453125 -12.40625 L 8.453125 -8.796875 C 8.453125 -7.222656 8.613281 -6.09375 8.9375 -5.40625 C 9.269531 -4.726562 9.804688 -4.390625 10.546875 -4.390625 C 11.285156 -4.390625 11.890625 -4.640625 12.359375 -5.140625 C 12.835938 -5.640625 13.132812 -6.207031 13.25 -6.84375 Z M 8.5625 0.34375 C 6.363281 0.34375 4.789062 -0.441406 3.84375 -2.015625 C 2.90625 -3.597656 2.425781 -5.867188 2.40625 -8.828125 L 2.40625 -10.984375 C 2.40625 -13.859375 3.179688 -16.035156 4.734375 -17.515625 C 5.734375 -18.484375 7.429688 -19.425781 9.828125 -20.34375 C 10.253906 -20.5 10.851562 -20.71875 11.625 -21 C 12.394531 -21.289062 12.9375 -21.492188 13.25 -21.609375 L 13.25 -24.546875 C 13.25 -26.367188 13.117188 -27.601562 12.859375 -28.25 C 12.597656 -28.90625 12 -29.234375 11.0625 -29.234375 C 10.132812 -29.234375 9.507812 -28.890625 9.1875 -28.203125 C 8.875 -27.515625 8.71875 -26.359375 8.71875 -24.734375 L 8.71875 -23.234375 L 2.84375 -23.234375 L 2.84375 -24.234375 C 2.84375 -27.421875 3.4375 -29.847656 4.625 -31.515625 C 5.8125 -33.191406 7.921875 -34.03125 10.953125 -34.03125 C 13.984375 -34.03125 16.132812 -33.191406 17.40625 -31.515625 C 18.6875 -29.847656 19.328125 -27.34375 19.328125 -24 L 19.328125 0 L 13.34375 0 L 13.34375 -3.34375 C 13.039062 -2.3125 12.46875 -1.4375 11.625 -0.71875 C 10.78125 -0.0078125 9.757812 0.34375 8.5625 0.34375 Z M 8.5625 0.34375 "/></g></g></g><g fill="#302626" fill-opacity="1"><g transform="translate(279.97828, 286.033107)"><g><path d="M 14.3125 -34.03125 C 18.195312 -34.03125 20.140625 -31.515625 20.140625 -26.484375 L 20.140625 0 L 14.1875 0 L 14.1875 -26.125 C 14.1875 -27.09375 13.96875 -27.851562 13.53125 -28.40625 C 13.09375 -28.957031 12.453125 -29.234375 11.609375 -29.234375 C 10.773438 -29.234375 10.113281 -28.875 9.625 -28.15625 C 9.144531 -27.445312 8.90625 -26.484375 8.90625 -25.265625 L 8.90625 0 L 2.953125 0 L 2.953125 -33.640625 L 8.90625 -33.640625 L 8.90625 -29.78125 C 9.195312 -30.976562 9.835938 -31.984375 10.828125 -32.796875 C 11.816406 -33.617188 12.976562 -34.03125 14.3125 -34.03125 Z M 14.3125 -34.03125 "/></g></g></g><g fill="#302626" fill-opacity="1"><g transform="translate(303.442672, 286.033107)"><g><path d="M 9.078125 0.21875 C 6.984375 0.21875 5.578125 -0.175781 4.859375 -0.96875 C 4.148438 -1.769531 3.796875 -3.160156 3.796875 -5.140625 L 3.796875 -28.640625 L 1.046875 -28.640625 L 1.046875 -32.9375 L 3.796875 -32.9375 L 3.796875 -39.484375 L 9.734375 -39.484375 L 9.734375 -32.9375 L 13 -32.9375 L 13 -28.640625 L 9.734375 -28.640625 L 9.734375 -6.171875 C 9.734375 -5.378906 9.9375 -4.867188 10.34375 -4.640625 C 10.757812 -4.421875 11.6875 -4.3125 13.125 -4.3125 L 13.125 0.21875 Z M 9.078125 0.21875 "/></g></g></g><g fill="#302626" fill-opacity="0.502"><g transform="translate(138.668148, 333.577946)"><g><path d="M 2.953125 0 L 2.953125 -39.46875 L 10.421875 -39.46875 L 16.03125 -10.625 L 21.296875 -39.46875 L 28.8125 -39.46875 L 28.8125 0 L 23.453125 0 L 23.453125 -14.703125 L 23.671875 -28.203125 L 18.359375 -0.171875 L 13.59375 -0.171875 L 8.046875 -28.203125 L 8.28125 -14.703125 L 8.28125 0 Z M 2.953125 0 "/></g></g></g><g fill="#302626" fill-opacity="0.502"><g transform="translate(171.055286, 333.577946)"><g><path d="M 13.25 -18.25 C 11.363281 -17.414062 10.09375 -16.625 9.4375 -15.875 C 8.78125 -15.125 8.453125 -13.96875 8.453125 -12.40625 L 8.453125 -8.796875 C 8.453125 -7.222656 8.613281 -6.09375 8.9375 -5.40625 C 9.269531 -4.726562 9.804688 -4.390625 10.546875 -4.390625 C 11.285156 -4.390625 11.890625 -4.640625 12.359375 -5.140625 C 12.835938 -5.640625 13.132812 -6.207031 13.25 -6.84375 Z M 8.5625 0.34375 C 6.363281 0.34375 4.789062 -0.441406 3.84375 -2.015625 C 2.90625 -3.597656 2.425781 -5.867188 2.40625 -8.828125 L 2.40625 -10.984375 C 2.40625 -13.859375 3.179688 -16.035156 4.734375 -17.515625 C 5.734375 -18.484375 7.429688 -19.425781 9.828125 -20.34375 C 10.253906 -20.5 10.851562 -20.71875 11.625 -21 C 12.394531 -21.289062 12.9375 -21.492188 13.25 -21.609375 L 13.25 -24.546875 C 13.25 -26.367188 13.117188 -27.601562 12.859375 -28.25 C 12.597656 -28.90625 12 -29.234375 11.0625 -29.234375 C 10.132812 -29.234375 9.507812 -28.890625 9.1875 -28.203125 C 8.875 -27.515625 8.71875 -26.359375 8.71875 -24.734375 L 8.71875 -23.234375 L 2.84375 -23.234375 L 2.84375 -24.234375 C 2.84375 -27.421875 3.4375 -29.847656 4.625 -31.515625 C 5.8125 -33.191406 7.921875 -34.03125 10.953125 -34.03125 C 13.984375 -34.03125 16.132812 -33.191406 17.40625 -31.515625 C 18.6875 -29.847656 19.328125 -27.34375 19.328125 -24 L 19.328125 0 L 13.34375 0 L 13.34375 -3.34375 C 13.039062 -2.3125 12.46875 -1.4375 11.625 -0.71875 C 10.78125 -0.0078125 9.757812 0.34375 8.5625 0.34375 Z M 8.5625 0.34375 "/></g></g></g><g fill="#302626" fill-opacity="0.502"><g transform="translate(193.645333, 333.577946)"><g><path d="M 14.3125 -34.03125 C 18.195312 -34.03125 20.140625 -31.515625 20.140625 -26.484375 L 20.140625 0 L 14.1875 0 L 14.1875 -26.125 C 14.1875 -27.09375 13.96875 -27.851562 13.53125 -28.40625 C 13.09375 -28.957031 12.453125 -29.234375 11.609375 -29.234375 C 10.773438 -29.234375 10.113281 -28.875 9.625 -28.15625 C 9.144531 -27.445312 8.90625 -26.484375 8.90625 -25.265625 L 8.90625 0 L 2.953125 0 L 2.953125 -33.640625 L 8.90625 -33.640625 L 8.90625 -29.78125 C 9.195312 -30.976562 9.835938 -31.984375 10.828125 -32.796875 C 11.816406 -33.617188 12.976562 -34.03125 14.3125 -34.03125 Z M 14.3125 -34.03125 "/></g></g></g><g fill="#302626" fill-opacity="0.502"><g transform="translate(217.109719, 333.577946)"><g><path d="M 13.25 -18.25 C 11.363281 -17.414062 10.09375 -16.625 9.4375 -15.875 C 8.78125 -15.125 8.453125 -13.96875 8.453125 -12.40625 L 8.453125 -8.796875 C 8.453125 -7.222656 8.613281 -6.09375 8.9375 -5.40625 C 9.269531 -4.726562 9.804688 -4.390625 10.546875 -4.390625 C 11.285156 -4.390625 11.890625 -4.640625 12.359375 -5.140625 C 12.835938 -5.640625 13.132812 -6.207031 13.25 -6.84375 Z M 8.5625 0.34375 C 6.363281 0.34375 4.789062 -0.441406 3.84375 -2.015625 C 2.90625 -3.597656 2.425781 -5.867188 2.40625 -8.828125 L 2.40625 -10.984375 C 2.40625 -13.859375 3.179688 -16.035156 4.734375 -17.515625 C 5.734375 -18.484375 7.429688 -19.425781 9.828125 -20.34375 C 10.253906 -20.5 10.851562 -20.71875 11.625 -21 C 12.394531 -21.289062 12.9375 -21.492188 13.25 -21.609375 L 13.25 -24.546875 C 13.25 -26.367188 13.117188 -27.601562 12.859375 -28.25 C 12.597656 -28.90625 12 -29.234375 11.0625 -29.234375 C 10.132812 -29.234375 9.507812 -28.890625 9.1875 -28.203125 C 8.875 -27.515625 8.71875 -26.359375 8.71875 -24.734375 L 8.71875 -23.234375 L 2.84375 -23.234375 L 2.84375 -24.234375 C 2.84375 -27.421875 3.4375 -29.847656 4.625 -31.515625 C 5.8125 -33.191406 7.921875 -34.03125 10.953125 -34.03125 C 13.984375 -34.03125 16.132812 -33.191406 17.40625 -31.515625 C 18.6875 -29.847656 19.328125 -27.34375 19.328125 -24 L 19.328125 0 L 13.34375 0 L 13.34375 -3.34375 C 13.039062 -2.3125 12.46875 -1.4375 11.625 -0.71875 C 10.78125 -0.0078125 9.757812 0.34375 8.5625 0.34375 Z M 8.5625 0.34375 "/></g></g></g><g fill="#302626" fill-opacity="0.502"><g transform="translate(239.699766, 333.577946)"><g><path d="M 19.390625 -4.140625 C 19.390625 -1.273438 18.691406 0.96875 17.296875 2.59375 C 15.898438 4.226562 13.535156 5.046875 10.203125 5.046875 C 6.878906 5.046875 4.226562 4.242188 2.25 2.640625 L 4.328125 -1.09375 C 6.109375 0.0390625 7.765625 0.609375 9.296875 0.609375 C 10.835938 0.609375 11.914062 0.222656 12.53125 -0.546875 C 13.144531 -1.328125 13.453125 -2.378906 13.453125 -3.703125 L 13.453125 -6.375 C 13.078125 -5.289062 12.503906 -4.53125 11.734375 -4.09375 C 10.960938 -3.65625 9.984375 -3.4375 8.796875 -3.4375 C 6.441406 -3.4375 4.8125 -4.304688 3.90625 -6.046875 C 3.007812 -7.796875 2.5625 -10.128906 2.5625 -13.046875 L 2.5625 -23.875 C 2.5625 -30.644531 4.679688 -34.03125 8.921875 -34.03125 C 8.953125 -34.03125 8.984375 -34.03125 9.015625 -34.03125 C 11.347656 -34.03125 12.828125 -32.90625 13.453125 -30.65625 L 13.453125 -33.640625 L 19.390625 -33.640625 Z M 8.546875 -13.3125 C 8.546875 -11.476562 8.71875 -10.125 9.0625 -9.25 C 9.414062 -8.375 10.050781 -7.9375 10.96875 -7.9375 C 11.894531 -7.9375 12.539062 -8.328125 12.90625 -9.109375 C 13.269531 -9.898438 13.453125 -11.316406 13.453125 -13.359375 L 13.453125 -24.375 C 13.453125 -25.945312 13.257812 -27.148438 12.875 -27.984375 C 12.5 -28.816406 11.820312 -29.234375 10.84375 -29.234375 C 9.875 -29.234375 9.25 -28.800781 8.96875 -27.9375 C 8.6875 -27.082031 8.546875 -25.898438 8.546875 -24.390625 Z M 8.546875 -13.3125 "/></g></g></g><g fill="#302626" fill-opacity="0.502"><g transform="translate(262.491589, 333.577946)"><g><path d="M 10.8125 0.40625 C 7.03125 0.40625 4.59375 -1.035156 3.5 -3.921875 C 2.8125 -5.765625 2.46875 -8.1875 2.46875 -11.1875 L 2.46875 -23.71875 C 2.46875 -30.59375 5.328125 -34.03125 11.046875 -34.03125 C 14.097656 -34.03125 16.210938 -33.125 17.390625 -31.3125 C 18.566406 -29.507812 19.15625 -26.941406 19.15625 -23.609375 L 19.15625 -16.40625 L 8.453125 -16.40625 L 8.453125 -9.796875 C 8.453125 -7.460938 8.65625 -5.976562 9.0625 -5.34375 C 9.46875 -4.707031 10.070312 -4.390625 10.875 -4.390625 C 11.675781 -4.390625 12.195312 -4.578125 12.4375 -4.953125 C 12.84375 -5.609375 13.078125 -6.28125 13.140625 -6.96875 C 13.203125 -7.65625 13.234375 -8.597656 13.234375 -9.796875 L 13.234375 -12.765625 L 19.109375 -12.765625 L 19.109375 -10.96875 C 19.109375 -7.914062 18.867188 -5.722656 18.390625 -4.390625 C 17.910156 -3.066406 17.359375 -2.101562 16.734375 -1.5 C 15.410156 -0.226562 13.4375 0.40625 10.8125 0.40625 Z M 8.4375 -19.890625 L 13.234375 -19.890625 L 13.234375 -24.1875 C 13.234375 -26.03125 13.085938 -27.347656 12.796875 -28.140625 C 12.503906 -28.941406 11.910156 -29.34375 11.015625 -29.34375 C 10.992188 -29.34375 10.984375 -29.34375 10.984375 -29.34375 C 9.429688 -29.34375 8.59375 -28.15625 8.46875 -25.78125 C 8.445312 -25.332031 8.4375 -24.75 8.4375 -24.03125 Z M 8.4375 -19.890625 "/></g></g></g><g fill="#302626" fill-opacity="0.502"><g transform="translate(284.566004, 333.577946)"><g><path d="M 14.671875 -34.03125 C 14.722656 -34.03125 14.75 -32.773438 14.75 -30.265625 L 14.734375 -29.015625 C 13.535156 -29.015625 12.359375 -28.8125 11.203125 -28.40625 C 10.054688 -28 9.304688 -27.425781 8.953125 -26.6875 L 8.953125 0 L 2.953125 0 L 2.953125 -33.640625 L 8.953125 -33.640625 L 8.953125 -29.890625 C 9.335938 -31.203125 10.019531 -32.21875 11 -32.9375 C 11.976562 -33.664062 13.203125 -34.03125 14.671875 -34.03125 Z M 14.671875 -34.03125 "/></g></g></g><g fill="#302626" fill-opacity="1"><g transform="translate(135.795802, 331.783104)"><g><path d="M 2.953125 0 L 2.953125 -39.46875 L 10.421875 -39.46875 L 16.03125 -10.625 L 21.296875 -39.46875 L 28.8125 -39.46875 L 28.8125 0 L 23.453125 0 L 23.453125 -14.703125 L 23.671875 -28.203125 L 18.359375 -0.171875 L 13.59375 -0.171875 L 8.046875 -28.203125 L 8.28125 -14.703125 L 8.28125 0 Z M 2.953125 0 "/></g></g></g><g fill="#302626" fill-opacity="1"><g transform="translate(168.18294, 331.783104)"><g><path d="M 13.25 -18.25 C 11.363281 -17.414062 10.09375 -16.625 9.4375 -15.875 C 8.78125 -15.125 8.453125 -13.96875 8.453125 -12.40625 L 8.453125 -8.796875 C 8.453125 -7.222656 8.613281 -6.09375 8.9375 -5.40625 C 9.269531 -4.726562 9.804688 -4.390625 10.546875 -4.390625 C 11.285156 -4.390625 11.890625 -4.640625 12.359375 -5.140625 C 12.835938 -5.640625 13.132812 -6.207031 13.25 -6.84375 Z M 8.5625 0.34375 C 6.363281 0.34375 4.789062 -0.441406 3.84375 -2.015625 C 2.90625 -3.597656 2.425781 -5.867188 2.40625 -8.828125 L 2.40625 -10.984375 C 2.40625 -13.859375 3.179688 -16.035156 4.734375 -17.515625 C 5.734375 -18.484375 7.429688 -19.425781 9.828125 -20.34375 C 10.253906 -20.5 10.851562 -20.71875 11.625 -21 C 12.394531 -21.289062 12.9375 -21.492188 13.25 -21.609375 L 13.25 -24.546875 C 13.25 -26.367188 13.117188 -27.601562 12.859375 -28.25 C 12.597656 -28.90625 12 -29.234375 11.0625 -29.234375 C 10.132812 -29.234375 9.507812 -28.890625 9.1875 -28.203125 C 8.875 -27.515625 8.71875 -26.359375 8.71875 -24.734375 L 8.71875 -23.234375 L 2.84375 -23.234375 L 2.84375 -24.234375 C 2.84375 -27.421875 3.4375 -29.847656 4.625 -31.515625 C 5.8125 -33.191406 7.921875 -34.03125 10.953125 -34.03125 C 13.984375 -34.03125 16.132812 -33.191406 17.40625 -31.515625 C 18.6875 -29.847656 19.328125 -27.34375 19.328125 -24 L 19.328125 0 L 13.34375 0 L 13.34375 -3.34375 C 13.039062 -2.3125 12.46875 -1.4375 11.625 -0.71875 C 10.78125 -0.0078125 9.757812 0.34375 8.5625 0.34375 Z M 8.5625 0.34375 "/></g></g></g><g fill="#302626" fill-opacity="1"><g transform="translate(190.772986, 331.783104)"><g><path d="M 14.3125 -34.03125 C 18.195312 -34.03125 20.140625 -31.515625 20.140625 -26.484375 L 20.140625 0 L 14.1875 0 L 14.1875 -26.125 C 14.1875 -27.09375 13.96875 -27.851562 13.53125 -28.40625 C 13.09375 -28.957031 12.453125 -29.234375 11.609375 -29.234375 C 10.773438 -29.234375 10.113281 -28.875 9.625 -28.15625 C 9.144531 -27.445312 8.90625 -26.484375 8.90625 -25.265625 L 8.90625 0 L 2.953125 0 L 2.953125 -33.640625 L 8.90625 -33.640625 L 8.90625 -29.78125 C 9.195312 -30.976562 9.835938 -31.984375 10.828125 -32.796875 C 11.816406 -33.617188 12.976562 -34.03125 14.3125 -34.03125 Z M 14.3125 -34.03125 "/></g></g></g><g fill="#302626" fill-opacity="1"><g transform="translate(214.237373, 331.783104)"><g><path d="M 13.25 -18.25 C 11.363281 -17.414062 10.09375 -16.625 9.4375 -15.875 C 8.78125 -15.125 8.453125 -13.96875 8.453125 -12.40625 L 8.453125 -8.796875 C 8.453125 -7.222656 8.613281 -6.09375 8.9375 -5.40625 C 9.269531 -4.726562 9.804688 -4.390625 10.546875 -4.390625 C 11.285156 -4.390625 11.890625 -4.640625 12.359375 -5.140625 C 12.835938 -5.640625 13.132812 -6.207031 13.25 -6.84375 Z M 8.5625 0.34375 C 6.363281 0.34375 4.789062 -0.441406 3.84375 -2.015625 C 2.90625 -3.597656 2.425781 -5.867188 2.40625 -8.828125 L 2.40625 -10.984375 C 2.40625 -13.859375 3.179688 -16.035156 4.734375 -17.515625 C 5.734375 -18.484375 7.429688 -19.425781 9.828125 -20.34375 C 10.253906 -20.5 10.851562 -20.71875 11.625 -21 C 12.394531 -21.289062 12.9375 -21.492188 13.25 -21.609375 L 13.25 -24.546875 C 13.25 -26.367188 13.117188 -27.601562 12.859375 -28.25 C 12.597656 -28.90625 12 -29.234375 11.0625 -29.234375 C 10.132812 -29.234375 9.507812 -28.890625 9.1875 -28.203125 C 8.875 -27.515625 8.71875 -26.359375 8.71875 -24.734375 L 8.71875 -23.234375 L 2.84375 -23.234375 L 2.84375 -24.234375 C 2.84375 -27.421875 3.4375 -29.847656 4.625 -31.515625 C 5.8125 -33.191406 7.921875 -34.03125 10.953125 -34.03125 C 13.984375 -34.03125 16.132812 -33.191406 17.40625 -31.515625 C 18.6875 -29.847656 19.328125 -27.34375 19.328125 -24 L 19.328125 0 L 13.34375 0 L 13.34375 -3.34375 C 13.039062 -2.3125 12.46875 -1.4375 11.625 -0.71875 C 10.78125 -0.0078125 9.757812 0.34375 8.5625 0.34375 Z M 8.5625 0.34375 "/></g></g></g><g fill="#302626" fill-opacity="1"><g transform="translate(236.82742, 331.783104)"><g><path d="M 19.390625 -4.140625 C 19.390625 -1.273438 18.691406 0.96875 17.296875 2.59375 C 15.898438 4.226562 13.535156 5.046875 10.203125 5.046875 C 6.878906 5.046875 4.226562 4.242188 2.25 2.640625 L 4.328125 -1.09375 C 6.109375 0.0390625 7.765625 0.609375 9.296875 0.609375 C 10.835938 0.609375 11.914062 0.222656 12.53125 -0.546875 C 13.144531 -1.328125 13.453125 -2.378906 13.453125 -3.703125 L 13.453125 -6.375 C 13.078125 -5.289062 12.503906 -4.53125 11.734375 -4.09375 C 10.960938 -3.65625 9.984375 -3.4375 8.796875 -3.4375 C 6.441406 -3.4375 4.8125 -4.304688 3.90625 -6.046875 C 3.007812 -7.796875 2.5625 -10.128906 2.5625 -13.046875 L 2.5625 -23.875 C 2.5625 -30.644531 4.679688 -34.03125 8.921875 -34.03125 C 8.953125 -34.03125 8.984375 -34.03125 9.015625 -34.03125 C 11.347656 -34.03125 12.828125 -32.90625 13.453125 -30.65625 L 13.453125 -33.640625 L 19.390625 -33.640625 Z M 8.546875 -13.3125 C 8.546875 -11.476562 8.71875 -10.125 9.0625 -9.25 C 9.414062 -8.375 10.050781 -7.9375 10.96875 -7.9375 C 11.894531 -7.9375 12.539062 -8.328125 12.90625 -9.109375 C 13.269531 -9.898438 13.453125 -11.316406 13.453125 -13.359375 L 13.453125 -24.375 C 13.453125 -25.945312 13.257812 -27.148438 12.875 -27.984375 C 12.5 -28.816406 11.820312 -29.234375 10.84375 -29.234375 C 9.875 -29.234375 9.25 -28.800781 8.96875 -27.9375 C 8.6875 -27.082031 8.546875 -25.898438 8.546875 -24.390625 Z M 8.546875 -13.3125 "/></g></g></g><g fill="#302626" fill-opacity="1"><g transform="translate(259.619242, 331.783104)"><g><path d="M 10.8125 0.40625 C 7.03125 0.40625 4.59375 -1.035156 3.5 -3.921875 C 2.8125 -5.765625 2.46875 -8.1875 2.46875 -11.1875 L 2.46875 -23.71875 C 2.46875 -30.59375 5.328125 -34.03125 11.046875 -34.03125 C 14.097656 -34.03125 16.210938 -33.125 17.390625 -31.3125 C 18.566406 -29.507812 19.15625 -26.941406 19.15625 -23.609375 L 19.15625 -16.40625 L 8.453125 -16.40625 L 8.453125 -9.796875 C 8.453125 -7.460938 8.65625 -5.976562 9.0625 -5.34375 C 9.46875 -4.707031 10.070312 -4.390625 10.875 -4.390625 C 11.675781 -4.390625 12.195312 -4.578125 12.4375 -4.953125 C 12.84375 -5.609375 13.078125 -6.28125 13.140625 -6.96875 C 13.203125 -7.65625 13.234375 -8.597656 13.234375 -9.796875 L 13.234375 -12.765625 L 19.109375 -12.765625 L 19.109375 -10.96875 C 19.109375 -7.914062 18.867188 -5.722656 18.390625 -4.390625 C 17.910156 -3.066406 17.359375 -2.101562 16.734375 -1.5 C 15.410156 -0.226562 13.4375 0.40625 10.8125 0.40625 Z M 8.4375 -19.890625 L 13.234375 -19.890625 L 13.234375 -24.1875 C 13.234375 -26.03125 13.085938 -27.347656 12.796875 -28.140625 C 12.503906 -28.941406 11.910156 -29.34375 11.015625 -29.34375 C 10.992188 -29.34375 10.984375 -29.34375 10.984375 -29.34375 C 9.429688 -29.34375 8.59375 -28.15625 8.46875 -25.78125 C 8.445312 -25.332031 8.4375 -24.75 8.4375 -24.03125 Z M 8.4375 -19.890625 "/></g></g></g><g fill="#302626" fill-opacity="1"><g transform="translate(281.693658, 331.783104)"><g><path d="M 14.671875 -34.03125 C 14.722656 -34.03125 14.75 -32.773438 14.75 -30.265625 L 14.734375 -29.015625 C 13.535156 -29.015625 12.359375 -28.8125 11.203125 -28.40625 C 10.054688 -28 9.304688 -27.425781 8.953125 -26.6875 L 8.953125 0 L 2.953125 0 L 2.953125 -33.640625 L 8.953125 -33.640625 L 8.953125 -29.890625 C 9.335938 -31.203125 10.019531 -32.21875 11 -32.9375 C 11.976562 -33.664062 13.203125 -34.03125 14.671875 -34.03125 Z M 14.671875 -34.03125 "/></g></g></g><path stroke-linecap="butt" transform="matrix(0.00000000000000038, 0.751547, -0.75, 0.000000000000000379, 73.610529, 31.236949)" fill="none" stroke-linejoin="miter" d="M 0.00177322 1.001539 L 166.658024 1.001539 " stroke="#302626" stroke-width="2" stroke-opacity="1" stroke-miterlimit="4"/><g clip-path="url(#7144434138)"><path fill="#302626" d="M 165.207031 216.5 C 164.476562 223.429688 166.226562 229.667969 169.863281 232.867188 C 171.09375 233.945312 174.535156 235.90625 176.941406 236.660156 C 179.882812 237.601562 182.980469 238.046875 186.269531 237.96875 C 194.429688 237.8125 204.199219 234.347656 210.03125 229.34375 L 215.378906 224.222656 C 215.9375 224.683594 215.6875 224.414062 216.261719 225.105469 C 216.628906 225.53125 216.472656 225.394531 216.820312 225.859375 C 222.074219 232.539062 235.328125 237.777344 244.464844 237.96875 C 250.660156 238.101562 256.296875 236.792969 260.742188 232.710938 C 264.894531 228.878906 266.398438 224.046875 265.589844 216.421875 C 264.53125 219.542969 264.875 221.3125 262.570312 223.238281 C 253.21875 231.015625 237.308594 211.746094 228.785156 209.933594 C 220.339844 208.144531 216.398438 215.613281 215.378906 216.441406 C 213.414062 214.171875 213.109375 213.054688 210.433594 211.378906 C 204.988281 207.972656 200.121094 210.089844 195.179688 213.167969 C 192.832031 214.652344 191.734375 215.84375 189.542969 217.519531 C 187.523438 219.0625 185.65625 220.101562 183.558594 221.507812 C 181.789062 222.699219 178.882812 224.027344 176.59375 224.546875 C 173.515625 225.242188 170.167969 224.875 168.226562 223.199219 C 166.167969 221.429688 166.148438 219.523438 165.207031 216.5 Z M 165.207031 216.5 " fill-opacity="1" fill-rule="evenodd"/></g><g clip-path="url(#ab4635bce9)"><path fill="#302626" d="M 261.972656 154.273438 C 259.664062 161.707031 258.472656 168.808594 258.414062 175.550781 C 258.355469 183 259.664062 190.066406 262.375 196.765625 L 266.128906 206.027344 L 256.394531 203.753906 C 243.101562 200.636719 229.480469 199.117188 215.570312 199.210938 C 201.605469 199.289062 187.273438 200.984375 172.574219 204.273438 L 164.589844 206.066406 L 166.398438 198.074219 C 168.246094 189.949219 169.128906 181.960938 169.054688 174.046875 C 168.917969 161.359375 163.761719 154.601562 169.378906 144.378906 C 160.183594 142.972656 152.757812 139.179688 147.351562 134.171875 C 142.390625 129.570312 139.121094 123.949219 137.734375 118.15625 C 136.292969 112.148438 136.847656 105.96875 139.621094 100.539062 C 143.929688 92.027344 153.453125 85.480469 168.839844 84.671875 C 177.289062 74.46875 186.484375 68.632812 196.449219 67.171875 C 206.277344 65.726562 216.550781 68.597656 227.210938 75.777344 C 233.789062 73.371094 239.847656 72.773438 245.390625 74.007812 C 251.160156 75.296875 256.144531 78.472656 260.335938 83.535156 C 262.011719 83.671875 263.625 83.863281 265.203125 84.113281 C 275.167969 85.65625 282.652344 89.390625 287.617188 95.300781 C 292.636719 101.269531 294.90625 109.164062 294.40625 118.980469 C 294.3125 121.042969 294.078125 123.21875 293.714844 125.507812 L 293.617188 126.027344 C 291.519531 133.921875 287.5 140.316406 281.535156 145.207031 C 276.398438 149.402344 269.878906 152.425781 261.992188 154.273438 Z M 248.0625 175.472656 C 248.140625 166.769531 249.8125 157.644531 253.101562 148.132812 L 254.085938 145.28125 L 257.066406 144.722656 C 264.570312 143.320312 270.53125 140.816406 274.957031 137.175781 C 279.152344 133.730469 282.019531 129.207031 283.539062 123.582031 C 283.808594 121.832031 283.960938 120.136719 284.058594 118.5 C 284.402344 111.359375 282.960938 105.832031 279.691406 101.960938 C 276.382812 98.035156 271.03125 95.492188 263.605469 94.335938 C 261.703125 94.050781 259.644531 93.835938 257.414062 93.722656 L 254.910156 93.605469 L 253.46875 91.605469 C 250.488281 87.484375 247.042969 85 243.15625 84.132812 C 239.078125 83.230469 234.210938 83.980469 228.59375 86.40625 L 225.902344 87.5625 L 223.496094 85.808594 C 214.261719 79.070312 205.757812 76.277344 197.929688 77.433594 C 190.097656 78.589844 182.617188 83.769531 175.460938 92.953125 L 173.941406 94.914062 L 171.4375 94.953125 C 159.050781 95.109375 151.777344 99.480469 148.871094 105.214844 C 147.257812 108.414062 146.929688 112.128906 147.816406 115.765625 C 148.738281 119.617188 150.96875 123.429688 154.394531 126.585938 C 176.441406 146.976562 189.675781 120.40625 201.507812 139.832031 C 198.507812 142.761719 193.195312 146.246094 187.425781 149.074219 C 184.097656 150.710938 180.558594 152.175781 177.171875 153.195312 C 178.59375 160.050781 179.34375 166.960938 179.421875 173.96875 C 179.480469 180.132812 179.019531 186.332031 178.039062 192.570312 C 190.773438 190.164062 203.277344 188.910156 215.550781 188.851562 C 227.246094 188.777344 238.714844 189.777344 249.929688 191.816406 C 248.640625 186.5625 248.042969 181.113281 248.082031 175.472656 Z M 248.0625 175.472656 " fill-opacity="1" fill-rule="nonzero"/></g><path fill="#302626" d="M 192.601562 123.488281 L 190.832031 121.003906 C 190.773438 120.925781 190.695312 120.8125 190.636719 120.734375 C 188.078125 117.058594 187.328125 116.363281 183.847656 113.207031 C 182.90625 112.359375 184.65625 113.804688 182.789062 112.359375 L 181.980469 111.144531 C 181.367188 110.550781 181.230469 110.53125 180.480469 109.683594 C 179.210938 108.257812 179.039062 108.046875 177.632812 107.101562 C 178.152344 108.988281 182.191406 116.191406 183.480469 117.421875 C 184.347656 119.65625 185.695312 121.910156 187.15625 123.679688 L 188.40625 126.433594 C 190.773438 126.472656 191.542969 125.875 193.660156 125.625 C 193.445312 124.179688 194.003906 124.488281 192.601562 123.46875 Z M 192.601562 123.488281 " fill-opacity="1" fill-rule="evenodd"/><path fill="#302626" d="M 250.527344 128.417969 C 251.351562 127.375 252.910156 125.664062 253.429688 124.488281 C 253.855469 124.179688 253.796875 124.507812 254.546875 123.566406 C 255.21875 122.71875 255.027344 122.8125 255.46875 121.734375 C 256.238281 121.371094 261.914062 113.707031 262.472656 112.1875 C 261.183594 112.898438 256.21875 116.441406 255.585938 117.578125 C 253.410156 118.980469 251.640625 120.234375 249.449219 122.253906 C 248.3125 123.3125 245.042969 126.492188 244.542969 128.417969 C 245.351562 128.820312 246.0625 129.050781 247.003906 129.4375 C 248.71875 130.128906 247.390625 129.9375 249.601562 130.1875 L 250.527344 128.4375 Z M 250.527344 128.417969 " fill-opacity="1" fill-rule="evenodd"/><path fill="#302626" d="M 208.585938 123.3125 C 209.875 123.566406 210.761719 124.007812 211.550781 122.890625 L 210.839844 119.347656 L 206.488281 106.429688 C 205.566406 104.023438 202.546875 96.128906 200.46875 95.164062 L 204.507812 115.632812 L 206.527344 123.71875 C 206.703125 123.71875 207.566406 123.738281 207.722656 123.699219 C 208.875 123.429688 207.875 123.796875 208.605469 123.3125 Z M 208.585938 123.3125 " fill-opacity="1" fill-rule="evenodd"/><path fill="#302626" d="M 233.558594 120.40625 L 241.425781 97.628906 C 239.503906 98.246094 237.964844 101.171875 236.828125 103.058594 C 231.210938 112.417969 231.132812 113.9375 226.960938 123.699219 C 227.34375 124.566406 226.59375 124.449219 229.191406 124.855469 C 230.09375 124.988281 230.960938 125.085938 231.921875 125.238281 C 232.539062 123.429688 233.078125 121.621094 233.558594 120.386719 Z M 233.558594 120.40625 " fill-opacity="1" fill-rule="evenodd"/></svg>